<?xml version="1.0" encoding="UTF-8"?>
<svg id="Lager_1" data-name="Lager 1" xmlns="http://www.w3.org/2000/svg" viewBox="0 0 16.93 16.93">
  <defs>
    <style>
      .cls-1 {
        fill: #fff;
        stroke-width: 0px;
      }
    </style>
  </defs>
  <path class="cls-1" d="M5.54,1.94c-1.4.13-2.31.54-3.13,1.33h0c-1.67,1.7-1.67,4.41-.06,6.14.02.05.05.1.09.13h0l5.74,5.75c.15.16.41.16.56,0l5.74-5.73s0,0,.01-.01c0,0,0,0,0,0,0,0,.02-.02.03-.03,0,0,0,0,.01-.01,1.71-1.76,1.68-4.58-.07-6.29-1.66-1.63-4.25-1.65-5.99-.17-.85-.73-1.88-1.13-2.94-1.12h0ZM19539.44,19534.93c10786.67,0,19531-8744.33,19531-19531,.01,0,.03,0,.04,0,.01,0,.03,0,.04,0,0,0,.01,0,.02,0s.01,0,.02,0,.01,0,.02,0c0,0,.01,0,.02,0,0,0,.01,0,.02,0,0,0,.01,0,.02,0h0s0,0,.01,0c0,0,0,0,0,0h0s.04-.03.06-.05c1.43-1.42,3.72-1.43,5.16-.02,1.44,1.42,1.47,3.72.06,5.17,0,0,0,0,0,0,0,0-.02.02-.03.03,0,0,0,0-.01.01,0,0-.02.02-.02.02l-5.45,5.44-5.44-5.45s-.02-.02-.02-.03c-1.42-1.43-1.43-3.72-.02-5.16,0,0,0,0,0,0h0c.71-.72,1.64-1.09,2.57-1.1"/>
</svg>