<?xml version="1.0" encoding="UTF-8" standalone="no"?>
<!-- Created with Inkscape (http://www.inkscape.org/) -->

<svg
   width="50"
   height="50"
   viewBox="0 0 13.229166 13.229167"
   version="1.1"
   id="svg5"
   xml:space="preserve"
   inkscape:version="1.2.2 (732a01da63, 2022-12-09)"
   sodipodi:docname="menu-icon.svg"
   xmlns:inkscape="http://www.inkscape.org/namespaces/inkscape"
   xmlns:sodipodi="http://sodipodi.sourceforge.net/DTD/sodipodi-0.dtd"
   xmlns="http://www.w3.org/2000/svg"
   xmlns:svg="http://www.w3.org/2000/svg"><sodipodi:namedview
     id="namedview7"
     pagecolor="#ffffff"
     bordercolor="#000000"
     borderopacity="0.25"
     inkscape:showpageshadow="2"
     inkscape:pageopacity="0.0"
     inkscape:pagecheckerboard="true"
     inkscape:deskcolor="#d1d1d1"
     inkscape:document-units="mm"
     showgrid="false"
     inkscape:zoom="5.1754899"
     inkscape:cx="52.458802"
     inkscape:cy="33.13696"
     inkscape:window-width="2560"
     inkscape:window-height="1351"
     inkscape:window-x="-9"
     inkscape:window-y="-9"
     inkscape:window-maximized="1"
     inkscape:current-layer="layer1" /><defs
     id="defs2" /><g
     inkscape:label="Lager 1"
     inkscape:groupmode="layer"
     id="layer1"><path
       style="text-indent:0;text-transform:none;fill:#ffffff;fill-opacity:1;stroke-width:0.0758577"
       d="m 6.6145835,0.07083619 c -1.8415766,0 -3.3377423,1.49616751 -3.3377423,3.33774321 0,1.8415759 1.4961657,3.3377434 3.3377423,3.3377434 1.841576,0 3.337742,-1.4961675 3.337742,-3.3377434 0,-1.8415757 -1.496166,-3.33774321 -3.337742,-3.33774321 z m 0,0.30344051 c 1.6775869,0 3.0343102,1.3567232 3.0343102,3.0343099 0,1.6775866 -1.3567233,3.0343133 -3.0343102,3.0343133 -1.6775875,0 -3.0343112,-1.3567267 -3.0343112,-3.0343133 0,-1.6775867 1.3567237,-3.0343099 3.0343112,-3.0343099 z M 5.4767169,1.9672901 v 2.8825965 l 2.5791642,-1.4413 z"
       overflow="visible"
       color="#000000"
       id="path182" /><g
       style="fill:#ffffff;fill-opacity:1"
       id="g308"
       transform="matrix(0.52347539,0,0,0.52347539,2.4267802,6.5075735)"><path
         fill-rule="evenodd"
         d="M 2.5,12 A 0.5,0.5 0 0 1 3,11.5 h 10 a 0.5,0.5 0 0 1 0,1 H 3 A 0.5,0.5 0 0 1 2.5,12 Z m 0,-4 A 0.5,0.5 0 0 1 3,7.5 h 10 a 0.5,0.5 0 0 1 0,1 H 3 A 0.5,0.5 0 0 1 2.5,8 Z m 0,-4 A 0.5,0.5 0 0 1 3,3.5 h 10 a 0.5,0.5 0 0 1 0,1 H 3 A 0.5,0.5 0 0 1 2.5,4 Z"
         id="path299"
         style="fill:#ffffff;fill-opacity:1" /></g></g></svg>
