<svg width="23" height="31" viewBox="0 0 23 31" fill="none" xmlns="http://www.w3.org/2000/svg">
<path d="M11.2444 0C5.0404 0 0 5.0404 0 11.2444C0 17.4485 5.0404 22.4889 11.2444 22.4889C17.4485 22.4889 22.4889 17.4485 22.4889 11.2444C22.4889 5.0404 17.4485 0 11.2444 0ZM11.2444 1.02222C16.896 1.02222 21.4667 5.59286 21.4667 11.2444C21.4667 16.896 16.896 21.4667 11.2444 21.4667C5.59286 21.4667 1.02222 16.896 1.02222 11.2444C1.02222 5.59286 5.59286 1.02222 11.2444 1.02222ZM7.41111 6.38889V16.1L16.1 11.2444L7.41111 6.38889Z" fill="white"/>
<line y1="26.3334" x2="23" y2="26.3334" stroke="white"/>
<line y1="30.1666" x2="23" y2="30.1666" stroke="white"/>
</svg>
