<svg fill="none" height="343" viewBox="0 0 1940 343" width="1940" xmlns="http://www.w3.org/2000/svg" xmlns:xlink="http://www.w3.org/1999/xlink"><clipPath id="a"><path d="m0 0h1940v343h-1940z"/></clipPath><g clip-path="url(#a)"><path d="m0 0h1940v343h-1940z" fill="#fff"/><rect fill="#e14646" fill-opacity=".3" height="20.5514" rx="3" width="80.3148" x="-3.8999"/><path d="m3.75297 14v-10.18182h3.44035c.79545 0 1.44839.13589 1.9588.40767.51042.26847.88828.63802 1.13348 1.10867.2453.47064.3679 1.00592.3679 1.60582 0 .59991-.1226 1.13187-.3679 1.59588-.2452.46402-.6214.8286-1.12851 1.09375-.5071.26184-1.15506.39273-1.94389.39273h-2.78409v-1.11361h2.74432c.54356 0 .98106-.07954 1.3125-.23864.33475-.15909.5767-.38447.72585-.67613.15246-.29498.22869-.64631.22869-1.05398s-.07623-.76397-.22869-1.06889c-.15246-.30493-.39607-.54025-.73082-.70597-.33476-.16903-.77723-.25355-1.32742-.25355h-2.16761v9.08807zm4.79262-4.57386 2.50571 4.57386h-1.43185l-2.46591-4.57386zm7.12301 4.73296c-.7358 0-1.3705-.1624-1.9041-.4872-.5303-.3281-.9396-.7855-1.228-1.3722-.285-.5899-.4275-1.276-.4275-2.0582 0-.78222.1425-1.47161.4275-2.0682.2884-.59991.6894-1.06724 1.2032-1.40199.517-.33807 1.1202-.50711 1.8096-.50711.3977 0 .7905.06629 1.1783.19887.3878.13257.7408.34801 1.0589.64631.3182.29498.5718.68607.7607 1.17329s.2834 1.08712.2834 1.79973v.4971h-5.8864v-1.01416h4.6932c0-.43087-.0862-.81534-.2585-1.15341-.1691-.33807-.411-.60488-.7259-.80042-.3115-.19555-.6794-.29333-1.1037-.29333-.4673 0-.8717.11601-1.2131.34801-.338.2287-.5982.52699-.7805.89489s-.2734.76231-.2734 1.18324v.67618c0 .5767.0994 1.0655.2983 1.4666.2021.3977.4822.701.8402.9098.3579.2055.7739.3082 1.2478.3082.3083 0 .5867-.0431.8353-.1292.2519-.0895.4689-.2221.6512-.3978.1823-.179.3232-.401.4226-.6662l1.1335.3182c-.1193.3845-.3198.7226-.6015 1.0142-.2817.2884-.6297.5137-1.044.6762-.4143.159-.88.2386-1.3971.2386zm7.8303 0c-.6364 0-1.1982-.1608-1.6854-.4823-.4872-.3248-.8684-.7822-1.1434-1.3721-.2751-.5933-.4127-1.2943-.4127-2.103 0-.80208.1376-1.4981.4127-2.08806.275-.58997.6579-1.0457 1.1484-1.36719.4905-.3215 1.0573-.48225 1.7003-.48225.4971 0 .8899.08286 1.1782.24858.2917.16241.5138.34802.6662.55682.1558.20549.2768.37453.363.5071h.0994v-3.75852h1.1733v10.18182h-1.1335v-1.1733h-.1392c-.0862.1392-.2088.3149-.3679.527-.1591.2088-.3862.3961-.6811.5618-.295.1624-.6878.2436-1.1783.2436zm.1591-1.054c.4706 0 .8684-.1226 1.1932-.3679.3248-.2486.5717-.5916.7407-1.0291.1691-.4408.2536-.9496.2536-1.5263 0-.57006-.0829-1.06887-.2486-1.49643-.1657-.43087-.411-.76563-.7358-1.00426-.3248-.24195-.7258-.36293-1.2031-.36293-.4972 0-.9115.12761-1.2429.38281-.3281.2519-.5751.59494-.7408 1.02912-.1624.43087-.2436.91478-.2436 1.45169 0 .5436.0829 1.0374.2486 1.4816.169.4408.4176.7921.7457 1.0539.3315.2586.7425.3878 1.233.3878zm12.9112-6.74146v.99431h-3.9574v-.99431zm-2.804-1.82955h1.1733v7.27841c0 .3314.0481.58.1442.7457.0994.1624.2254.2718.3778.3282.1558.053.3199.0795.4922.0795.1293 0 .2353-.0066.3182-.0199.0829-.0165.1492-.0298.1989-.0398l.2386 1.054c-.0795.0299-.1906.0597-.3331.0895-.1425.0332-.3231.0497-.5419.0497-.3314 0-.6562-.0712-.9744-.2137-.3149-.1426-.5767-.3597-.7855-.6513-.2055-.2917-.3083-.6596-.3083-1.1037zm6.8161 9.64491c-.4839 0-.9231-.0912-1.3175-.2735-.3944-.1856-.7076-.4524-.9396-.8004-.232-.3513-.348-.7756-.348-1.2727 0-.4375.0861-.7922.2585-1.0639.1723-.2751.4027-.4906.691-.6463.2884-.15582.6066-.27182.9546-.34805.3513-.07955.7043-.14252 1.0589-.18892.464-.05966.8402-.10441 1.1286-.13424.2916-.03314.5038-.08783.6363-.16406.1359-.07623.2039-.20881.2039-.39773v-.03977c0-.49053-.1343-.87168-.4027-1.14346-.2652-.27178-.6679-.40767-1.2081-.40767-.5601 0-.9993.12263-1.3175.36789-.3182.24527-.5419.50711-.6712.78551l-1.1136-.39772c.1989-.46402.464-.82529.7955-1.08381.3347-.26184.6993-.44413 1.0937-.54687.3977-.10607.7888-.1591 1.1733-.1591.2453 0 .527.02983.8452.08949.3215.05635.6314.17401.9297.35299.3016.17897.5518.4491.7507.81037.1988.36126.2983.84517.2983 1.4517v5.03125h-1.1733v-1.0341h-.0597c-.0795.1657-.2121.343-.3977.532-.1856.1889-.4325.3496-.7408.4822-.3082.1326-.6844.1989-1.1285.1989zm.179-1.054c.464 0 .8551-.0911 1.1732-.2734.3215-.1823.5635-.4177.7259-.706.1657-.2884.2486-.5916.2486-.9098v-1.0739c-.0497.0597-.1591.1144-.3281.1641-.1658.0464-.358.0878-.5767.1243-.2155.0331-.4259.063-.6314.0895-.2022.0232-.3663.0431-.4922.0596-.305.0398-.59.1044-.8551.1939-.2619.0862-.474.2171-.6364.3928-.1591.1723-.2386.4076-.2386.7059 0 .4077.1508.716.4524.9248.3049.2055.691.3082 1.1584.3082zm8.5449 3.8977c-.5668 0-1.054-.0729-1.4617-.2187-.4076-.1425-.7474-.3315-1.0191-.5668-.2685-.232-.4823-.4806-.6414-.7457l.9347-.6563c.106.1392.2403.2983.4027.4773.1624.1823.3844.3397.6662.4723.285.1359.6579.2038 1.1186.2038.6165 0 1.1252-.1491 1.5263-.4474.401-.2983.6015-.7656.6015-1.402v-1.5511h-.0994c-.0862.1392-.2088.3115-.3679.517-.1558.2022-.3812.3828-.6761.5419-.2917.1558-.6861.2337-1.1833.2337-.6165 0-1.17-.1459-1.6605-.4375-.4872-.2917-.8733-.7159-1.1584-1.2727-.2817-.5569-.4226-1.233-.4226-2.0285 0-.78215.1376-1.46326.4127-2.04328.2751-.58333.6579-1.03409 1.1484-1.35227.4905-.3215 1.0573-.48225 1.7003-.48225.4972 0 .8916.08286 1.1832.24858.295.16241.5204.34802.6762.55682.1591.20549.2817.37453.3679.5071h.1193v-1.21306h1.1335v7.85516c0 .6562-.1491 1.1898-.4474 1.6008-.295.4143-.6927.7176-1.1932.9098-.4972.1956-1.0507.2933-1.6605.2933zm-.0398-4.196c.4706 0 .8684-.1077 1.1932-.3231.3248-.2155.5717-.5254.7408-.9297.169-.4044.2535-.8883.2535-1.4517 0-.55023-.0829-1.03579-.2486-1.45672s-.411-.75071-.7358-.98934c-.3248-.23864-.7258-.35796-1.2031-.35796-.4972 0-.9115.12595-1.2429.37784-.3281.2519-.575.58996-.7408 1.01421-.1624.42424-.2436.89488-.2436 1.41197 0 .5303.0829.9992.2486 1.4069.169.4044.4176.7226.7457.9546.3315.2287.7425.343 1.233.343z" fill="#37352f"/><path d="m-4 0h1948v343h-1948z" fill="#ccffe2"/><g clip-rule="evenodd" fill-rule="evenodd"><path d="m1943.55 237.166v105.834h-1468.171c60.153-49.311 124.536-94.786 193.04-135.826 414.211-248.1522 872.151-177.8065 1275.131 29.992z" fill="#ffecea"/><path d="m1373.87 169.08c.06-55.495 35.05-110.5548 93.34-122.7914 51.75-10.8637 87.59 37.4584 116.95 78.6444 27.6 38.721 55.91 85.646 27 123.29-31.52 41.058-92.87 46.467-144.2 29.349-51.79-17.276-93.14-57.509-93.09-108.492z" fill="#0018a4"/><path d="m135.668 64.0355c30.945-.9512 62.264 17.6755 70.116 50.1105 6.971 28.796-19.341 49.73-41.788 66.908-21.104 16.15-46.77 32.839-68.2707 17.315-23.45-16.931-27.5491-51.204-18.9097-80.259 8.7187-29.3224 30.4234-53.2007 58.8524-54.0745z" fill="#fff"/></g><path d="m-4 0h1944v100h-1944z" fill="#0018a4"/><path d="m-2.01323 55.522-2.624 6.478h-.656l-7.01097-17.302-3.034 17.302h-.656l3.239-18.45-3.649-9.102-4.838 27.552h-.656l5.043-28.7h.656l3.649 9.102 1.599-9.102h.656l8.28197 20.582 8.282-20.582h.656l1.599 9.061 3.64903-9.061h.656l5.043 28.7h-.656l-4.838-27.552-3.64903 9.061 3.23903 18.491h-.656l-3.03403-17.384-7.011 17.384h-.655999zm2.952001 5.658 7.133999-17.712-1.599-9.02-8.159 20.254zm-3.280001-6.478-8.15897-20.254-1.599 9.102 7.13397 17.63zm41.95163-14.432v21.73h-.656v-6.191c-.902 2.337-2.665 4.264-4.92 5.371v.82h-.656v-.492c-1.148.451-2.378.697-3.69.697-5.453 0-9.922-4.469-9.922-9.922v-12.013h.656v12.013c0 5.084 4.182 9.266 9.266 9.266 1.312 0 2.542-.287 3.69-.779v-6.191c-.779 1.23-2.132 2.05-3.69 2.05-2.378 0-4.346-1.968-4.346-4.346v-12.013h.656v12.013c0 2.009 1.681 3.69 3.69 3.69s3.69-1.681 3.69-3.69v-12.013h.656v20.172c2.911-1.558 4.92-4.633 4.92-8.159v-12.013zm3.2031 6.683c0-3.977 3.198-7.175 7.175-7.175 2.952 0 5.494 1.804 6.601 4.346l-.615.287c-.984-2.337-3.321-3.977-5.986-3.977-3.608 0-6.519 2.911-6.519 6.519 0 3.075 2.091 5.617 4.961 6.355l1.804.451c.697.164 1.189.82 1.189 1.558 0 .902-.697 1.599-1.599 1.599-.697 0-1.271-.41-1.517-1.066l.615-.246c.123.369.451.656.902.656.533 0 .943-.41.943-.943 0-.451-.246-.82-.697-.943l-1.845-.451c-3.116-.779-5.412-3.608-5.412-6.97zm.41 11.234.615-.287c.984 2.337 3.28 3.936 5.986 3.936 3.608 0 6.519-2.911 6.519-6.519 0-3.075-2.091-5.617-4.961-6.355l-1.804-.451c-.738-.205-1.189-.82-1.189-1.558 0-.902.697-1.599 1.599-1.599.697 0 1.271.451 1.476 1.066l-.574.246c-.123-.369-.492-.656-.902-.656-.533 0-.943.41-.943.943 0 .451.246.82.697.943l1.845.451c3.157.779 5.412 3.608 5.412 6.97 0 3.977-3.198 7.175-7.175 7.175-2.952 0-5.494-1.763-6.601-4.305zm16.9901 3.813v-21.73h.656v21.73zm6.232-21.73v21.73h-.656v-21.73zm-.656-2.132v-6.888h.656v6.888zm-4.92-6.888v6.888h-.656v-6.888zm20.6191 14.596v.656h-1.189c-2.501 0-4.633 2.132-4.633 4.633s2.132 4.633 4.633 4.633h1.189v.656h-1.189c-2.87 0-5.289-2.419-5.289-5.289s2.419-5.289 5.289-5.289zm0-4.92h-1.189c-5.617 0-10.209 4.592-10.209 10.209s4.592 10.209 10.209 10.209h1.189v.656h-1.189c-5.986 0-10.865-4.879-10.865-10.865s4.879-10.865 10.865-10.865h1.189zm25.4023 21.074h-.656l-5.904-15.129v15.129h-.6559v-22.468h-4.92v22.468h-.656v-28.7h9.1429c5.248 0 9.43 4.182 9.43 9.43 0 4.182-2.091 6.642-4.51 8.159l4.305 11.111h-.656l-4.182-10.783c-1.189.697-2.87 1.312-4.264 1.722zm-.902-16.687 1.927 4.961c2.214-1.394 4.1-3.69 4.1-7.544 0-4.92-3.854-8.774-8.774-8.774h-2.911v4.92h2.911c2.132 0 3.854 1.722 3.854 3.854 0 .984-.369 1.845-1.107 2.583zm-5.658-5.781v7.339l1.558-.328c3.198-.697 4.551-2.05 4.551-3.813 0-1.804-1.394-3.198-3.198-3.198zm-5.5759-5.576v4.92h4.92v-4.92zm12.6279 16.646-1.886-4.838c-1.23.943-2.665 1.271-4.264 1.599l1.886 4.92c1.23-.328 3.239-1.066 4.264-1.681zm6.774.533c0-6.273 5.084-11.357 11.357-11.357 5.002 0 9.225 3.198 10.742 7.708l-13.325 8.077c.779.451 1.64.697 2.583.697 2.05 0 3.813-1.23 4.633-2.952l.615.287c-.902 1.968-2.911 3.321-5.248 3.321-1.189 0-2.296-.369-3.198-.984l-4.428 2.706c1.927 1.968 4.633 3.198 7.626 3.198 4.264 0 7.995-2.542 9.717-6.191l.574.287c-1.804 3.895-5.74 6.56-10.291 6.56-6.273 0-11.357-5.084-11.357-11.357zm.656 0c0 1.189.205 2.296.533 3.362l4.428-2.706c-.041-.205-.041-.451-.041-.656 0-3.198 2.583-5.781 5.781-5.781 1.189 0 2.337.369 3.239.984l4.387-2.665c-1.927-2.009-4.633-3.239-7.626-3.239-5.904 0-10.701 4.797-10.701 10.701zm.779 3.977c.451 1.107 1.066 2.132 1.845 3.034l4.305-2.624c-.902-.779-1.558-1.845-1.845-3.034zm4.797-3.977v.287l7.749-4.715c-.779-.451-1.681-.697-2.624-.697-2.829 0-5.125 2.296-5.125 5.125zm.082 1.025c.246 1.189.943 2.255 1.886 2.993l8.2-5.002c-.246-1.189-.902-2.255-1.845-3.034zm8.856-5.371c.902.779 1.558 1.804 1.804 3.034l4.346-2.665c-.451-1.107-1.107-2.091-1.845-2.993zm9.579-15.539v30.75h-.656v-30.75zm5.576 0v30.75h-.656v-30.75zm2.948 19.885c0-6.273 5.084-11.357 11.357-11.357 5.002 0 9.225 3.198 10.742 7.708l-13.325 8.077c.779.451 1.64.697 2.583.697 2.05 0 3.813-1.23 4.633-2.952l.615.287c-.902 1.968-2.911 3.321-5.248 3.321-1.189 0-2.296-.369-3.198-.984l-4.428 2.706c1.927 1.968 4.633 3.198 7.626 3.198 4.264 0 7.995-2.542 9.717-6.191l.574.287c-1.804 3.895-5.74 6.56-10.291 6.56-6.273 0-11.357-5.084-11.357-11.357zm.656 0c0 1.189.205 2.296.533 3.362l4.428-2.706c-.041-.205-.041-.451-.041-.656 0-3.198 2.583-5.781 5.781-5.781 1.189 0 2.337.369 3.239.984l4.387-2.665c-1.927-2.009-4.633-3.239-7.626-3.239-5.904 0-10.701 4.797-10.701 10.701zm.779 3.977c.451 1.107 1.066 2.132 1.845 3.034l4.305-2.624c-.902-.779-1.558-1.845-1.845-3.034zm4.797-3.977v.287l7.749-4.715c-.779-.451-1.681-.697-2.624-.697-2.829 0-5.125 2.296-5.125 5.125zm.082 1.025c.246 1.189.943 2.255 1.886 2.993l8.2-5.002c-.246-1.189-.902-2.255-1.845-3.034zm8.856-5.371c.902.779 1.558 1.804 1.804 3.034l4.346-2.665c-.451-1.107-1.107-2.091-1.845-2.993zm24.83-4.674v18.04c2.747-1.681 4.92-5.084 4.92-9.02s-2.173-7.339-4.92-9.02zm-5.781-2.337c1.845 0 3.567.451 5.125 1.23v-.738h.656v1.107c2.296 1.271 4.059 3.567 4.92 5.945v-7.052h.656v21.73h-.656v-7.093c-.82 2.337-2.624 4.756-4.92 6.027v1.066h-.656v-.738c-1.558.779-3.28 1.23-5.125 1.23-6.273 0-11.357-5.084-11.357-11.357s5.084-11.357 11.357-11.357zm0 22.058c1.845 0 3.608-.451 5.125-1.271v-6.724c-.984 1.804-2.911 3.075-5.125 3.075-3.198 0-5.781-2.583-5.781-5.781s2.583-5.781 5.781-5.781c2.214 0 4.141 1.271 5.125 3.116v-6.724c-1.517-.82-3.28-1.312-5.125-1.312-5.904 0-10.701 4.797-10.701 10.701s4.797 10.701 10.701 10.701zm0-5.576c2.87 0 5.125-2.296 5.125-5.125s-2.255-5.125-5.125-5.125c-2.829 0-5.125 2.296-5.125 5.125s2.296 5.125 5.125 5.125zm14.554-9.307c0-3.977 3.198-7.175 7.175-7.175 2.952 0 5.494 1.804 6.601 4.346l-.615.287c-.984-2.337-3.321-3.977-5.986-3.977-3.608 0-6.519 2.911-6.519 6.519 0 3.075 2.091 5.617 4.961 6.355l1.804.451c.697.164 1.189.82 1.189 1.558 0 .902-.697 1.599-1.599 1.599-.697 0-1.271-.41-1.517-1.066l.615-.246c.123.369.451.656.902.656.533 0 .943-.41.943-.943 0-.451-.246-.82-.697-.943l-1.845-.451c-3.116-.779-5.412-3.608-5.412-6.97zm.41 11.234.615-.287c.984 2.337 3.28 3.936 5.986 3.936 3.608 0 6.519-2.911 6.519-6.519 0-3.075-2.091-5.617-4.961-6.355l-1.804-.451c-.738-.205-1.189-.82-1.189-1.558 0-.902.697-1.599 1.599-1.599.697 0 1.271.451 1.476 1.066l-.574.246c-.123-.369-.492-.656-.902-.656-.533 0-.943.41-.943.943 0 .451.246.82.697.943l1.845.451c3.157.779 5.412 3.608 5.412 6.97 0 3.977-3.198 7.175-7.175 7.175-2.952 0-5.494-1.763-6.601-4.305zm15.76-7.052c0-6.273 5.084-11.357 11.357-11.357 5.002 0 9.225 3.198 10.742 7.708l-13.325 8.077c.779.451 1.64.697 2.583.697 2.05 0 3.813-1.23 4.633-2.952l.615.287c-.902 1.968-2.911 3.321-5.248 3.321-1.189 0-2.296-.369-3.198-.984l-4.428 2.706c1.927 1.968 4.633 3.198 7.626 3.198 4.264 0 7.995-2.542 9.717-6.191l.574.287c-1.804 3.895-5.74 6.56-10.291 6.56-6.273 0-11.357-5.084-11.357-11.357zm.656 0c0 1.189.205 2.296.533 3.362l4.428-2.706c-.041-.205-.041-.451-.041-.656 0-3.198 2.583-5.781 5.781-5.781 1.189 0 2.337.369 3.239.984l4.387-2.665c-1.927-2.009-4.633-3.239-7.626-3.239-5.904 0-10.701 4.797-10.701 10.701zm.779 3.977c.451 1.107 1.066 2.132 1.845 3.034l4.305-2.624c-.902-.779-1.558-1.845-1.845-3.034zm4.797-3.977v.287l7.749-4.715c-.779-.451-1.681-.697-2.624-.697-2.829 0-5.125 2.296-5.125 5.125zm.082 1.025c.246 1.189.943 2.255 1.886 2.993l8.2-5.002c-.246-1.189-.902-2.255-1.845-3.034zm8.856-5.371c.902.779 1.558 1.804 1.804 3.034l4.346-2.665c-.451-1.107-1.107-2.091-1.845-2.993zm7.939.164c0-3.977 3.198-7.175 7.175-7.175 2.952 0 5.494 1.804 6.601 4.346l-.615.287c-.984-2.337-3.321-3.977-5.986-3.977-3.608 0-6.519 2.911-6.519 6.519 0 3.075 2.091 5.617 4.961 6.355l1.804.451c.697.164 1.189.82 1.189 1.558 0 .902-.697 1.599-1.599 1.599-.697 0-1.271-.41-1.517-1.066l.615-.246c.123.369.451.656.902.656.533 0 .943-.41.943-.943 0-.451-.246-.82-.697-.943l-1.845-.451c-3.116-.779-5.412-3.608-5.412-6.97zm.41 11.234.615-.287c.984 2.337 3.28 3.936 5.986 3.936 3.608 0 6.519-2.911 6.519-6.519 0-3.075-2.091-5.617-4.961-6.355l-1.804-.451c-.738-.205-1.189-.82-1.189-1.558 0-.902.697-1.599 1.599-1.599.697 0 1.271.451 1.476 1.066l-.574.246c-.123-.369-.492-.656-.902-.656-.533 0-.943.41-.943.943 0 .451.246.82.697.943l1.845.451c3.157.779 5.412 3.608 5.412 6.97 0 3.977-3.198 7.175-7.175 7.175-2.952 0-5.494-1.763-6.601-4.305zm44.13-2.665-2.624 6.478h-.656l-7.011-17.302-3.034 17.302h-.656l3.239-18.45-3.649-9.102-4.838 27.552h-.656l5.043-28.7h.656l3.649 9.102 1.599-9.102h.656l8.282 20.582 8.282-20.582h.656l1.599 9.061 3.649-9.061h.656l5.043 28.7h-.656l-4.838-27.552-3.649 9.061 3.239 18.491h-.656l-3.034-17.384-7.011 17.384h-.656zm2.952 5.658 7.134-17.712-1.599-9.02-8.159 20.254zm-3.28-6.478-8.159-20.254-1.599 9.102 7.134 17.63zm41.952-14.432v21.73h-.656v-6.191c-.902 2.337-2.665 4.264-4.92 5.371v.82h-.656v-.492c-1.148.451-2.378.697-3.69.697-5.453 0-9.922-4.469-9.922-9.922v-12.013h.656v12.013c0 5.084 4.182 9.266 9.266 9.266 1.312 0 2.542-.287 3.69-.779v-6.191c-.779 1.23-2.132 2.05-3.69 2.05-2.378 0-4.346-1.968-4.346-4.346v-12.013h.656v12.013c0 2.009 1.681 3.69 3.69 3.69s3.69-1.681 3.69-3.69v-12.013h.656v20.172c2.911-1.558 4.92-4.633 4.92-8.159v-12.013zm3.203 6.683c0-3.977 3.198-7.175 7.175-7.175 2.952 0 5.494 1.804 6.601 4.346l-.615.287c-.984-2.337-3.321-3.977-5.986-3.977-3.608 0-6.519 2.911-6.519 6.519 0 3.075 2.091 5.617 4.961 6.355l1.804.451c.697.164 1.189.82 1.189 1.558 0 .902-.697 1.599-1.599 1.599-.697 0-1.271-.41-1.517-1.066l.615-.246c.123.369.451.656.902.656.533 0 .943-.41.943-.943 0-.451-.246-.82-.697-.943l-1.845-.451c-3.116-.779-5.412-3.608-5.412-6.97zm.41 11.234.615-.287c.984 2.337 3.28 3.936 5.986 3.936 3.608 0 6.519-2.911 6.519-6.519 0-3.075-2.091-5.617-4.961-6.355l-1.804-.451c-.738-.205-1.189-.82-1.189-1.558 0-.902.697-1.599 1.599-1.599.697 0 1.271.451 1.476 1.066l-.574.246c-.123-.369-.492-.656-.902-.656-.533 0-.943.41-.943.943 0 .451.246.82.697.943l1.845.451c3.157.779 5.412 3.608 5.412 6.97 0 3.977-3.198 7.175-7.175 7.175-2.952 0-5.494-1.763-6.601-4.305zm16.99 3.813v-21.73h.656v21.73zm6.232-21.73v21.73h-.656v-21.73zm-.656-2.132v-6.888h.656v6.888zm-4.92-6.888v6.888h-.656v-6.888zm20.619 14.596v.656h-1.189c-2.501 0-4.633 2.132-4.633 4.633s2.132 4.633 4.633 4.633h1.189v.656h-1.189c-2.87 0-5.289-2.419-5.289-5.289s2.419-5.289 5.289-5.289zm0-4.92h-1.189c-5.617 0-10.209 4.592-10.209 10.209s4.592 10.209 10.209 10.209h1.189v.656h-1.189c-5.986 0-10.865-4.879-10.865-10.865s4.879-10.865 10.865-10.865h1.189zm25.402 21.074h-.656l-5.904-15.129v15.129h-.656v-22.468h-4.92v22.468h-.656v-28.7h9.143c5.248 0 9.43 4.182 9.43 9.43 0 4.182-2.091 6.642-4.51 8.159l4.305 11.111h-.656l-4.182-10.783c-1.189.697-2.87 1.312-4.264 1.722zm-.902-16.687 1.927 4.961c2.214-1.394 4.1-3.69 4.1-7.544 0-4.92-3.854-8.774-8.774-8.774h-2.911v4.92h2.911c2.132 0 3.854 1.722 3.854 3.854 0 .984-.369 1.845-1.107 2.583zm-5.658-5.781v7.339l1.558-.328c3.198-.697 4.551-2.05 4.551-3.813 0-1.804-1.394-3.198-3.198-3.198zm-5.576-5.576v4.92h4.92v-4.92zm12.628 16.646-1.886-4.838c-1.23.943-2.665 1.271-4.264 1.599l1.886 4.92c1.23-.328 3.239-1.066 4.264-1.681zm6.775.533c0-6.273 5.084-11.357 11.357-11.357 5.002 0 9.225 3.198 10.742 7.708l-13.325 8.077c.779.451 1.64.697 2.583.697 2.05 0 3.813-1.23 4.633-2.952l.615.287c-.902 1.968-2.911 3.321-5.248 3.321-1.189 0-2.296-.369-3.198-.984l-4.428 2.706c1.927 1.968 4.633 3.198 7.626 3.198 4.264 0 7.995-2.542 9.717-6.191l.574.287c-1.804 3.895-5.74 6.56-10.291 6.56-6.273 0-11.357-5.084-11.357-11.357zm.656 0c0 1.189.205 2.296.533 3.362l4.428-2.706c-.041-.205-.041-.451-.041-.656 0-3.198 2.583-5.781 5.781-5.781 1.189 0 2.337.369 3.239.984l4.387-2.665c-1.927-2.009-4.633-3.239-7.626-3.239-5.904 0-10.701 4.797-10.701 10.701zm.779 3.977c.451 1.107 1.066 2.132 1.845 3.034l4.305-2.624c-.902-.779-1.558-1.845-1.845-3.034zm4.797-3.977v.287l7.749-4.715c-.779-.451-1.681-.697-2.624-.697-2.829 0-5.125 2.296-5.125 5.125zm.082 1.025c.246 1.189.943 2.255 1.886 2.993l8.2-5.002c-.246-1.189-.902-2.255-1.845-3.034zm8.856-5.371c.902.779 1.558 1.804 1.804 3.034l4.346-2.665c-.451-1.107-1.107-2.091-1.845-2.993zm9.578-15.539v30.75h-.656v-30.75zm5.576 0v30.75h-.656v-30.75zm2.948 19.885c0-6.273 5.084-11.357 11.357-11.357 5.002 0 9.225 3.198 10.742 7.708l-13.325 8.077c.779.451 1.64.697 2.583.697 2.05 0 3.813-1.23 4.633-2.952l.615.287c-.902 1.968-2.911 3.321-5.248 3.321-1.189 0-2.296-.369-3.198-.984l-4.428 2.706c1.927 1.968 4.633 3.198 7.626 3.198 4.264 0 7.995-2.542 9.717-6.191l.574.287c-1.804 3.895-5.74 6.56-10.291 6.56-6.273 0-11.357-5.084-11.357-11.357zm.656 0c0 1.189.205 2.296.533 3.362l4.428-2.706c-.041-.205-.041-.451-.041-.656 0-3.198 2.583-5.781 5.781-5.781 1.189 0 2.337.369 3.239.984l4.387-2.665c-1.927-2.009-4.633-3.239-7.626-3.239-5.904 0-10.701 4.797-10.701 10.701zm.779 3.977c.451 1.107 1.066 2.132 1.845 3.034l4.305-2.624c-.902-.779-1.558-1.845-1.845-3.034zm4.797-3.977v.287l7.749-4.715c-.779-.451-1.681-.697-2.624-.697-2.829 0-5.125 2.296-5.125 5.125zm.082 1.025c.246 1.189.943 2.255 1.886 2.993l8.2-5.002c-.246-1.189-.902-2.255-1.845-3.034zm8.856-5.371c.902.779 1.558 1.804 1.804 3.034l4.346-2.665c-.451-1.107-1.107-2.091-1.845-2.993zm24.83-4.674v18.04c2.747-1.681 4.92-5.084 4.92-9.02s-2.173-7.339-4.92-9.02zm-5.781-2.337c1.845 0 3.567.451 5.125 1.23v-.738h.656v1.107c2.296 1.271 4.059 3.567 4.92 5.945v-7.052h.656v21.73h-.656v-7.093c-.82 2.337-2.624 4.756-4.92 6.027v1.066h-.656v-.738c-1.558.779-3.28 1.23-5.125 1.23-6.273 0-11.357-5.084-11.357-11.357s5.084-11.357 11.357-11.357zm0 22.058c1.845 0 3.608-.451 5.125-1.271v-6.724c-.984 1.804-2.911 3.075-5.125 3.075-3.198 0-5.781-2.583-5.781-5.781s2.583-5.781 5.781-5.781c2.214 0 4.141 1.271 5.125 3.116v-6.724c-1.517-.82-3.28-1.312-5.125-1.312-5.904 0-10.701 4.797-10.701 10.701s4.797 10.701 10.701 10.701zm0-5.576c2.87 0 5.125-2.296 5.125-5.125s-2.255-5.125-5.125-5.125c-2.829 0-5.125 2.296-5.125 5.125s2.296 5.125 5.125 5.125zm14.554-9.307c0-3.977 3.198-7.175 7.175-7.175 2.952 0 5.494 1.804 6.601 4.346l-.615.287c-.984-2.337-3.321-3.977-5.986-3.977-3.608 0-6.519 2.911-6.519 6.519 0 3.075 2.091 5.617 4.961 6.355l1.804.451c.697.164 1.189.82 1.189 1.558 0 .902-.697 1.599-1.599 1.599-.697 0-1.271-.41-1.517-1.066l.615-.246c.123.369.451.656.902.656.533 0 .943-.41.943-.943 0-.451-.246-.82-.697-.943l-1.845-.451c-3.116-.779-5.412-3.608-5.412-6.97zm.41 11.234.615-.287c.984 2.337 3.28 3.936 5.986 3.936 3.608 0 6.519-2.911 6.519-6.519 0-3.075-2.091-5.617-4.961-6.355l-1.804-.451c-.738-.205-1.189-.82-1.189-1.558 0-.902.697-1.599 1.599-1.599.697 0 1.271.451 1.476 1.066l-.574.246c-.123-.369-.492-.656-.902-.656-.533 0-.943.41-.943.943 0 .451.246.82.697.943l1.845.451c3.157.779 5.412 3.608 5.412 6.97 0 3.977-3.198 7.175-7.175 7.175-2.952 0-5.494-1.763-6.601-4.305zm15.76-7.052c0-6.273 5.084-11.357 11.357-11.357 5.002 0 9.225 3.198 10.742 7.708l-13.325 8.077c.779.451 1.64.697 2.583.697 2.05 0 3.813-1.23 4.633-2.952l.615.287c-.902 1.968-2.911 3.321-5.248 3.321-1.189 0-2.296-.369-3.198-.984l-4.428 2.706c1.927 1.968 4.633 3.198 7.626 3.198 4.264 0 7.995-2.542 9.717-6.191l.574.287c-1.804 3.895-5.74 6.56-10.291 6.56-6.273 0-11.357-5.084-11.357-11.357zm.656 0c0 1.189.205 2.296.533 3.362l4.428-2.706c-.041-.205-.041-.451-.041-.656 0-3.198 2.583-5.781 5.781-5.781 1.189 0 2.337.369 3.239.984l4.387-2.665c-1.927-2.009-4.633-3.239-7.626-3.239-5.904 0-10.701 4.797-10.701 10.701zm.779 3.977c.451 1.107 1.066 2.132 1.845 3.034l4.305-2.624c-.902-.779-1.558-1.845-1.845-3.034zm4.797-3.977v.287l7.749-4.715c-.779-.451-1.681-.697-2.624-.697-2.829 0-5.125 2.296-5.125 5.125zm.082 1.025c.246 1.189.943 2.255 1.886 2.993l8.2-5.002c-.246-1.189-.902-2.255-1.845-3.034zm8.856-5.371c.902.779 1.558 1.804 1.804 3.034l4.346-2.665c-.451-1.107-1.107-2.091-1.845-2.993zm7.939.164c0-3.977 3.198-7.175 7.175-7.175 2.952 0 5.494 1.804 6.601 4.346l-.615.287c-.984-2.337-3.321-3.977-5.986-3.977-3.608 0-6.519 2.911-6.519 6.519 0 3.075 2.091 5.617 4.961 6.355l1.804.451c.697.164 1.189.82 1.189 1.558 0 .902-.697 1.599-1.599 1.599-.697 0-1.271-.41-1.517-1.066l.615-.246c.123.369.451.656.902.656.533 0 .943-.41.943-.943 0-.451-.246-.82-.697-.943l-1.845-.451c-3.116-.779-5.412-3.608-5.412-6.97zm.41 11.234.615-.287c.984 2.337 3.28 3.936 5.986 3.936 3.608 0 6.519-2.911 6.519-6.519 0-3.075-2.091-5.617-4.961-6.355l-1.804-.451c-.738-.205-1.189-.82-1.189-1.558 0-.902.697-1.599 1.599-1.599.697 0 1.271.451 1.476 1.066l-.574.246c-.123-.369-.492-.656-.902-.656-.533 0-.943.41-.943.943 0 .451.246.82.697.943l1.845.451c3.157.779 5.412 3.608 5.412 6.97 0 3.977-3.198 7.175-7.175 7.175-2.952 0-5.494-1.763-6.601-4.305zm44.13-2.665-2.624 6.478h-.656l-7.011-17.302-3.034 17.302h-.656l3.239-18.45-3.649-9.102-4.838 27.552h-.656l5.043-28.7h.656l3.649 9.102 1.599-9.102h.656l8.282 20.582 8.282-20.582h.656l1.599 9.061 3.649-9.061h.656l5.043 28.7h-.656l-4.838-27.552-3.649 9.061 3.239 18.491h-.656l-3.034-17.384-7.011 17.384h-.656zm2.952 5.658 7.134-17.712-1.599-9.02-8.159 20.254zm-3.28-6.478-8.159-20.254-1.599 9.102 7.134 17.63zm41.952-14.432v21.73h-.656v-6.191c-.902 2.337-2.665 4.264-4.92 5.371v.82h-.656v-.492c-1.148.451-2.378.697-3.69.697-5.453 0-9.922-4.469-9.922-9.922v-12.013h.656v12.013c0 5.084 4.182 9.266 9.266 9.266 1.312 0 2.542-.287 3.69-.779v-6.191c-.779 1.23-2.132 2.05-3.69 2.05-2.378 0-4.346-1.968-4.346-4.346v-12.013h.656v12.013c0 2.009 1.681 3.69 3.69 3.69s3.69-1.681 3.69-3.69v-12.013h.656v20.172c2.911-1.558 4.92-4.633 4.92-8.159v-12.013zm3.203 6.683c0-3.977 3.198-7.175 7.175-7.175 2.952 0 5.494 1.804 6.601 4.346l-.615.287c-.984-2.337-3.321-3.977-5.986-3.977-3.608 0-6.519 2.911-6.519 6.519 0 3.075 2.091 5.617 4.961 6.355l1.804.451c.697.164 1.189.82 1.189 1.558 0 .902-.697 1.599-1.599 1.599-.697 0-1.271-.41-1.517-1.066l.615-.246c.123.369.451.656.902.656.533 0 .943-.41.943-.943 0-.451-.246-.82-.697-.943l-1.845-.451c-3.116-.779-5.412-3.608-5.412-6.97zm.41 11.234.615-.287c.984 2.337 3.28 3.936 5.986 3.936 3.608 0 6.519-2.911 6.519-6.519 0-3.075-2.091-5.617-4.961-6.355l-1.804-.451c-.738-.205-1.189-.82-1.189-1.558 0-.902.697-1.599 1.599-1.599.697 0 1.271.451 1.476 1.066l-.574.246c-.123-.369-.492-.656-.902-.656-.533 0-.943.41-.943.943 0 .451.246.82.697.943l1.845.451c3.157.779 5.412 3.608 5.412 6.97 0 3.977-3.198 7.175-7.175 7.175-2.952 0-5.494-1.763-6.601-4.305zm16.99 3.813v-21.73h.656v21.73zm6.232-21.73v21.73h-.656v-21.73zm-.656-2.132v-6.888h.656v6.888zm-4.92-6.888v6.888h-.656v-6.888zm20.619 14.596v.656h-1.189c-2.501 0-4.633 2.132-4.633 4.633s2.132 4.633 4.633 4.633h1.189v.656h-1.189c-2.87 0-5.289-2.419-5.289-5.289s2.419-5.289 5.289-5.289zm0-4.92h-1.189c-5.617 0-10.209 4.592-10.209 10.209s4.592 10.209 10.209 10.209h1.189v.656h-1.189c-5.986 0-10.865-4.879-10.865-10.865s4.879-10.865 10.865-10.865h1.189zm25.402 21.074h-.656l-5.904-15.129v15.129h-.656v-22.468h-4.92v22.468h-.656v-28.7h9.143c5.248 0 9.43 4.182 9.43 9.43 0 4.182-2.091 6.642-4.51 8.159l4.305 11.111h-.656l-4.182-10.783c-1.189.697-2.87 1.312-4.264 1.722zm-.902-16.687 1.927 4.961c2.214-1.394 4.1-3.69 4.1-7.544 0-4.92-3.854-8.774-8.774-8.774h-2.911v4.92h2.911c2.132 0 3.854 1.722 3.854 3.854 0 .984-.369 1.845-1.107 2.583zm-5.658-5.781v7.339l1.558-.328c3.198-.697 4.551-2.05 4.551-3.813 0-1.804-1.394-3.198-3.198-3.198zm-5.576-5.576v4.92h4.92v-4.92zm12.628 16.646-1.886-4.838c-1.23.943-2.665 1.271-4.264 1.599l1.886 4.92c1.23-.328 3.239-1.066 4.264-1.681zm6.775.533c0-6.273 5.084-11.357 11.357-11.357 5.002 0 9.225 3.198 10.742 7.708l-13.325 8.077c.779.451 1.64.697 2.583.697 2.05 0 3.813-1.23 4.633-2.952l.615.287c-.902 1.968-2.911 3.321-5.248 3.321-1.189 0-2.296-.369-3.198-.984l-4.428 2.706c1.927 1.968 4.633 3.198 7.626 3.198 4.264 0 7.995-2.542 9.717-6.191l.574.287c-1.804 3.895-5.74 6.56-10.291 6.56-6.273 0-11.357-5.084-11.357-11.357zm.656 0c0 1.189.205 2.296.533 3.362l4.428-2.706c-.041-.205-.041-.451-.041-.656 0-3.198 2.583-5.781 5.781-5.781 1.189 0 2.337.369 3.239.984l4.387-2.665c-1.927-2.009-4.633-3.239-7.626-3.239-5.904 0-10.701 4.797-10.701 10.701zm.779 3.977c.451 1.107 1.066 2.132 1.845 3.034l4.305-2.624c-.902-.779-1.558-1.845-1.845-3.034zm4.797-3.977v.287l7.749-4.715c-.779-.451-1.681-.697-2.624-.697-2.829 0-5.125 2.296-5.125 5.125zm.082 1.025c.246 1.189.943 2.255 1.886 2.993l8.2-5.002c-.246-1.189-.902-2.255-1.845-3.034zm8.856-5.371c.902.779 1.558 1.804 1.804 3.034l4.346-2.665c-.451-1.107-1.107-2.091-1.845-2.993zm9.578-15.539v30.75h-.656v-30.75zm5.576 0v30.75h-.656v-30.75zm2.948 19.885c0-6.273 5.084-11.357 11.357-11.357 5.002 0 9.225 3.198 10.742 7.708l-13.325 8.077c.779.451 1.64.697 2.583.697 2.05 0 3.813-1.23 4.633-2.952l.615.287c-.902 1.968-2.911 3.321-5.248 3.321-1.189 0-2.296-.369-3.198-.984l-4.428 2.706c1.927 1.968 4.633 3.198 7.626 3.198 4.264 0 7.995-2.542 9.717-6.191l.574.287c-1.804 3.895-5.74 6.56-10.291 6.56-6.273 0-11.357-5.084-11.357-11.357zm.656 0c0 1.189.205 2.296.533 3.362l4.428-2.706c-.041-.205-.041-.451-.041-.656 0-3.198 2.583-5.781 5.781-5.781 1.189 0 2.337.369 3.239.984l4.387-2.665c-1.927-2.009-4.633-3.239-7.626-3.239-5.904 0-10.701 4.797-10.701 10.701zm.779 3.977c.451 1.107 1.066 2.132 1.845 3.034l4.305-2.624c-.902-.779-1.558-1.845-1.845-3.034zm4.797-3.977v.287l7.749-4.715c-.779-.451-1.681-.697-2.624-.697-2.829 0-5.125 2.296-5.125 5.125zm.082 1.025c.246 1.189.943 2.255 1.886 2.993l8.2-5.002c-.246-1.189-.902-2.255-1.845-3.034zm8.856-5.371c.902.779 1.558 1.804 1.804 3.034l4.346-2.665c-.451-1.107-1.107-2.091-1.845-2.993zm24.83-4.674v18.04c2.747-1.681 4.92-5.084 4.92-9.02s-2.173-7.339-4.92-9.02zm-5.781-2.337c1.845 0 3.567.451 5.125 1.23v-.738h.656v1.107c2.296 1.271 4.059 3.567 4.92 5.945v-7.052h.656v21.73h-.656v-7.093c-.82 2.337-2.624 4.756-4.92 6.027v1.066h-.656v-.738c-1.558.779-3.28 1.23-5.125 1.23-6.273 0-11.357-5.084-11.357-11.357s5.084-11.357 11.357-11.357zm0 22.058c1.845 0 3.608-.451 5.125-1.271v-6.724c-.984 1.804-2.911 3.075-5.125 3.075-3.198 0-5.781-2.583-5.781-5.781s2.583-5.781 5.781-5.781c2.214 0 4.141 1.271 5.125 3.116v-6.724c-1.517-.82-3.28-1.312-5.125-1.312-5.904 0-10.701 4.797-10.701 10.701s4.797 10.701 10.701 10.701zm0-5.576c2.87 0 5.125-2.296 5.125-5.125s-2.255-5.125-5.125-5.125c-2.829 0-5.125 2.296-5.125 5.125s2.296 5.125 5.125 5.125zm14.555-9.307c0-3.977 3.198-7.175 7.175-7.175 2.952 0 5.494 1.804 6.601 4.346l-.615.287c-.984-2.337-3.321-3.977-5.986-3.977-3.608 0-6.519 2.911-6.519 6.519 0 3.075 2.091 5.617 4.961 6.355l1.804.451c.697.164 1.189.82 1.189 1.558 0 .902-.697 1.599-1.599 1.599-.697 0-1.271-.41-1.517-1.066l.615-.246c.123.369.451.656.902.656.533 0 .943-.41.943-.943 0-.451-.246-.82-.697-.943l-1.845-.451c-3.116-.779-5.412-3.608-5.412-6.97zm.41 11.234.615-.287c.984 2.337 3.28 3.936 5.986 3.936 3.608 0 6.519-2.911 6.519-6.519 0-3.075-2.091-5.617-4.961-6.355l-1.804-.451c-.738-.205-1.189-.82-1.189-1.558 0-.902.697-1.599 1.599-1.599.697 0 1.271.451 1.476 1.066l-.574.246c-.123-.369-.492-.656-.902-.656-.533 0-.943.41-.943.943 0 .451.246.82.697.943l1.845.451c3.157.779 5.412 3.608 5.412 6.97 0 3.977-3.198 7.175-7.175 7.175-2.952 0-5.494-1.763-6.601-4.305zm15.76-7.052c0-6.273 5.084-11.357 11.357-11.357 5.002 0 9.225 3.198 10.742 7.708l-13.325 8.077c.779.451 1.64.697 2.583.697 2.05 0 3.813-1.23 4.633-2.952l.615.287c-.902 1.968-2.911 3.321-5.248 3.321-1.189 0-2.296-.369-3.198-.984l-4.428 2.706c1.927 1.968 4.633 3.198 7.626 3.198 4.264 0 7.995-2.542 9.717-6.191l.574.287c-1.804 3.895-5.74 6.56-10.291 6.56-6.273 0-11.357-5.084-11.357-11.357zm.656 0c0 1.189.205 2.296.533 3.362l4.428-2.706c-.041-.205-.041-.451-.041-.656 0-3.198 2.583-5.781 5.781-5.781 1.189 0 2.337.369 3.239.984l4.387-2.665c-1.927-2.009-4.633-3.239-7.626-3.239-5.904 0-10.701 4.797-10.701 10.701zm.779 3.977c.451 1.107 1.066 2.132 1.845 3.034l4.305-2.624c-.902-.779-1.558-1.845-1.845-3.034zm4.797-3.977v.287l7.749-4.715c-.779-.451-1.681-.697-2.624-.697-2.829 0-5.125 2.296-5.125 5.125zm.082 1.025c.246 1.189.943 2.255 1.886 2.993l8.2-5.002c-.246-1.189-.902-2.255-1.845-3.034zm8.856-5.371c.902.779 1.558 1.804 1.804 3.034l4.346-2.665c-.451-1.107-1.107-2.091-1.845-2.993zm7.938.164c0-3.977 3.198-7.175 7.175-7.175 2.952 0 5.494 1.804 6.601 4.346l-.615.287c-.984-2.337-3.321-3.977-5.986-3.977-3.608 0-6.519 2.911-6.519 6.519 0 3.075 2.091 5.617 4.961 6.355l1.804.451c.697.164 1.189.82 1.189 1.558 0 .902-.697 1.599-1.599 1.599-.697 0-1.271-.41-1.517-1.066l.615-.246c.123.369.451.656.902.656.533 0 .943-.41.943-.943 0-.451-.246-.82-.697-.943l-1.845-.451c-3.116-.779-5.412-3.608-5.412-6.97zm.41 11.234.615-.287c.984 2.337 3.28 3.936 5.986 3.936 3.608 0 6.519-2.911 6.519-6.519 0-3.075-2.091-5.617-4.961-6.355l-1.804-.451c-.738-.205-1.189-.82-1.189-1.558 0-.902.697-1.599 1.599-1.599.697 0 1.271.451 1.476 1.066l-.574.246c-.123-.369-.492-.656-.902-.656-.533 0-.943.41-.943.943 0 .451.246.82.697.943l1.845.451c3.157.779 5.412 3.608 5.412 6.97 0 3.977-3.198 7.175-7.175 7.175-2.952 0-5.494-1.763-6.601-4.305zm44.13-2.665-2.624 6.478h-.656l-7.011-17.302-3.034 17.302h-.656l3.239-18.45-3.649-9.102-4.838 27.552h-.656l5.043-28.7h.656l3.649 9.102 1.599-9.102h.656l8.282 20.582 8.282-20.582h.656l1.599 9.061 3.649-9.061h.656l5.043 28.7h-.656l-4.838-27.552-3.649 9.061 3.239 18.491h-.656l-3.034-17.384-7.011 17.384h-.656zm2.952 5.658 7.134-17.712-1.599-9.02-8.159 20.254zm-3.28-6.478-8.159-20.254-1.599 9.102 7.134 17.63zm41.952-14.432v21.73h-.656v-6.191c-.902 2.337-2.665 4.264-4.92 5.371v.82h-.656v-.492c-1.148.451-2.378.697-3.69.697-5.453 0-9.922-4.469-9.922-9.922v-12.013h.656v12.013c0 5.084 4.182 9.266 9.266 9.266 1.312 0 2.542-.287 3.69-.779v-6.191c-.779 1.23-2.132 2.05-3.69 2.05-2.378 0-4.346-1.968-4.346-4.346v-12.013h.656v12.013c0 2.009 1.681 3.69 3.69 3.69s3.69-1.681 3.69-3.69v-12.013h.656v20.172c2.911-1.558 4.92-4.633 4.92-8.159v-12.013zm3.203 6.683c0-3.977 3.198-7.175 7.175-7.175 2.952 0 5.494 1.804 6.601 4.346l-.615.287c-.984-2.337-3.321-3.977-5.986-3.977-3.608 0-6.519 2.911-6.519 6.519 0 3.075 2.091 5.617 4.961 6.355l1.804.451c.697.164 1.189.82 1.189 1.558 0 .902-.697 1.599-1.599 1.599-.697 0-1.271-.41-1.517-1.066l.615-.246c.123.369.451.656.902.656.533 0 .943-.41.943-.943 0-.451-.246-.82-.697-.943l-1.845-.451c-3.116-.779-5.412-3.608-5.412-6.97zm.41 11.234.615-.287c.984 2.337 3.28 3.936 5.986 3.936 3.608 0 6.519-2.911 6.519-6.519 0-3.075-2.091-5.617-4.961-6.355l-1.804-.451c-.738-.205-1.189-.82-1.189-1.558 0-.902.697-1.599 1.599-1.599.697 0 1.271.451 1.476 1.066l-.574.246c-.123-.369-.492-.656-.902-.656-.533 0-.943.41-.943.943 0 .451.246.82.697.943l1.845.451c3.157.779 5.412 3.608 5.412 6.97 0 3.977-3.198 7.175-7.175 7.175-2.952 0-5.494-1.763-6.601-4.305zm16.99 3.813v-21.73h.656v21.73zm6.232-21.73v21.73h-.656v-21.73zm-.656-2.132v-6.888h.656v6.888zm-4.92-6.888v6.888h-.656v-6.888zm20.619 14.596v.656h-1.189c-2.501 0-4.633 2.132-4.633 4.633s2.132 4.633 4.633 4.633h1.189v.656h-1.189c-2.87 0-5.289-2.419-5.289-5.289s2.419-5.289 5.289-5.289zm0-4.92h-1.189c-5.617 0-10.209 4.592-10.209 10.209s4.592 10.209 10.209 10.209h1.189v.656h-1.189c-5.986 0-10.865-4.879-10.865-10.865s4.879-10.865 10.865-10.865h1.189zm25.403 21.074h-.656l-5.904-15.129v15.129h-.656v-22.468h-4.92v22.468h-.656v-28.7h9.143c5.248 0 9.43 4.182 9.43 9.43 0 4.182-2.091 6.642-4.51 8.159l4.305 11.111h-.656l-4.182-10.783c-1.189.697-2.87 1.312-4.264 1.722zm-.902-16.687 1.927 4.961c2.214-1.394 4.1-3.69 4.1-7.544 0-4.92-3.854-8.774-8.774-8.774h-2.911v4.92h2.911c2.132 0 3.854 1.722 3.854 3.854 0 .984-.369 1.845-1.107 2.583zm-5.658-5.781v7.339l1.558-.328c3.198-.697 4.551-2.05 4.551-3.813 0-1.804-1.394-3.198-3.198-3.198zm-5.576-5.576v4.92h4.92v-4.92zm12.628 16.646-1.886-4.838c-1.23.943-2.665 1.271-4.264 1.599l1.886 4.92c1.23-.328 3.239-1.066 4.264-1.681zm6.774.533c0-6.273 5.084-11.357 11.357-11.357 5.002 0 9.225 3.198 10.742 7.708l-13.325 8.077c.779.451 1.64.697 2.583.697 2.05 0 3.813-1.23 4.633-2.952l.615.287c-.902 1.968-2.911 3.321-5.248 3.321-1.189 0-2.296-.369-3.198-.984l-4.428 2.706c1.927 1.968 4.633 3.198 7.626 3.198 4.264 0 7.995-2.542 9.717-6.191l.574.287c-1.804 3.895-5.74 6.56-10.291 6.56-6.273 0-11.357-5.084-11.357-11.357zm.656 0c0 1.189.205 2.296.533 3.362l4.428-2.706c-.041-.205-.041-.451-.041-.656 0-3.198 2.583-5.781 5.781-5.781 1.189 0 2.337.369 3.239.984l4.387-2.665c-1.927-2.009-4.633-3.239-7.626-3.239-5.904 0-10.701 4.797-10.701 10.701zm.779 3.977c.451 1.107 1.066 2.132 1.845 3.034l4.305-2.624c-.902-.779-1.558-1.845-1.845-3.034zm4.797-3.977v.287l7.749-4.715c-.779-.451-1.681-.697-2.624-.697-2.829 0-5.125 2.296-5.125 5.125zm.082 1.025c.246 1.189.943 2.255 1.886 2.993l8.2-5.002c-.246-1.189-.902-2.255-1.845-3.034zm8.856-5.371c.902.779 1.558 1.804 1.804 3.034l4.346-2.665c-.451-1.107-1.107-2.091-1.845-2.993zm9.578-15.539v30.75h-.656v-30.75zm5.576 0v30.75h-.656v-30.75zm2.948 19.885c0-6.273 5.084-11.357 11.355-11.357 5 0 9.23 3.198 10.74 7.708l-13.32 8.077c.78.451 1.64.697 2.58.697 2.05 0 3.82-1.23 4.64-2.952l.61.287c-.9 1.968-2.91 3.321-5.25 3.321-1.19 0-2.29-.369-3.2-.984l-4.424 2.706c1.927 1.968 4.634 3.198 7.624 3.198 4.27 0 8-2.542 9.72-6.191l.57.287c-1.8 3.895-5.74 6.56-10.29 6.56-6.271 0-11.355-5.084-11.355-11.357zm.656 0c0 1.189.205 2.296.533 3.362l4.428-2.706c-.041-.205-.041-.451-.041-.656 0-3.198 2.579-5.781 5.779-5.781 1.19 0 2.34.369 3.24.984l4.39-2.665c-1.93-2.009-4.63-3.239-7.63-3.239-5.902 0-10.699 4.797-10.699 10.701zm.779 3.977c.451 1.107 1.066 2.132 1.845 3.034l4.305-2.624c-.9-.779-1.558-1.845-1.845-3.034zm4.797-3.977v.287l7.753-4.715c-.78-.451-1.68-.697-2.63-.697-2.83 0-5.123 2.296-5.123 5.125zm.082 1.025c.251 1.189.941 2.255 1.891 2.993l8.2-5.002c-.25-1.189-.91-2.255-1.85-3.034zm8.861-5.371c.9.779 1.55 1.804 1.8 3.034l4.35-2.665c-.46-1.107-1.11-2.091-1.85-2.993zm24.83-4.674v18.04c2.74-1.681 4.92-5.084 4.92-9.02s-2.18-7.339-4.92-9.02zm-5.79-2.337c1.85 0 3.57.451 5.13 1.23v-.738h.66v1.107c2.29 1.271 4.05 3.567 4.92 5.945v-7.052h.65v21.73h-.65v-7.093c-.82 2.337-2.63 4.756-4.92 6.027v1.066h-.66v-.738c-1.56.779-3.28 1.23-5.13 1.23-6.27 0-11.35-5.084-11.35-11.357s5.08-11.357 11.35-11.357zm0 22.058c1.85 0 3.61-.451 5.13-1.271v-6.724c-.98 1.804-2.91 3.075-5.13 3.075-3.19 0-5.78-2.583-5.78-5.781s2.59-5.781 5.78-5.781c2.22 0 4.15 1.271 5.13 3.116v-6.724c-1.52-.82-3.28-1.312-5.13-1.312-5.9 0-10.7 4.797-10.7 10.701s4.8 10.701 10.7 10.701zm0-5.576c2.87 0 5.13-2.296 5.13-5.125s-2.26-5.125-5.13-5.125c-2.82 0-5.12 2.296-5.12 5.125s2.3 5.125 5.12 5.125zm14.56-9.307c0-3.977 3.2-7.175 7.17-7.175 2.96 0 5.5 1.804 6.6 4.346l-.61.287c-.98-2.337-3.32-3.977-5.99-3.977-3.6 0-6.52 2.911-6.52 6.519 0 3.075 2.1 5.617 4.97 6.355l1.8.451c.7.164 1.19.82 1.19 1.558 0 .902-.7 1.599-1.6 1.599-.7 0-1.27-.41-1.52-1.066l.62-.246c.12.369.45.656.9.656.53 0 .94-.41.94-.943 0-.451-.24-.82-.69-.943l-1.85-.451c-3.12-.779-5.41-3.608-5.41-6.97zm.41 11.234.61-.287c.99 2.337 3.28 3.936 5.99 3.936 3.61 0 6.52-2.911 6.52-6.519 0-3.075-2.09-5.617-4.96-6.355l-1.81-.451c-.73-.205-1.19-.82-1.19-1.558 0-.902.7-1.599 1.6-1.599.7 0 1.27.451 1.48 1.066l-.57.246c-.13-.369-.5-.656-.91-.656-.53 0-.94.41-.94.943 0 .451.25.82.7.943l1.84.451c3.16.779 5.41 3.608 5.41 6.97 0 3.977-3.19 7.175-7.17 7.175-2.95 0-5.49-1.763-6.6-4.305zm15.76-7.052c0-6.273 5.08-11.357 11.36-11.357 5 0 9.22 3.198 10.74 7.708l-13.33 8.077c.78.451 1.64.697 2.59.697 2.05 0 3.81-1.23 4.63-2.952l.61.287c-.9 1.968-2.91 3.321-5.24 3.321-1.19 0-2.3-.369-3.2-.984l-4.43 2.706c1.93 1.968 4.63 3.198 7.63 3.198 4.26 0 7.99-2.542 9.71-6.191l.58.287c-1.81 3.895-5.74 6.56-10.29 6.56-6.28 0-11.36-5.084-11.36-11.357zm.65 0c0 1.189.21 2.296.54 3.362l4.43-2.706c-.05-.205-.05-.451-.05-.656 0-3.198 2.59-5.781 5.79-5.781 1.18 0 2.33.369 3.23.984l4.39-2.665c-1.93-2.009-4.63-3.239-7.62-3.239-5.91 0-10.71 4.797-10.71 10.701zm.78 3.977c.45 1.107 1.07 2.132 1.85 3.034l4.3-2.624c-.9-.779-1.55-1.845-1.84-3.034zm4.8-3.977v.287l7.75-4.715c-.78-.451-1.68-.697-2.62-.697-2.83 0-5.13 2.296-5.13 5.125zm.08 1.025c.25 1.189.95 2.255 1.89 2.993l8.2-5.002c-.25-1.189-.9-2.255-1.85-3.034zm8.86-5.371c.9.779 1.56 1.804 1.8 3.034l4.35-2.665c-.45-1.107-1.11-2.091-1.85-2.993zm7.94.164c0-3.977 3.19-7.175 7.17-7.175 2.95 0 5.5 1.804 6.6 4.346l-.61.287c-.99-2.337-3.32-3.977-5.99-3.977-3.61 0-6.52 2.911-6.52 6.519 0 3.075 2.09 5.617 4.96 6.355l1.81.451c.69.164 1.19.82 1.19 1.558 0 .902-.7 1.599-1.6 1.599-.7 0-1.27-.41-1.52-1.066l.62-.246c.12.369.45.656.9.656.53 0 .94-.41.94-.943 0-.451-.25-.82-.7-.943l-1.84-.451c-3.12-.779-5.41-3.608-5.41-6.97zm.41 11.234.61-.287c.99 2.337 3.28 3.936 5.99 3.936 3.61 0 6.52-2.911 6.52-6.519 0-3.075-2.09-5.617-4.96-6.355l-1.81-.451c-.74-.205-1.19-.82-1.19-1.558 0-.902.7-1.599 1.6-1.599.7 0 1.27.451 1.48 1.066l-.58.246c-.12-.369-.49-.656-.9-.656-.53 0-.94.41-.94.943 0 .451.24.82.7.943l1.84.451c3.16.779 5.41 3.608 5.41 6.97 0 3.977-3.2 7.175-7.17 7.175-2.95 0-5.5-1.763-6.6-4.305zm35.32-2.665-2.63 6.478h-.65l-7.01-17.302-3.04 17.302h-.65l3.24-18.45-3.65-9.102-4.84 27.552h-.66l5.05-28.7h.65l3.65 9.102 1.6-9.102h.66l8.28 20.582 8.28-20.582h.66l1.6 9.061 3.64-9.061h.66l5.04 28.7h-.65l-4.84-27.552-3.65 9.061 3.24 18.491h-.66l-3.03-17.384-7.01 17.384h-.66zm2.95 5.658 7.13-17.712-1.59-9.02-8.16 20.254zm-3.28-6.478-8.16-20.254-1.6 9.102 7.14 17.63zm41.95-14.432v21.73h-.65v-6.191c-.91 2.337-2.67 4.264-4.92 5.371v.82h-.66v-.492c-1.15.451-2.38.697-3.69.697-5.45 0-9.92-4.469-9.92-9.922v-12.013h.65v12.013c0 5.084 4.19 9.266 9.27 9.266 1.31 0 2.54-.287 3.69-.779v-6.191c-.78 1.23-2.13 2.05-3.69 2.05-2.38 0-4.35-1.968-4.35-4.346v-12.013h.66v12.013c0 2.009 1.68 3.69 3.69 3.69s3.69-1.681 3.69-3.69v-12.013h.66v20.172c2.91-1.558 4.92-4.633 4.92-8.159v-12.013zm3.21 6.683c0-3.977 3.19-7.175 7.17-7.175 2.95 0 5.49 1.804 6.6 4.346l-.61.287c-.99-2.337-3.32-3.977-5.99-3.977-3.61 0-6.52 2.911-6.52 6.519 0 3.075 2.09 5.617 4.96 6.355l1.81.451c.69.164 1.19.82 1.19 1.558 0 .902-.7 1.599-1.6 1.599-.7 0-1.27-.41-1.52-1.066l.61-.246c.13.369.46.656.91.656.53 0 .94-.41.94-.943 0-.451-.25-.82-.7-.943l-1.84-.451c-3.12-.779-5.41-3.608-5.41-6.97zm.41 11.234.61-.287c.98 2.337 3.28 3.936 5.99 3.936 3.6 0 6.52-2.911 6.52-6.519 0-3.075-2.1-5.617-4.97-6.355l-1.8-.451c-.74-.205-1.19-.82-1.19-1.558 0-.902.7-1.599 1.6-1.599.7 0 1.27.451 1.48 1.066l-.58.246c-.12-.369-.49-.656-.9-.656-.53 0-.94.41-.94.943 0 .451.24.82.69.943l1.85.451c3.16.779 5.41 3.608 5.41 6.97 0 3.977-3.2 7.175-7.17 7.175-2.96 0-5.5-1.763-6.6-4.305zm16.99 3.813v-21.73h.65v21.73zm6.23-21.73v21.73h-.66v-21.73zm-.66-2.132v-6.888h.66v6.888zm-4.92-6.888v6.888h-.65v-6.888zm20.62 14.596v.656h-1.19c-2.5 0-4.63 2.132-4.63 4.633s2.13 4.633 4.63 4.633h1.19v.656h-1.19c-2.87 0-5.29-2.419-5.29-5.289s2.42-5.289 5.29-5.289zm0-4.92h-1.19c-5.62 0-10.21 4.592-10.21 10.209s4.59 10.209 10.21 10.209h1.19v.656h-1.19c-5.98 0-10.86-4.879-10.86-10.865s4.88-10.865 10.86-10.865h1.19zm25.4 21.074h-.65l-5.91-15.129v15.129h-.65v-22.468h-4.92v22.468h-.66v-28.7h9.14c5.25 0 9.43 4.182 9.43 9.43 0 4.182-2.09 6.642-4.51 8.159l4.31 11.111h-.66l-4.18-10.783c-1.19.697-2.87 1.312-4.26 1.722zm-.9-16.687 1.93 4.961c2.21-1.394 4.1-3.69 4.1-7.544 0-4.92-3.86-8.774-8.78-8.774h-2.91v4.92h2.91c2.14 0 3.86 1.722 3.86 3.854 0 .984-.37 1.845-1.11 2.583zm-5.66-5.781v7.339l1.56-.328c3.2-.697 4.55-2.05 4.55-3.813 0-1.804-1.39-3.198-3.2-3.198zm-5.57-5.576v4.92h4.92v-4.92zm12.63 16.646-1.89-4.838c-1.23.943-2.67 1.271-4.26 1.599l1.88 4.92c1.23-.328 3.24-1.066 4.27-1.681zm6.77.533c0-6.273 5.08-11.357 11.36-11.357 5 0 9.22 3.198 10.74 7.708l-13.33 8.077c.78.451 1.64.697 2.59.697 2.05 0 3.81-1.23 4.63-2.952l.61.287c-.9 1.968-2.91 3.321-5.24 3.321-1.19 0-2.3-.369-3.2-.984l-4.43 2.706c1.93 1.968 4.63 3.198 7.63 3.198 4.26 0 7.99-2.542 9.71-6.191l.58.287c-1.81 3.895-5.74 6.56-10.29 6.56-6.28 0-11.36-5.084-11.36-11.357zm.66 0c0 1.189.2 2.296.53 3.362l4.43-2.706c-.04-.205-.04-.451-.04-.656 0-3.198 2.58-5.781 5.78-5.781 1.19 0 2.33.369 3.24.984l4.38-2.665c-1.92-2.009-4.63-3.239-7.62-3.239-5.91 0-10.7 4.797-10.7 10.701zm.77 3.977c.46 1.107 1.07 2.132 1.85 3.034l4.3-2.624c-.9-.779-1.55-1.845-1.84-3.034zm4.8-3.977v.287l7.75-4.715c-.78-.451-1.68-.697-2.62-.697-2.83 0-5.13 2.296-5.13 5.125zm.08 1.025c.25 1.189.95 2.255 1.89 2.993l8.2-5.002c-.25-1.189-.9-2.255-1.85-3.034zm8.86-5.371c.9.779 1.56 1.804 1.8 3.034l4.35-2.665c-.45-1.107-1.11-2.091-1.85-2.993zm9.58-15.539v30.75h-.66v-30.75zm5.57 0v30.75h-.65v-30.75zm2.95 19.885c0-6.273 5.09-11.357 11.36-11.357 5 0 9.22 3.198 10.74 7.708l-13.32 8.077c.77.451 1.64.697 2.58.697 2.05 0 3.81-1.23 4.63-2.952l.62.287c-.91 1.968-2.91 3.321-5.25 3.321-1.19 0-2.3-.369-3.2-.984l-4.43 2.706c1.93 1.968 4.64 3.198 7.63 3.198 4.26 0 7.99-2.542 9.72-6.191l.57.287c-1.8 3.895-5.74 6.56-10.29 6.56-6.27 0-11.36-5.084-11.36-11.357zm.66 0c0 1.189.2 2.296.53 3.362l4.43-2.706c-.04-.205-.04-.451-.04-.656 0-3.198 2.58-5.781 5.78-5.781 1.19 0 2.34.369 3.24.984l4.38-2.665c-1.92-2.009-4.63-3.239-7.62-3.239-5.91 0-10.7 4.797-10.7 10.701zm.78 3.977c.45 1.107 1.06 2.132 1.84 3.034l4.31-2.624c-.91-.779-1.56-1.845-1.85-3.034zm4.79-3.977v.287l7.75-4.715c-.78-.451-1.68-.697-2.62-.697-2.83 0-5.13 2.296-5.13 5.125zm.09 1.025c.24 1.189.94 2.255 1.88 2.993l8.2-5.002c-.24-1.189-.9-2.255-1.84-3.034zm8.85-5.371c.9.779 1.56 1.804 1.81 3.034l4.34-2.665c-.45-1.107-1.11-2.091-1.84-2.993zm24.83-4.674v18.04c2.75-1.681 4.92-5.084 4.92-9.02s-2.17-7.339-4.92-9.02zm-5.78-2.337c1.85 0 3.57.451 5.13 1.23v-.738h.65v1.107c2.3 1.271 4.06 3.567 4.92 5.945v-7.052h.66v21.73h-.66v-7.093c-.82 2.337-2.62 4.756-4.92 6.027v1.066h-.65v-.738c-1.56.779-3.28 1.23-5.13 1.23-6.27 0-11.36-5.084-11.36-11.357s5.09-11.357 11.36-11.357zm0 22.058c1.85 0 3.61-.451 5.13-1.271v-6.724c-.99 1.804-2.91 3.075-5.13 3.075-3.2 0-5.78-2.583-5.78-5.781s2.58-5.781 5.78-5.781c2.22 0 4.14 1.271 5.13 3.116v-6.724c-1.52-.82-3.28-1.312-5.13-1.312-5.9 0-10.7 4.797-10.7 10.701s4.8 10.701 10.7 10.701zm0-5.576c2.87 0 5.13-2.296 5.13-5.125s-2.26-5.125-5.13-5.125c-2.83 0-5.12 2.296-5.12 5.125s2.29 5.125 5.12 5.125zm14.56-9.307c0-3.977 3.19-7.175 7.17-7.175 2.95 0 5.49 1.804 6.6 4.346l-.61.287c-.99-2.337-3.32-3.977-5.99-3.977-3.61 0-6.52 2.911-6.52 6.519 0 3.075 2.09 5.617 4.96 6.355l1.81.451c.69.164 1.19.82 1.19 1.558 0 .902-.7 1.599-1.6 1.599-.7 0-1.27-.41-1.52-1.066l.61-.246c.13.369.46.656.91.656.53 0 .94-.41.94-.943 0-.451-.25-.82-.7-.943l-1.84-.451c-3.12-.779-5.41-3.608-5.41-6.97zm.41 11.234.61-.287c.98 2.337 3.28 3.936 5.99 3.936 3.6 0 6.52-2.911 6.52-6.519 0-3.075-2.1-5.617-4.97-6.355l-1.8-.451c-.74-.205-1.19-.82-1.19-1.558 0-.902.7-1.599 1.6-1.599.7 0 1.27.451 1.48 1.066l-.58.246c-.12-.369-.49-.656-.9-.656-.53 0-.94.41-.94.943 0 .451.24.82.69.943l1.85.451c3.16.779 5.41 3.608 5.41 6.97 0 3.977-3.2 7.175-7.17 7.175-2.96 0-5.5-1.763-6.6-4.305zm15.76-7.052c0-6.273 5.08-11.357 11.35-11.357 5 0 9.23 3.198 10.74 7.708l-13.32 8.077c.78.451 1.64.697 2.58.697 2.05 0 3.82-1.23 4.64-2.952l.61.287c-.9 1.968-2.91 3.321-5.25 3.321-1.19 0-2.29-.369-3.2-.984l-4.42 2.706c1.92 1.968 4.63 3.198 7.62 3.198 4.27 0 8-2.542 9.72-6.191l.57.287c-1.8 3.895-5.74 6.56-10.29 6.56-6.27 0-11.35-5.084-11.35-11.357zm.65 0c0 1.189.21 2.296.53 3.362l4.43-2.706c-.04-.205-.04-.451-.04-.656 0-3.198 2.58-5.781 5.78-5.781 1.19 0 2.34.369 3.24.984l4.39-2.665c-1.93-2.009-4.63-3.239-7.63-3.239-5.9 0-10.7 4.797-10.7 10.701zm.78 3.977c.45 1.107 1.07 2.132 1.85 3.034l4.3-2.624c-.9-.779-1.56-1.845-1.84-3.034zm4.8-3.977v.287l7.75-4.715c-.78-.451-1.68-.697-2.63-.697-2.83 0-5.12 2.296-5.12 5.125zm.08 1.025c.25 1.189.94 2.255 1.89 2.993l8.2-5.002c-.25-1.189-.91-2.255-1.85-3.034zm8.86-5.371c.9.779 1.55 1.804 1.8 3.034l4.35-2.665c-.46-1.107-1.11-2.091-1.85-2.993zm7.93.164c0-3.977 3.2-7.175 7.18-7.175 2.95 0 5.49 1.804 6.6 4.346l-.62.287c-.98-2.337-3.32-3.977-5.98-3.977-3.61 0-6.52 2.911-6.52 6.519 0 3.075 2.09 5.617 4.96 6.355l1.8.451c.7.164 1.19.82 1.19 1.558 0 .902-.69 1.599-1.6 1.599-.69 0-1.27-.41-1.51-1.066l.61-.246c.13.369.45.656.9.656.54 0 .95-.41.95-.943 0-.451-.25-.82-.7-.943l-1.84-.451c-3.12-.779-5.42-3.608-5.42-6.97zm.41 11.234.62-.287c.98 2.337 3.28 3.936 5.98 3.936 3.61 0 6.52-2.911 6.52-6.519 0-3.075-2.09-5.617-4.96-6.355l-1.8-.451c-.74-.205-1.19-.82-1.19-1.558 0-.902.7-1.599 1.6-1.599.7 0 1.27.451 1.47 1.066l-.57.246c-.12-.369-.49-.656-.9-.656-.53 0-.94.41-.94.943 0 .451.24.82.69.943l1.85.451c3.15.779 5.41 3.608 5.41 6.97 0 3.977-3.2 7.175-7.18 7.175-2.95 0-5.49-1.763-6.6-4.305zm44.13-2.665-2.62 6.478h-.66l-7.01-17.302-3.03 17.302h-.66l3.24-18.45-3.65-9.102-4.84 27.552h-.65l5.04-28.7h.66l3.65 9.102 1.6-9.102h.65l8.28 20.582 8.29-20.582h.65l1.6 9.061 3.65-9.061h.66l5.04 28.7h-.66l-4.84-27.552-3.64 9.061 3.23 18.491h-.65l-3.04-17.384-7.01 17.384h-.65zm2.96 5.658 7.13-17.712-1.6-9.02-8.16 20.254zm-3.28-6.478-8.16-20.254-1.6 9.102 7.13 17.63zm41.95-14.432v21.73h-.66v-6.191c-.9 2.337-2.66 4.264-4.92 5.371v.82h-.65v-.492c-1.15.451-2.38.697-3.69.697-5.46 0-9.93-4.469-9.93-9.922v-12.013h.66v12.013c0 5.084 4.18 9.266 9.27 9.266 1.31 0 2.54-.287 3.69-.779v-6.191c-.78 1.23-2.14 2.05-3.69 2.05-2.38 0-4.35-1.968-4.35-4.346v-12.013h.66v12.013c0 2.009 1.68 3.69 3.69 3.69 2 0 3.69-1.681 3.69-3.69v-12.013h.65v20.172c2.91-1.558 4.92-4.633 4.92-8.159v-12.013zm3.2 6.683c0-3.977 3.2-7.175 7.18-7.175 2.95 0 5.49 1.804 6.6 4.346l-.62.287c-.98-2.337-3.32-3.977-5.98-3.977-3.61 0-6.52 2.911-6.52 6.519 0 3.075 2.09 5.617 4.96 6.355l1.8.451c.7.164 1.19.82 1.19 1.558 0 .902-.7 1.599-1.6 1.599-.7 0-1.27-.41-1.52-1.066l.62-.246c.12.369.45.656.9.656.53 0 .94-.41.94-.943 0-.451-.24-.82-.69-.943l-1.85-.451c-3.11-.779-5.41-3.608-5.41-6.97zm.41 11.234.62-.287c.98 2.337 3.28 3.936 5.98 3.936 3.61 0 6.52-2.911 6.52-6.519 0-3.075-2.09-5.617-4.96-6.355l-1.8-.451c-.74-.205-1.19-.82-1.19-1.558 0-.902.69-1.599 1.6-1.599.69 0 1.27.451 1.47 1.066l-.57.246c-.13-.369-.49-.656-.9-.656-.54 0-.95.41-.95.943 0 .451.25.82.7.943l1.84.451c3.16.779 5.42 3.608 5.42 6.97 0 3.977-3.2 7.175-7.18 7.175-2.95 0-5.49-1.763-6.6-4.305zm16.99 3.813v-21.73h.66v21.73zm6.23-21.73v21.73h-.65v-21.73zm-.65-2.132v-6.888h.65v6.888zm-4.92-6.888v6.888h-.66v-6.888zm20.62 14.596v.656h-1.19c-2.5 0-4.64 2.132-4.64 4.633s2.14 4.633 4.64 4.633h1.19v.656h-1.19c-2.87 0-5.29-2.419-5.29-5.289s2.42-5.289 5.29-5.289zm0-4.92h-1.19c-5.62 0-10.21 4.592-10.21 10.209s4.59 10.209 10.21 10.209h1.19v.656h-1.19c-5.99 0-10.87-4.879-10.87-10.865s4.88-10.865 10.87-10.865h1.19zm25.4 21.074h-.66l-5.9-15.129v15.129h-.66v-22.468h-4.92v22.468h-.65v-28.7h9.14c5.25 0 9.43 4.182 9.43 9.43 0 4.182-2.09 6.642-4.51 8.159l4.3 11.111h-.65l-4.18-10.783c-1.19.697-2.87 1.312-4.27 1.722zm-.9-16.687 1.92 4.961c2.22-1.394 4.1-3.69 4.1-7.544 0-4.92-3.85-8.774-8.77-8.774h-2.91v4.92h2.91c2.13 0 3.85 1.722 3.85 3.854 0 .984-.37 1.845-1.1 2.583zm-5.66-5.781v7.339l1.56-.328c3.19-.697 4.55-2.05 4.55-3.813 0-1.804-1.4-3.198-3.2-3.198zm-5.58-5.576v4.92h4.92v-4.92zm12.63 16.646-1.89-4.838c-1.23.943-2.66 1.271-4.26 1.599l1.89 4.92c1.23-.328 3.24-1.066 4.26-1.681zm6.77.533c0-6.273 5.09-11.357 11.36-11.357 5 0 9.23 3.198 10.74 7.708l-13.32 8.077c.78.451 1.64.697 2.58.697 2.05 0 3.81-1.23 4.63-2.952l.62.287c-.9 1.968-2.91 3.321-5.25 3.321-1.19 0-2.29-.369-3.2-.984l-4.42 2.706c1.92 1.968 4.63 3.198 7.62 3.198 4.27 0 8-2.542 9.72-6.191l.57.287c-1.8 3.895-5.74 6.56-10.29 6.56-6.27 0-11.36-5.084-11.36-11.357zm.66 0c0 1.189.21 2.296.53 3.362l4.43-2.706c-.04-.205-.04-.451-.04-.656 0-3.198 2.58-5.781 5.78-5.781 1.19 0 2.34.369 3.24.984l4.39-2.665c-1.93-2.009-4.64-3.239-7.63-3.239-5.9 0-10.7 4.797-10.7 10.701zm.78 3.977c.45 1.107 1.07 2.132 1.84 3.034l4.31-2.624c-.9-.779-1.56-1.845-1.85-3.034zm4.8-3.977v.287l7.75-4.715c-.78-.451-1.69-.697-2.63-.697-2.83 0-5.12 2.296-5.12 5.125zm.08 1.025c.24 1.189.94 2.255 1.88 2.993l8.2-5.002c-.24-1.189-.9-2.255-1.84-3.034zm8.85-5.371c.91.779 1.56 1.804 1.81 3.034l4.34-2.665c-.45-1.107-1.1-2.091-1.84-2.993zm9.58-15.539v30.75h-.65v-30.75zm5.58 0v30.75h-.66v-30.75zm2.95 19.885c0-6.273 5.08-11.357 11.35-11.357 5.01 0 9.23 3.198 10.75 7.708l-13.33 8.077c.78.451 1.64.697 2.58.697 2.05 0 3.82-1.23 4.64-2.952l.61.287c-.9 1.968-2.91 3.321-5.25 3.321-1.18 0-2.29-.369-3.19-.984l-4.43 2.706c1.93 1.968 4.63 3.198 7.62 3.198 4.27 0 8-2.542 9.72-6.191l.58.287c-1.81 3.895-5.74 6.56-10.3 6.56-6.27 0-11.35-5.084-11.35-11.357zm.65 0c0 1.189.21 2.296.54 3.362l4.42-2.706c-.04-.205-.04-.451-.04-.656 0-3.198 2.59-5.781 5.78-5.781 1.19 0 2.34.369 3.24.984l4.39-2.665c-1.93-2.009-4.63-3.239-7.63-3.239-5.9 0-10.7 4.797-10.7 10.701zm.78 3.977c.45 1.107 1.07 2.132 1.85 3.034l4.3-2.624c-.9-.779-1.56-1.845-1.84-3.034zm4.8-3.977v.287l7.75-4.715c-.78-.451-1.68-.697-2.63-.697-2.82 0-5.12 2.296-5.12 5.125zm.08 1.025c.25 1.189.94 2.255 1.89 2.993l8.2-5.002c-.25-1.189-.9-2.255-1.85-3.034zm8.86-5.371c.9.779 1.56 1.804 1.8 3.034l4.35-2.665c-.45-1.107-1.11-2.091-1.85-2.993zm24.83-4.674v18.04c2.74-1.681 4.92-5.084 4.92-9.02s-2.18-7.339-4.92-9.02zm-5.78-2.337c1.84 0 3.56.451 5.12 1.23v-.738h.66v1.107c2.29 1.271 4.06 3.567 4.92 5.945v-7.052h.65v21.73h-.65v-7.093c-.82 2.337-2.63 4.756-4.92 6.027v1.066h-.66v-.738c-1.56.779-3.28 1.23-5.12 1.23-6.28 0-11.36-5.084-11.36-11.357s5.08-11.357 11.36-11.357zm0 22.058c1.84 0 3.6-.451 5.12-1.271v-6.724c-.98 1.804-2.91 3.075-5.12 3.075-3.2 0-5.78-2.583-5.78-5.781s2.58-5.781 5.78-5.781c2.21 0 4.14 1.271 5.12 3.116v-6.724c-1.52-.82-3.28-1.312-5.12-1.312-5.91 0-10.7 4.797-10.7 10.701s4.79 10.701 10.7 10.701zm0-5.576c2.87 0 5.12-2.296 5.12-5.125s-2.25-5.125-5.12-5.125c-2.83 0-5.13 2.296-5.13 5.125s2.3 5.125 5.13 5.125zm14.55-9.307c0-3.977 3.2-7.175 7.18-7.175 2.95 0 5.49 1.804 6.6 4.346l-.62.287c-.98-2.337-3.32-3.977-5.98-3.977-3.61 0-6.52 2.911-6.52 6.519 0 3.075 2.09 5.617 4.96 6.355l1.8.451c.7.164 1.19.82 1.19 1.558 0 .902-.7 1.599-1.6 1.599-.7 0-1.27-.41-1.52-1.066l.62-.246c.12.369.45.656.9.656.53 0 .94-.41.94-.943 0-.451-.24-.82-.69-.943l-1.85-.451c-3.11-.779-5.41-3.608-5.41-6.97zm.41 11.234.62-.287c.98 2.337 3.28 3.936 5.98 3.936 3.61 0 6.52-2.911 6.52-6.519 0-3.075-2.09-5.617-4.96-6.355l-1.8-.451c-.74-.205-1.19-.82-1.19-1.558 0-.902.69-1.599 1.6-1.599.69 0 1.27.451 1.47 1.066l-.57.246c-.13-.369-.49-.656-.9-.656-.54 0-.95.41-.95.943 0 .451.25.82.7.943l1.84.451c3.16.779 5.42 3.608 5.42 6.97 0 3.977-3.2 7.175-7.18 7.175-2.95 0-5.49-1.763-6.6-4.305zm15.76-7.052c0-6.273 5.08-11.357 11.36-11.357 5 0 9.22 3.198 10.74 7.708l-13.33 8.077c.78.451 1.64.697 2.59.697 2.05 0 3.81-1.23 4.63-2.952l.62.287c-.91 1.968-2.92 3.321-5.25 3.321-1.19 0-2.3-.369-3.2-.984l-4.43 2.706c1.93 1.968 4.63 3.198 7.63 3.198 4.26 0 7.99-2.542 9.71-6.191l.58.287c-1.81 3.895-5.74 6.56-10.29 6.56-6.28 0-11.36-5.084-11.36-11.357zm.66 0c0 1.189.2 2.296.53 3.362l4.43-2.706c-.04-.205-.04-.451-.04-.656 0-3.198 2.58-5.781 5.78-5.781 1.19 0 2.33.369 3.24.984l4.38-2.665c-1.92-2.009-4.63-3.239-7.62-3.239-5.91 0-10.7 4.797-10.7 10.701zm.78 3.977c.45 1.107 1.06 2.132 1.84 3.034l4.31-2.624c-.91-.779-1.56-1.845-1.85-3.034zm4.79-3.977v.287l7.75-4.715c-.78-.451-1.68-.697-2.62-.697-2.83 0-5.13 2.296-5.13 5.125zm.08 1.025c.25 1.189.95 2.255 1.89 2.993l8.2-5.002c-.25-1.189-.9-2.255-1.84-3.034zm8.86-5.371c.9.779 1.56 1.804 1.8 3.034l4.35-2.665c-.45-1.107-1.11-2.091-1.84-2.993zm7.94.164c0-3.977 3.2-7.175 7.17-7.175 2.96 0 5.5 1.804 6.6 4.346l-.61.287c-.98-2.337-3.32-3.977-5.99-3.977-3.6 0-6.52 2.911-6.52 6.519 0 3.075 2.1 5.617 4.97 6.355l1.8.451c.7.164 1.19.82 1.19 1.558 0 .902-.7 1.599-1.6 1.599-.7 0-1.27-.41-1.52-1.066l.62-.246c.12.369.45.656.9.656.53 0 .94-.41.94-.943 0-.451-.24-.82-.69-.943l-1.85-.451c-3.12-.779-5.41-3.608-5.41-6.97zm.41 11.234.61-.287c.99 2.337 3.28 3.936 5.99 3.936 3.61 0 6.52-2.911 6.52-6.519 0-3.075-2.09-5.617-4.96-6.355l-1.81-.451c-.73-.205-1.19-.82-1.19-1.558 0-.902.7-1.599 1.6-1.599.7 0 1.27.451 1.48 1.066l-.57.246c-.13-.369-.5-.656-.91-.656-.53 0-.94.41-.94.943 0 .451.25.82.7.943l1.84.451c3.16.779 5.41 3.608 5.41 6.97 0 3.977-3.19 7.175-7.17 7.175-2.95 0-5.49-1.763-6.6-4.305zm44.13-2.665-2.62 6.478h-.66l-7.01-17.302-3.04 17.302h-.65l3.24-18.45-3.65-9.102-4.84 27.552h-.66l5.05-28.7h.65l3.65 9.102 1.6-9.102h.66l8.28 20.582 8.28-20.582h.66l1.6 9.061 3.65-9.061h.65l5.04 28.7h-.65l-4.84-27.552-3.65 9.061 3.24 18.491h-.66l-3.03-17.384-7.01 17.384h-.66zm2.95 5.658 7.14-17.712-1.6-9.02-8.16 20.254zm-3.28-6.478-8.16-20.254-1.6 9.102 7.14 17.63zm41.95-14.432v21.73h-.65v-6.191c-.91 2.337-2.67 4.264-4.92 5.371v.82h-.66v-.492c-1.15.451-2.38.697-3.69.697-5.45 0-9.92-4.469-9.92-9.922v-12.013h.65v12.013c0 5.084 4.19 9.266 9.27 9.266 1.31 0 2.54-.287 3.69-.779v-6.191c-.78 1.23-2.13 2.05-3.69 2.05-2.38 0-4.35-1.968-4.35-4.346v-12.013h.66v12.013c0 2.009 1.68 3.69 3.69 3.69s3.69-1.681 3.69-3.69v-12.013h.66v20.172c2.91-1.558 4.92-4.633 4.92-8.159v-12.013zm3.21 6.683c0-3.977 3.19-7.175 7.17-7.175 2.95 0 5.49 1.804 6.6 4.346l-.61.287c-.99-2.337-3.32-3.977-5.99-3.977-3.61 0-6.52 2.911-6.52 6.519 0 3.075 2.09 5.617 4.96 6.355l1.81.451c.69.164 1.19.82 1.19 1.558 0 .902-.7 1.599-1.6 1.599-.7 0-1.27-.41-1.52-1.066l.61-.246c.13.369.46.656.91.656.53 0 .94-.41.94-.943 0-.451-.25-.82-.7-.943l-1.84-.451c-3.12-.779-5.41-3.608-5.41-6.97zm.41 11.234.61-.287c.98 2.337 3.28 3.936 5.99 3.936 3.6 0 6.52-2.911 6.52-6.519 0-3.075-2.1-5.617-4.97-6.355l-1.8-.451c-.74-.205-1.19-.82-1.19-1.558 0-.902.7-1.599 1.6-1.599.7 0 1.27.451 1.48 1.066l-.58.246c-.12-.369-.49-.656-.9-.656-.53 0-.94.41-.94.943 0 .451.24.82.69.943l1.85.451c3.16.779 5.41 3.608 5.41 6.97 0 3.977-3.2 7.175-7.17 7.175-2.96 0-5.5-1.763-6.6-4.305zm16.99 3.813v-21.73h.65v21.73zm6.23-21.73v21.73h-.66v-21.73zm-.66-2.132v-6.888h.66v6.888zm-4.92-6.888v6.888h-.65v-6.888zm20.62 14.596v.656h-1.19c-2.5 0-4.63 2.132-4.63 4.633s2.13 4.633 4.63 4.633h1.19v.656h-1.19c-2.87 0-5.29-2.419-5.29-5.289s2.42-5.289 5.29-5.289zm0-4.92h-1.19c-5.61 0-10.21 4.592-10.21 10.209s4.6 10.209 10.21 10.209h1.19v.656h-1.19c-5.98 0-10.86-4.879-10.86-10.865s4.88-10.865 10.86-10.865h1.19zm25.4 21.074h-.65l-5.91-15.129v15.129h-.65v-22.468h-4.92v22.468h-.66v-28.7h9.14c5.25 0 9.43 4.182 9.43 9.43 0 4.182-2.09 6.642-4.51 8.159l4.31 11.111h-.66l-4.18-10.783c-1.19.697-2.87 1.312-4.26 1.722zm-.9-16.687 1.93 4.961c2.21-1.394 4.1-3.69 4.1-7.544 0-4.92-3.86-8.774-8.78-8.774h-2.91v4.92h2.91c2.14 0 3.86 1.722 3.86 3.854 0 .984-.37 1.845-1.11 2.583zm-5.66-5.781v7.339l1.56-.328c3.2-.697 4.55-2.05 4.55-3.813 0-1.804-1.39-3.198-3.2-3.198zm-5.57-5.576v4.92h4.92v-4.92zm12.63 16.646-1.89-4.838c-1.23.943-2.67 1.271-4.26 1.599l1.88 4.92c1.23-.328 3.24-1.066 4.27-1.681zm6.77.533c0-6.273 5.08-11.357 11.36-11.357 5 0 9.22 3.198 10.74 7.708l-13.33 8.077c.78.451 1.64.697 2.59.697 2.05 0 3.81-1.23 4.63-2.952l.61.287c-.9 1.968-2.91 3.321-5.24 3.321-1.19 0-2.3-.369-3.2-.984l-4.43 2.706c1.93 1.968 4.63 3.198 7.63 3.198 4.26 0 7.99-2.542 9.71-6.191l.58.287c-1.81 3.895-5.74 6.56-10.29 6.56-6.28 0-11.36-5.084-11.36-11.357zm.66 0c0 1.189.2 2.296.53 3.362l4.43-2.706c-.04-.205-.04-.451-.04-.656 0-3.198 2.58-5.781 5.78-5.781 1.19 0 2.33.369 3.24.984l4.38-2.665c-1.92-2.009-4.63-3.239-7.62-3.239-5.91 0-10.7 4.797-10.7 10.701zm.77 3.977c.46 1.107 1.07 2.132 1.85 3.034l4.3-2.624c-.9-.779-1.55-1.845-1.84-3.034zm4.8-3.977v.287l7.75-4.715c-.78-.451-1.68-.697-2.62-.697-2.83 0-5.13 2.296-5.13 5.125zm.08 1.025c.25 1.189.95 2.255 1.89 2.993l8.2-5.002c-.25-1.189-.9-2.255-1.85-3.034zm8.86-5.371c.9.779 1.56 1.804 1.8 3.034l4.35-2.665c-.45-1.107-1.11-2.091-1.85-2.993zm9.58-15.539v30.75h-.66v-30.75zm5.57 0v30.75h-.65v-30.75zm2.95 19.885c0-6.273 5.09-11.357 11.36-11.357 5 0 9.22 3.198 10.74 7.708l-13.32 8.077c.78.451 1.64.697 2.58.697 2.05 0 3.81-1.23 4.63-2.952l.62.287c-.9 1.968-2.91 3.321-5.25 3.321-1.19 0-2.3-.369-3.2-.984l-4.43 2.706c1.93 1.968 4.64 3.198 7.63 3.198 4.26 0 7.99-2.542 9.72-6.191l.57.287c-1.8 3.895-5.74 6.56-10.29 6.56-6.27 0-11.36-5.084-11.36-11.357zm.66 0c0 1.189.2 2.296.53 3.362l4.43-2.706c-.04-.205-.04-.451-.04-.656 0-3.198 2.58-5.781 5.78-5.781 1.19 0 2.34.369 3.24.984l4.39-2.665c-1.93-2.009-4.64-3.239-7.63-3.239-5.9 0-10.7 4.797-10.7 10.701zm.78 3.977c.45 1.107 1.06 2.132 1.84 3.034l4.31-2.624c-.9-.779-1.56-1.845-1.85-3.034zm4.79-3.977v.287l7.75-4.715c-.78-.451-1.68-.697-2.62-.697-2.83 0-5.13 2.296-5.13 5.125zm.09 1.025c.24 1.189.94 2.255 1.88 2.993l8.2-5.002c-.24-1.189-.9-2.255-1.84-3.034zm8.85-5.371c.9.779 1.56 1.804 1.81 3.034l4.34-2.665c-.45-1.107-1.1-2.091-1.84-2.993zm24.83-4.674v18.04c2.75-1.681 4.92-5.084 4.92-9.02s-2.17-7.339-4.92-9.02zm-5.78-2.337c1.85 0 3.57.451 5.13 1.23v-.738h.65v1.107c2.3 1.271 4.06 3.567 4.92 5.945v-7.052h.66v21.73h-.66v-7.093c-.82 2.337-2.62 4.756-4.92 6.027v1.066h-.65v-.738c-1.56.779-3.28 1.23-5.13 1.23-6.27 0-11.36-5.084-11.36-11.357s5.09-11.357 11.36-11.357zm0 22.058c1.85 0 3.61-.451 5.13-1.271v-6.724c-.99 1.804-2.91 3.075-5.13 3.075-3.2 0-5.78-2.583-5.78-5.781s2.58-5.781 5.78-5.781c2.22 0 4.14 1.271 5.13 3.116v-6.724c-1.52-.82-3.28-1.312-5.13-1.312-5.9 0-10.7 4.797-10.7 10.701s4.8 10.701 10.7 10.701zm0-5.576c2.87 0 5.13-2.296 5.13-5.125s-2.26-5.125-5.13-5.125c-2.83 0-5.12 2.296-5.12 5.125s2.29 5.125 5.12 5.125zm14.56-9.307c0-3.977 3.19-7.175 7.17-7.175 2.95 0 5.49 1.804 6.6 4.346l-.61.287c-.99-2.337-3.32-3.977-5.99-3.977-3.61 0-6.52 2.911-6.52 6.519 0 3.075 2.09 5.617 4.96 6.355l1.81.451c.69.164 1.19.82 1.19 1.558 0 .902-.7 1.599-1.6 1.599-.7 0-1.27-.41-1.52-1.066l.61-.246c.13.369.46.656.91.656.53 0 .94-.41.94-.943 0-.451-.25-.82-.7-.943l-1.84-.451c-3.12-.779-5.41-3.608-5.41-6.97zm.41 11.234.61-.287c.98 2.337 3.28 3.936 5.99 3.936 3.6 0 6.52-2.911 6.52-6.519 0-3.075-2.1-5.617-4.97-6.355l-1.8-.451c-.74-.205-1.19-.82-1.19-1.558 0-.902.7-1.599 1.6-1.599.7 0 1.27.451 1.48 1.066l-.58.246c-.12-.369-.49-.656-.9-.656-.53 0-.94.41-.94.943 0 .451.24.82.69.943l1.85.451c3.16.779 5.41 3.608 5.41 6.97 0 3.977-3.2 7.175-7.17 7.175-2.96 0-5.5-1.763-6.6-4.305zm15.76-7.052c0-6.273 5.08-11.357 11.35-11.357 5 0 9.23 3.198 10.74 7.708l-13.32 8.077c.78.451 1.64.697 2.58.697 2.05 0 3.82-1.23 4.64-2.952l.61.287c-.9 1.968-2.91 3.321-5.25 3.321-1.19 0-2.29-.369-3.2-.984l-4.42 2.706c1.92 1.968 4.63 3.198 7.62 3.198 4.27 0 8-2.542 9.72-6.191l.57.287c-1.8 3.895-5.74 6.56-10.29 6.56-6.27 0-11.35-5.084-11.35-11.357zm.65 0c0 1.189.21 2.296.53 3.362l4.43-2.706c-.04-.205-.04-.451-.04-.656 0-3.198 2.58-5.781 5.78-5.781 1.19 0 2.34.369 3.24.984l4.39-2.665c-1.93-2.009-4.63-3.239-7.63-3.239-5.9 0-10.7 4.797-10.7 10.701zm.78 3.977c.45 1.107 1.07 2.132 1.85 3.034l4.3-2.624c-.9-.779-1.56-1.845-1.84-3.034zm4.8-3.977v.287l7.75-4.715c-.78-.451-1.68-.697-2.63-.697-2.83 0-5.12 2.296-5.12 5.125zm.08 1.025c.25 1.189.94 2.255 1.89 2.993l8.2-5.002c-.25-1.189-.91-2.255-1.85-3.034zm8.86-5.371c.9.779 1.55 1.804 1.8 3.034l4.35-2.665c-.46-1.107-1.11-2.091-1.85-2.993zm7.93.164c0-3.977 3.2-7.175 7.18-7.175 2.95 0 5.49 1.804 6.6 4.346l-.62.287c-.98-2.337-3.32-3.977-5.98-3.977-3.61 0-6.52 2.911-6.52 6.519 0 3.075 2.09 5.617 4.96 6.355l1.8.451c.7.164 1.19.82 1.19 1.558 0 .902-.69 1.599-1.6 1.599-.69 0-1.27-.41-1.51-1.066l.61-.246c.13.369.45.656.9.656.54 0 .95-.41.95-.943 0-.451-.25-.82-.7-.943l-1.84-.451c-3.12-.779-5.42-3.608-5.42-6.97zm.41 11.234.62-.287c.98 2.337 3.28 3.936 5.98 3.936 3.61 0 6.52-2.911 6.52-6.519 0-3.075-2.09-5.617-4.96-6.355l-1.8-.451c-.74-.205-1.19-.82-1.19-1.558 0-.902.7-1.599 1.6-1.599.7 0 1.27.451 1.47 1.066l-.57.246c-.12-.369-.49-.656-.9-.656-.53 0-.94.41-.94.943 0 .451.24.82.69.943l1.85.451c3.15.779 5.41 3.608 5.41 6.97 0 3.977-3.2 7.175-7.18 7.175-2.95 0-5.49-1.763-6.6-4.305z" fill="#fff"/></g></svg>