<svg width="1940" height="343" viewBox="0 0 1940 343" fill="none" xmlns="http://www.w3.org/2000/svg">
<g clip-path="url(#clip0_443_857)">
<rect width="1940" height="343" fill="white"/>
<rect x="-3.8999" width="80.3148" height="20.5514" rx="3" fill="#E14646" fill-opacity="0.3"/>
<path d="M3.75297 14V3.81818H7.19332C7.98877 3.81818 8.64171 3.95407 9.15212 4.22585C9.66254 4.49432 10.0404 4.86387 10.2856 5.33452C10.5309 5.80516 10.6535 6.34044 10.6535 6.94034C10.6535 7.54025 10.5309 8.07221 10.2856 8.53622C10.0404 9.00024 9.6642 9.36482 9.15709 9.62997C8.64999 9.89181 8.00203 10.0227 7.2132 10.0227H4.42911V8.90909H7.17343C7.71699 8.90909 8.15449 8.82955 8.48593 8.67045C8.82068 8.51136 9.06263 8.28598 9.21178 7.99432C9.36424 7.69934 9.44047 7.34801 9.44047 6.94034C9.44047 6.53267 9.36424 6.17637 9.21178 5.87145C9.05932 5.56652 8.81571 5.3312 8.48096 5.16548C8.1462 4.99645 7.70373 4.91193 7.15354 4.91193H4.98593V14H3.75297ZM8.54559 9.42614L11.0513 14H9.61945L7.15354 9.42614H8.54559ZM15.6686 14.1591C14.9328 14.1591 14.2981 13.9967 13.7645 13.6719C13.2342 13.3438 12.8249 12.8864 12.5365 12.2997C12.2515 11.7098 12.109 11.0237 12.109 10.2415C12.109 9.45928 12.2515 8.76989 12.5365 8.1733C12.8249 7.57339 13.2259 7.10606 13.7397 6.77131C14.2567 6.43324 14.8599 6.2642 15.5493 6.2642C15.947 6.2642 16.3398 6.33049 16.7276 6.46307C17.1154 6.59564 17.4684 6.81108 17.7865 7.10938C18.1047 7.40436 18.3583 7.79545 18.5472 8.28267C18.7361 8.76989 18.8306 9.36979 18.8306 10.0824V10.5795H12.9442V9.56534H17.6374C17.6374 9.13447 17.5512 8.75 17.3789 8.41193C17.2098 8.07386 16.9679 7.80705 16.653 7.61151C16.3415 7.41596 15.9736 7.31818 15.5493 7.31818C15.082 7.31818 14.6776 7.43419 14.3362 7.66619C13.9982 7.89489 13.738 8.19318 13.5557 8.56108C13.3734 8.92898 13.2823 9.32339 13.2823 9.74432V10.4205C13.2823 10.9972 13.3817 11.486 13.5806 11.8871C13.7827 12.2848 14.0628 12.5881 14.4208 12.7969C14.7787 13.0024 15.1947 13.1051 15.6686 13.1051C15.9769 13.1051 16.2553 13.062 16.5039 12.9759C16.7558 12.8864 16.9728 12.7538 17.1551 12.5781C17.3374 12.3991 17.4783 12.1771 17.5777 11.9119L18.7112 12.2301C18.5919 12.6146 18.3914 12.9527 18.1097 13.2443C17.828 13.5327 17.48 13.758 17.0657 13.9205C16.6514 14.0795 16.1857 14.1591 15.6686 14.1591ZM23.4989 14.1591C22.8625 14.1591 22.3007 13.9983 21.8135 13.6768C21.3263 13.352 20.9451 12.8946 20.6701 12.3047C20.395 11.7114 20.2574 11.0104 20.2574 10.2017C20.2574 9.39962 20.395 8.7036 20.6701 8.11364C20.9451 7.52367 21.328 7.06794 21.8185 6.74645C22.309 6.42495 22.8758 6.2642 23.5188 6.2642C24.0159 6.2642 24.4087 6.34706 24.697 6.51278C24.9887 6.67519 25.2108 6.8608 25.3632 7.0696C25.519 7.27509 25.64 7.44413 25.7262 7.5767H25.8256V3.81818H26.9989V14H25.8654V12.8267H25.7262C25.64 12.9659 25.5174 13.1416 25.3583 13.3537C25.1992 13.5625 24.9721 13.7498 24.6772 13.9155C24.3822 14.0779 23.9894 14.1591 23.4989 14.1591ZM23.658 13.1051C24.1286 13.1051 24.5264 12.9825 24.8512 12.7372C25.176 12.4886 25.4229 12.1456 25.5919 11.7081C25.761 11.2673 25.8455 10.7585 25.8455 10.1818C25.8455 9.61174 25.7626 9.11293 25.5969 8.68537C25.4312 8.2545 25.1859 7.91974 24.8611 7.68111C24.5363 7.43916 24.1353 7.31818 23.658 7.31818C23.1608 7.31818 22.7465 7.44579 22.4151 7.70099C22.087 7.95289 21.84 8.29593 21.6743 8.73011C21.5119 9.16098 21.4307 9.64489 21.4307 10.1818C21.4307 10.7254 21.5136 11.2192 21.6793 11.6634C21.8483 12.1042 22.0969 12.4555 22.425 12.7173C22.7565 12.9759 23.1675 13.1051 23.658 13.1051ZM36.5692 6.36364V7.35795H32.6118V6.36364H36.5692ZM33.7652 4.53409H34.9385V11.8125C34.9385 12.1439 34.9866 12.3925 35.0827 12.5582C35.1821 12.7206 35.3081 12.83 35.4605 12.8864C35.6163 12.9394 35.7804 12.9659 35.9527 12.9659C36.082 12.9659 36.188 12.9593 36.2709 12.946C36.3538 12.9295 36.4201 12.9162 36.4698 12.9062L36.7084 13.9602C36.6289 13.9901 36.5178 14.0199 36.3753 14.0497C36.2328 14.0829 36.0522 14.0994 35.8334 14.0994C35.502 14.0994 35.1772 14.0282 34.859 13.8857C34.5441 13.7431 34.2823 13.526 34.0735 13.2344C33.868 12.9427 33.7652 12.5748 33.7652 12.1307V4.53409ZM40.5813 14.179C40.0974 14.179 39.6582 14.0878 39.2638 13.9055C38.8694 13.7199 38.5562 13.4531 38.3242 13.1051C38.0922 12.7538 37.9762 12.3295 37.9762 11.8324C37.9762 11.3949 38.0623 11.0402 38.2347 10.7685C38.407 10.4934 38.6374 10.2779 38.9257 10.1222C39.2141 9.96638 39.5323 9.85038 39.8803 9.77415C40.2316 9.6946 40.5846 9.63163 40.9392 9.58523C41.4032 9.52557 41.7794 9.48082 42.0678 9.45099C42.3594 9.41785 42.5716 9.36316 42.7041 9.28693C42.84 9.2107 42.908 9.07812 42.908 8.8892V8.84943C42.908 8.3589 42.7737 7.97775 42.5053 7.70597C42.2401 7.43419 41.8374 7.2983 41.2972 7.2983C40.7371 7.2983 40.2979 7.42093 39.9797 7.66619C39.6615 7.91146 39.4378 8.1733 39.3085 8.4517L38.1949 8.05398C38.3938 7.58996 38.6589 7.22869 38.9904 6.97017C39.3251 6.70833 39.6897 6.52604 40.0841 6.4233C40.4818 6.31723 40.8729 6.2642 41.2574 6.2642C41.5027 6.2642 41.7844 6.29403 42.1026 6.35369C42.4241 6.41004 42.734 6.5277 43.0323 6.70668C43.3339 6.88565 43.5841 7.15578 43.783 7.51705C43.9818 7.87831 44.0813 8.36222 44.0813 8.96875V14H42.908V12.9659H42.8483C42.7688 13.1316 42.6362 13.3089 42.4506 13.4979C42.265 13.6868 42.0181 13.8475 41.7098 13.9801C41.4016 14.1127 41.0254 14.179 40.5813 14.179ZM40.7603 13.125C41.2243 13.125 41.6154 13.0339 41.9335 12.8516C42.255 12.6693 42.497 12.4339 42.6594 12.1456C42.8251 11.8572 42.908 11.554 42.908 11.2358V10.1619C42.8583 10.2216 42.7489 10.2763 42.5799 10.326C42.4141 10.3724 42.2219 10.4138 42.0032 10.4503C41.7877 10.4834 41.5773 10.5133 41.3718 10.5398C41.1696 10.563 41.0055 10.5829 40.8796 10.5994C40.5746 10.6392 40.2896 10.7038 40.0245 10.7933C39.7626 10.8795 39.5505 11.0104 39.3881 11.1861C39.229 11.3584 39.1495 11.5937 39.1495 11.892C39.1495 12.2997 39.3003 12.608 39.6019 12.8168C39.9068 13.0223 40.2929 13.125 40.7603 13.125ZM49.3052 17.0227C48.7384 17.0227 48.2512 16.9498 47.8435 16.804C47.4359 16.6615 47.0961 16.4725 46.8244 16.2372C46.5559 16.0052 46.3421 15.7566 46.183 15.4915L47.1177 14.8352C47.2237 14.9744 47.358 15.1335 47.5204 15.3125C47.6828 15.4948 47.9048 15.6522 48.1866 15.7848C48.4716 15.9207 48.8445 15.9886 49.3052 15.9886C49.9217 15.9886 50.4304 15.8395 50.8315 15.5412C51.2325 15.2429 51.433 14.7756 51.433 14.1392V12.5881H51.3336C51.2474 12.7273 51.1248 12.8996 50.9657 13.1051C50.8099 13.3073 50.5845 13.4879 50.2896 13.647C49.9979 13.8028 49.6035 13.8807 49.1063 13.8807C48.4898 13.8807 47.9363 13.7348 47.4458 13.4432C46.9586 13.1515 46.5725 12.7273 46.2874 12.1705C46.0057 11.6136 45.8648 10.9375 45.8648 10.142C45.8648 9.35985 46.0024 8.67874 46.2775 8.09872C46.5526 7.51539 46.9354 7.06463 47.4259 6.74645C47.9164 6.42495 48.4832 6.2642 49.1262 6.2642C49.6234 6.2642 50.0178 6.34706 50.3094 6.51278C50.6044 6.67519 50.8298 6.8608 50.9856 7.0696C51.1447 7.27509 51.2673 7.44413 51.3535 7.5767H51.4728V6.36364H52.6063V14.2188C52.6063 14.875 52.4572 15.4086 52.1589 15.8196C51.8639 16.2339 51.4662 16.5372 50.9657 16.7294C50.4685 16.925 49.915 17.0227 49.3052 17.0227ZM49.2654 12.8267C49.736 12.8267 50.1338 12.719 50.4586 12.5036C50.7834 12.2881 51.0303 11.9782 51.1994 11.5739C51.3684 11.1695 51.4529 10.6856 51.4529 10.1222C51.4529 9.57197 51.37 9.08641 51.2043 8.66548C51.0386 8.24455 50.7933 7.91477 50.4685 7.67614C50.1437 7.4375 49.7427 7.31818 49.2654 7.31818C48.7682 7.31818 48.3539 7.44413 48.0225 7.69602C47.6944 7.94792 47.4475 8.28598 47.2817 8.71023C47.1193 9.13447 47.0381 9.60511 47.0381 10.1222C47.0381 10.6525 47.121 11.1214 47.2867 11.5291C47.4557 11.9335 47.7043 12.2517 48.0324 12.4837C48.3639 12.7124 48.7749 12.8267 49.2654 12.8267Z" fill="#37352F"/>
<path d="M-4 0H1944V343H-4V0Z" fill="#CCFFE2"/>
<path fill-rule="evenodd" clip-rule="evenodd" d="M1943.55 237.166V343H475.379C535.532 293.689 599.915 248.214 668.419 207.174C1082.63 -40.9782 1540.57 29.3675 1943.55 237.166Z" fill="#FFECEA"/>
<path fill-rule="evenodd" clip-rule="evenodd" d="M1373.87 169.08C1373.93 113.585 1408.92 58.5252 1467.21 46.2886C1518.96 35.4249 1554.8 83.747 1584.16 124.933C1611.76 163.654 1640.07 210.579 1611.16 248.223C1579.64 289.281 1518.29 294.69 1466.96 277.572C1415.17 260.296 1373.82 220.063 1373.87 169.08Z" fill="#0018A4"/>
<path fill-rule="evenodd" clip-rule="evenodd" d="M135.668 64.0355C166.613 63.0843 197.932 81.711 205.784 114.146C212.755 142.942 186.443 163.876 163.996 181.054C142.892 197.204 117.226 213.893 95.7253 198.369C72.2753 181.438 68.1762 147.165 76.8156 118.11C85.5343 88.7876 107.239 64.9093 135.668 64.0355Z" fill="white"/>
<rect x="-4" width="1944" height="100" fill="#0018A4"/>
<path d="M-2.01323 55.522L-4.63723 62H-5.29323L-12.3042 44.698L-15.3382 62H-15.9942L-12.7552 43.55L-16.4042 34.448L-21.2422 62H-21.8982L-16.8552 33.3H-16.1992L-12.5502 42.402L-10.9512 33.3H-10.2952L-2.01323 53.882L6.26877 33.3H6.92477L8.52377 42.361L12.1728 33.3H12.8288L17.8718 62H17.2158L12.3778 34.448L8.72877 43.509L11.9678 62H11.3118L8.27777 44.616L1.26677 62H0.610771L-2.01323 55.522ZM0.938771 61.18L8.07277 43.468L6.47377 34.448L-1.68523 54.702L0.938771 61.18ZM-2.34123 54.702L-10.5002 34.448L-12.0992 43.55L-4.96523 61.18L-2.34123 54.702ZM39.6104 40.27V62H38.9544V55.809C38.0524 58.146 36.2894 60.073 34.0344 61.18V62H33.3784V61.508C32.2304 61.959 31.0004 62.205 29.6884 62.205C24.2354 62.205 19.7664 57.736 19.7664 52.283V40.27H20.4224V52.283C20.4224 57.367 24.6044 61.549 29.6884 61.549C31.0004 61.549 32.2304 61.262 33.3784 60.77V54.579C32.5994 55.809 31.2464 56.629 29.6884 56.629C27.3104 56.629 25.3424 54.661 25.3424 52.283V40.27H25.9984V52.283C25.9984 54.292 27.6794 55.973 29.6884 55.973C31.6974 55.973 33.3784 54.292 33.3784 52.283V40.27H34.0344V60.442C36.9454 58.884 38.9544 55.809 38.9544 52.283V40.27H39.6104ZM42.8135 46.953C42.8135 42.976 46.0115 39.778 49.9885 39.778C52.9405 39.778 55.4825 41.582 56.5895 44.124L55.9745 44.411C54.9905 42.074 52.6535 40.434 49.9885 40.434C46.3805 40.434 43.4695 43.345 43.4695 46.953C43.4695 50.028 45.5605 52.57 48.4305 53.308L50.2345 53.759C50.9315 53.923 51.4235 54.579 51.4235 55.317C51.4235 56.219 50.7265 56.916 49.8245 56.916C49.1275 56.916 48.5535 56.506 48.3075 55.85L48.9225 55.604C49.0455 55.973 49.3735 56.26 49.8245 56.26C50.3575 56.26 50.7675 55.85 50.7675 55.317C50.7675 54.866 50.5215 54.497 50.0705 54.374L48.2255 53.923C45.1095 53.144 42.8135 50.315 42.8135 46.953ZM43.2235 58.187L43.8385 57.9C44.8225 60.237 47.1185 61.836 49.8245 61.836C53.4325 61.836 56.3435 58.925 56.3435 55.317C56.3435 52.242 54.2525 49.7 51.3825 48.962L49.5785 48.511C48.8405 48.306 48.3895 47.691 48.3895 46.953C48.3895 46.051 49.0865 45.354 49.9885 45.354C50.6855 45.354 51.2595 45.805 51.4645 46.42L50.8905 46.666C50.7675 46.297 50.3985 46.01 49.9885 46.01C49.4555 46.01 49.0455 46.42 49.0455 46.953C49.0455 47.404 49.2915 47.773 49.7425 47.896L51.5875 48.347C54.7445 49.126 56.9995 51.955 56.9995 55.317C56.9995 59.294 53.8015 62.492 49.8245 62.492C46.8725 62.492 44.3305 60.729 43.2235 58.187ZM60.2136 62V40.27H60.8696V62H60.2136ZM66.4456 40.27V62H65.7896V40.27H66.4456ZM65.7896 38.138V31.25H66.4456V38.138H65.7896ZM60.8696 31.25V38.138H60.2136V31.25H60.8696ZM81.4887 45.846V46.502H80.2997C77.7987 46.502 75.6667 48.634 75.6667 51.135C75.6667 53.636 77.7987 55.768 80.2997 55.768H81.4887V56.424H80.2997C77.4297 56.424 75.0107 54.005 75.0107 51.135C75.0107 48.265 77.4297 45.846 80.2997 45.846H81.4887ZM81.4887 40.926H80.2997C74.6827 40.926 70.0907 45.518 70.0907 51.135C70.0907 56.752 74.6827 61.344 80.2997 61.344H81.4887V62H80.2997C74.3137 62 69.4347 57.121 69.4347 51.135C69.4347 45.149 74.3137 40.27 80.2997 40.27H81.4887V40.926ZM106.891 62H106.235L100.331 46.871V62H99.6751V39.532H94.7551V62H94.0991V33.3H103.242C108.49 33.3 112.672 37.482 112.672 42.73C112.672 46.912 110.581 49.372 108.162 50.889L112.467 62H111.811L107.629 51.217C106.44 51.914 104.759 52.529 103.365 52.939L106.891 62ZM105.989 45.313L107.916 50.274C110.13 48.88 112.016 46.584 112.016 42.73C112.016 37.81 108.162 33.956 103.242 33.956H100.331V38.876H103.242C105.374 38.876 107.096 40.598 107.096 42.73C107.096 43.714 106.727 44.575 105.989 45.313ZM100.331 39.532V46.871L101.889 46.543C105.087 45.846 106.44 44.493 106.44 42.73C106.44 40.926 105.046 39.532 103.242 39.532H100.331ZM94.7551 33.956V38.876H99.6751V33.956H94.7551ZM107.383 50.602L105.497 45.764C104.267 46.707 102.832 47.035 101.233 47.363L103.119 52.283C104.349 51.955 106.358 51.217 107.383 50.602ZM114.157 51.135C114.157 44.862 119.241 39.778 125.514 39.778C130.516 39.778 134.739 42.976 136.256 47.486L122.931 55.563C123.71 56.014 124.571 56.26 125.514 56.26C127.564 56.26 129.327 55.03 130.147 53.308L130.762 53.595C129.86 55.563 127.851 56.916 125.514 56.916C124.325 56.916 123.218 56.547 122.316 55.932L117.888 58.638C119.815 60.606 122.521 61.836 125.514 61.836C129.778 61.836 133.509 59.294 135.231 55.645L135.805 55.932C134.001 59.827 130.065 62.492 125.514 62.492C119.241 62.492 114.157 57.408 114.157 51.135ZM114.813 51.135C114.813 52.324 115.018 53.431 115.346 54.497L119.774 51.791C119.733 51.586 119.733 51.34 119.733 51.135C119.733 47.937 122.316 45.354 125.514 45.354C126.703 45.354 127.851 45.723 128.753 46.338L133.14 43.673C131.213 41.664 128.507 40.434 125.514 40.434C119.61 40.434 114.813 45.231 114.813 51.135ZM115.592 55.112C116.043 56.219 116.658 57.244 117.437 58.146L121.742 55.522C120.84 54.743 120.184 53.677 119.897 52.488L115.592 55.112ZM120.389 51.135V51.422L128.138 46.707C127.359 46.256 126.457 46.01 125.514 46.01C122.685 46.01 120.389 48.306 120.389 51.135ZM120.471 52.16C120.717 53.349 121.414 54.415 122.357 55.153L130.557 50.151C130.311 48.962 129.655 47.896 128.712 47.117L120.471 52.16ZM129.327 46.789C130.229 47.568 130.885 48.593 131.131 49.823L135.477 47.158C135.026 46.051 134.37 45.067 133.632 44.165L129.327 46.789ZM138.906 31.25V62H138.25V31.25H138.906ZM144.482 31.25V62H143.826V31.25H144.482ZM147.43 51.135C147.43 44.862 152.514 39.778 158.787 39.778C163.789 39.778 168.012 42.976 169.529 47.486L156.204 55.563C156.983 56.014 157.844 56.26 158.787 56.26C160.837 56.26 162.6 55.03 163.42 53.308L164.035 53.595C163.133 55.563 161.124 56.916 158.787 56.916C157.598 56.916 156.491 56.547 155.589 55.932L151.161 58.638C153.088 60.606 155.794 61.836 158.787 61.836C163.051 61.836 166.782 59.294 168.504 55.645L169.078 55.932C167.274 59.827 163.338 62.492 158.787 62.492C152.514 62.492 147.43 57.408 147.43 51.135ZM148.086 51.135C148.086 52.324 148.291 53.431 148.619 54.497L153.047 51.791C153.006 51.586 153.006 51.34 153.006 51.135C153.006 47.937 155.589 45.354 158.787 45.354C159.976 45.354 161.124 45.723 162.026 46.338L166.413 43.673C164.486 41.664 161.78 40.434 158.787 40.434C152.883 40.434 148.086 45.231 148.086 51.135ZM148.865 55.112C149.316 56.219 149.931 57.244 150.71 58.146L155.015 55.522C154.113 54.743 153.457 53.677 153.17 52.488L148.865 55.112ZM153.662 51.135V51.422L161.411 46.707C160.632 46.256 159.73 46.01 158.787 46.01C155.958 46.01 153.662 48.306 153.662 51.135ZM153.744 52.16C153.99 53.349 154.687 54.415 155.63 55.153L163.83 50.151C163.584 48.962 162.928 47.896 161.985 47.117L153.744 52.16ZM162.6 46.789C163.502 47.568 164.158 48.593 164.404 49.823L168.75 47.158C168.299 46.051 167.643 45.067 166.905 44.165L162.6 46.789ZM187.43 42.115V60.155C190.177 58.474 192.35 55.071 192.35 51.135C192.35 47.199 190.177 43.796 187.43 42.115ZM181.649 39.778C183.494 39.778 185.216 40.229 186.774 41.008V40.27H187.43V41.377C189.726 42.648 191.489 44.944 192.35 47.322V40.27H193.006V62H192.35V54.907C191.53 57.244 189.726 59.663 187.43 60.934V62H186.774V61.262C185.216 62.041 183.494 62.492 181.649 62.492C175.376 62.492 170.292 57.408 170.292 51.135C170.292 44.862 175.376 39.778 181.649 39.778ZM181.649 61.836C183.494 61.836 185.257 61.385 186.774 60.565V53.841C185.79 55.645 183.863 56.916 181.649 56.916C178.451 56.916 175.868 54.333 175.868 51.135C175.868 47.937 178.451 45.354 181.649 45.354C183.863 45.354 185.79 46.625 186.774 48.47V41.746C185.257 40.926 183.494 40.434 181.649 40.434C175.745 40.434 170.948 45.231 170.948 51.135C170.948 57.039 175.745 61.836 181.649 61.836ZM181.649 56.26C184.519 56.26 186.774 53.964 186.774 51.135C186.774 48.306 184.519 46.01 181.649 46.01C178.82 46.01 176.524 48.306 176.524 51.135C176.524 53.964 178.82 56.26 181.649 56.26ZM196.203 46.953C196.203 42.976 199.401 39.778 203.378 39.778C206.33 39.778 208.872 41.582 209.979 44.124L209.364 44.411C208.38 42.074 206.043 40.434 203.378 40.434C199.77 40.434 196.859 43.345 196.859 46.953C196.859 50.028 198.95 52.57 201.82 53.308L203.624 53.759C204.321 53.923 204.813 54.579 204.813 55.317C204.813 56.219 204.116 56.916 203.214 56.916C202.517 56.916 201.943 56.506 201.697 55.85L202.312 55.604C202.435 55.973 202.763 56.26 203.214 56.26C203.747 56.26 204.157 55.85 204.157 55.317C204.157 54.866 203.911 54.497 203.46 54.374L201.615 53.923C198.499 53.144 196.203 50.315 196.203 46.953ZM196.613 58.187L197.228 57.9C198.212 60.237 200.508 61.836 203.214 61.836C206.822 61.836 209.733 58.925 209.733 55.317C209.733 52.242 207.642 49.7 204.772 48.962L202.968 48.511C202.23 48.306 201.779 47.691 201.779 46.953C201.779 46.051 202.476 45.354 203.378 45.354C204.075 45.354 204.649 45.805 204.854 46.42L204.28 46.666C204.157 46.297 203.788 46.01 203.378 46.01C202.845 46.01 202.435 46.42 202.435 46.953C202.435 47.404 202.681 47.773 203.132 47.896L204.977 48.347C208.134 49.126 210.389 51.955 210.389 55.317C210.389 59.294 207.191 62.492 203.214 62.492C200.262 62.492 197.72 60.729 196.613 58.187ZM212.373 51.135C212.373 44.862 217.457 39.778 223.73 39.778C228.732 39.778 232.955 42.976 234.472 47.486L221.147 55.563C221.926 56.014 222.787 56.26 223.73 56.26C225.78 56.26 227.543 55.03 228.363 53.308L228.978 53.595C228.076 55.563 226.067 56.916 223.73 56.916C222.541 56.916 221.434 56.547 220.532 55.932L216.104 58.638C218.031 60.606 220.737 61.836 223.73 61.836C227.994 61.836 231.725 59.294 233.447 55.645L234.021 55.932C232.217 59.827 228.281 62.492 223.73 62.492C217.457 62.492 212.373 57.408 212.373 51.135ZM213.029 51.135C213.029 52.324 213.234 53.431 213.562 54.497L217.99 51.791C217.949 51.586 217.949 51.34 217.949 51.135C217.949 47.937 220.532 45.354 223.73 45.354C224.919 45.354 226.067 45.723 226.969 46.338L231.356 43.673C229.429 41.664 226.723 40.434 223.73 40.434C217.826 40.434 213.029 45.231 213.029 51.135ZM213.808 55.112C214.259 56.219 214.874 57.244 215.653 58.146L219.958 55.522C219.056 54.743 218.4 53.677 218.113 52.488L213.808 55.112ZM218.605 51.135V51.422L226.354 46.707C225.575 46.256 224.673 46.01 223.73 46.01C220.901 46.01 218.605 48.306 218.605 51.135ZM218.687 52.16C218.933 53.349 219.63 54.415 220.573 55.153L228.773 50.151C228.527 48.962 227.871 47.896 226.928 47.117L218.687 52.16ZM227.543 46.789C228.445 47.568 229.101 48.593 229.347 49.823L233.693 47.158C233.242 46.051 232.586 45.067 231.848 44.165L227.543 46.789ZM235.482 46.953C235.482 42.976 238.68 39.778 242.657 39.778C245.609 39.778 248.151 41.582 249.258 44.124L248.643 44.411C247.659 42.074 245.322 40.434 242.657 40.434C239.049 40.434 236.138 43.345 236.138 46.953C236.138 50.028 238.229 52.57 241.099 53.308L242.903 53.759C243.6 53.923 244.092 54.579 244.092 55.317C244.092 56.219 243.395 56.916 242.493 56.916C241.796 56.916 241.222 56.506 240.976 55.85L241.591 55.604C241.714 55.973 242.042 56.26 242.493 56.26C243.026 56.26 243.436 55.85 243.436 55.317C243.436 54.866 243.19 54.497 242.739 54.374L240.894 53.923C237.778 53.144 235.482 50.315 235.482 46.953ZM235.892 58.187L236.507 57.9C237.491 60.237 239.787 61.836 242.493 61.836C246.101 61.836 249.012 58.925 249.012 55.317C249.012 52.242 246.921 49.7 244.051 48.962L242.247 48.511C241.509 48.306 241.058 47.691 241.058 46.953C241.058 46.051 241.755 45.354 242.657 45.354C243.354 45.354 243.928 45.805 244.133 46.42L243.559 46.666C243.436 46.297 243.067 46.01 242.657 46.01C242.124 46.01 241.714 46.42 241.714 46.953C241.714 47.404 241.96 47.773 242.411 47.896L244.256 48.347C247.413 49.126 249.668 51.955 249.668 55.317C249.668 59.294 246.47 62.492 242.493 62.492C239.541 62.492 236.999 60.729 235.892 58.187ZM280.022 55.522L277.398 62H276.742L269.731 44.698L266.697 62H266.041L269.28 43.55L265.631 34.448L260.793 62H260.137L265.18 33.3H265.836L269.485 42.402L271.084 33.3H271.74L280.022 53.882L288.304 33.3H288.96L290.559 42.361L294.208 33.3H294.864L299.907 62H299.251L294.413 34.448L290.764 43.509L294.003 62H293.347L290.313 44.616L283.302 62H282.646L280.022 55.522ZM282.974 61.18L290.108 43.468L288.509 34.448L280.35 54.702L282.974 61.18ZM279.694 54.702L271.535 34.448L269.936 43.55L277.07 61.18L279.694 54.702ZM321.646 40.27V62H320.99V55.809C320.088 58.146 318.325 60.073 316.07 61.18V62H315.414V61.508C314.266 61.959 313.036 62.205 311.724 62.205C306.271 62.205 301.802 57.736 301.802 52.283V40.27H302.458V52.283C302.458 57.367 306.64 61.549 311.724 61.549C313.036 61.549 314.266 61.262 315.414 60.77V54.579C314.635 55.809 313.282 56.629 311.724 56.629C309.346 56.629 307.378 54.661 307.378 52.283V40.27H308.034V52.283C308.034 54.292 309.715 55.973 311.724 55.973C313.733 55.973 315.414 54.292 315.414 52.283V40.27H316.07V60.442C318.981 58.884 320.99 55.809 320.99 52.283V40.27H321.646ZM324.849 46.953C324.849 42.976 328.047 39.778 332.024 39.778C334.976 39.778 337.518 41.582 338.625 44.124L338.01 44.411C337.026 42.074 334.689 40.434 332.024 40.434C328.416 40.434 325.505 43.345 325.505 46.953C325.505 50.028 327.596 52.57 330.466 53.308L332.27 53.759C332.967 53.923 333.459 54.579 333.459 55.317C333.459 56.219 332.762 56.916 331.86 56.916C331.163 56.916 330.589 56.506 330.343 55.85L330.958 55.604C331.081 55.973 331.409 56.26 331.86 56.26C332.393 56.26 332.803 55.85 332.803 55.317C332.803 54.866 332.557 54.497 332.106 54.374L330.261 53.923C327.145 53.144 324.849 50.315 324.849 46.953ZM325.259 58.187L325.874 57.9C326.858 60.237 329.154 61.836 331.86 61.836C335.468 61.836 338.379 58.925 338.379 55.317C338.379 52.242 336.288 49.7 333.418 48.962L331.614 48.511C330.876 48.306 330.425 47.691 330.425 46.953C330.425 46.051 331.122 45.354 332.024 45.354C332.721 45.354 333.295 45.805 333.5 46.42L332.926 46.666C332.803 46.297 332.434 46.01 332.024 46.01C331.491 46.01 331.081 46.42 331.081 46.953C331.081 47.404 331.327 47.773 331.778 47.896L333.623 48.347C336.78 49.126 339.035 51.955 339.035 55.317C339.035 59.294 335.837 62.492 331.86 62.492C328.908 62.492 326.366 60.729 325.259 58.187ZM342.249 62V40.27H342.905V62H342.249ZM348.481 40.27V62H347.825V40.27H348.481ZM347.825 38.138V31.25H348.481V38.138H347.825ZM342.905 31.25V38.138H342.249V31.25H342.905ZM363.524 45.846V46.502H362.335C359.834 46.502 357.702 48.634 357.702 51.135C357.702 53.636 359.834 55.768 362.335 55.768H363.524V56.424H362.335C359.465 56.424 357.046 54.005 357.046 51.135C357.046 48.265 359.465 45.846 362.335 45.846H363.524ZM363.524 40.926H362.335C356.718 40.926 352.126 45.518 352.126 51.135C352.126 56.752 356.718 61.344 362.335 61.344H363.524V62H362.335C356.349 62 351.47 57.121 351.47 51.135C351.47 45.149 356.349 40.27 362.335 40.27H363.524V40.926ZM388.926 62H388.27L382.366 46.871V62H381.71V39.532H376.79V62H376.134V33.3H385.277C390.525 33.3 394.707 37.482 394.707 42.73C394.707 46.912 392.616 49.372 390.197 50.889L394.502 62H393.846L389.664 51.217C388.475 51.914 386.794 52.529 385.4 52.939L388.926 62ZM388.024 45.313L389.951 50.274C392.165 48.88 394.051 46.584 394.051 42.73C394.051 37.81 390.197 33.956 385.277 33.956H382.366V38.876H385.277C387.409 38.876 389.131 40.598 389.131 42.73C389.131 43.714 388.762 44.575 388.024 45.313ZM382.366 39.532V46.871L383.924 46.543C387.122 45.846 388.475 44.493 388.475 42.73C388.475 40.926 387.081 39.532 385.277 39.532H382.366ZM376.79 33.956V38.876H381.71V33.956H376.79ZM389.418 50.602L387.532 45.764C386.302 46.707 384.867 47.035 383.268 47.363L385.154 52.283C386.384 51.955 388.393 51.217 389.418 50.602ZM396.193 51.135C396.193 44.862 401.277 39.778 407.55 39.778C412.552 39.778 416.775 42.976 418.292 47.486L404.967 55.563C405.746 56.014 406.607 56.26 407.55 56.26C409.6 56.26 411.363 55.03 412.183 53.308L412.798 53.595C411.896 55.563 409.887 56.916 407.55 56.916C406.361 56.916 405.254 56.547 404.352 55.932L399.924 58.638C401.851 60.606 404.557 61.836 407.55 61.836C411.814 61.836 415.545 59.294 417.267 55.645L417.841 55.932C416.037 59.827 412.101 62.492 407.55 62.492C401.277 62.492 396.193 57.408 396.193 51.135ZM396.849 51.135C396.849 52.324 397.054 53.431 397.382 54.497L401.81 51.791C401.769 51.586 401.769 51.34 401.769 51.135C401.769 47.937 404.352 45.354 407.55 45.354C408.739 45.354 409.887 45.723 410.789 46.338L415.176 43.673C413.249 41.664 410.543 40.434 407.55 40.434C401.646 40.434 396.849 45.231 396.849 51.135ZM397.628 55.112C398.079 56.219 398.694 57.244 399.473 58.146L403.778 55.522C402.876 54.743 402.22 53.677 401.933 52.488L397.628 55.112ZM402.425 51.135V51.422L410.174 46.707C409.395 46.256 408.493 46.01 407.55 46.01C404.721 46.01 402.425 48.306 402.425 51.135ZM402.507 52.16C402.753 53.349 403.45 54.415 404.393 55.153L412.593 50.151C412.347 48.962 411.691 47.896 410.748 47.117L402.507 52.16ZM411.363 46.789C412.265 47.568 412.921 48.593 413.167 49.823L417.513 47.158C417.062 46.051 416.406 45.067 415.668 44.165L411.363 46.789ZM420.941 31.25V62H420.285V31.25H420.941ZM426.517 31.25V62H425.861V31.25H426.517ZM429.465 51.135C429.465 44.862 434.549 39.778 440.822 39.778C445.824 39.778 450.047 42.976 451.564 47.486L438.239 55.563C439.018 56.014 439.879 56.26 440.822 56.26C442.872 56.26 444.635 55.03 445.455 53.308L446.07 53.595C445.168 55.563 443.159 56.916 440.822 56.916C439.633 56.916 438.526 56.547 437.624 55.932L433.196 58.638C435.123 60.606 437.829 61.836 440.822 61.836C445.086 61.836 448.817 59.294 450.539 55.645L451.113 55.932C449.309 59.827 445.373 62.492 440.822 62.492C434.549 62.492 429.465 57.408 429.465 51.135ZM430.121 51.135C430.121 52.324 430.326 53.431 430.654 54.497L435.082 51.791C435.041 51.586 435.041 51.34 435.041 51.135C435.041 47.937 437.624 45.354 440.822 45.354C442.011 45.354 443.159 45.723 444.061 46.338L448.448 43.673C446.521 41.664 443.815 40.434 440.822 40.434C434.918 40.434 430.121 45.231 430.121 51.135ZM430.9 55.112C431.351 56.219 431.966 57.244 432.745 58.146L437.05 55.522C436.148 54.743 435.492 53.677 435.205 52.488L430.9 55.112ZM435.697 51.135V51.422L443.446 46.707C442.667 46.256 441.765 46.01 440.822 46.01C437.993 46.01 435.697 48.306 435.697 51.135ZM435.779 52.16C436.025 53.349 436.722 54.415 437.665 55.153L445.865 50.151C445.619 48.962 444.963 47.896 444.02 47.117L435.779 52.16ZM444.635 46.789C445.537 47.568 446.193 48.593 446.439 49.823L450.785 47.158C450.334 46.051 449.678 45.067 448.94 44.165L444.635 46.789ZM469.465 42.115V60.155C472.212 58.474 474.385 55.071 474.385 51.135C474.385 47.199 472.212 43.796 469.465 42.115ZM463.684 39.778C465.529 39.778 467.251 40.229 468.809 41.008V40.27H469.465V41.377C471.761 42.648 473.524 44.944 474.385 47.322V40.27H475.041V62H474.385V54.907C473.565 57.244 471.761 59.663 469.465 60.934V62H468.809V61.262C467.251 62.041 465.529 62.492 463.684 62.492C457.411 62.492 452.327 57.408 452.327 51.135C452.327 44.862 457.411 39.778 463.684 39.778ZM463.684 61.836C465.529 61.836 467.292 61.385 468.809 60.565V53.841C467.825 55.645 465.898 56.916 463.684 56.916C460.486 56.916 457.903 54.333 457.903 51.135C457.903 47.937 460.486 45.354 463.684 45.354C465.898 45.354 467.825 46.625 468.809 48.47V41.746C467.292 40.926 465.529 40.434 463.684 40.434C457.78 40.434 452.983 45.231 452.983 51.135C452.983 57.039 457.78 61.836 463.684 61.836ZM463.684 56.26C466.554 56.26 468.809 53.964 468.809 51.135C468.809 48.306 466.554 46.01 463.684 46.01C460.855 46.01 458.559 48.306 458.559 51.135C458.559 53.964 460.855 56.26 463.684 56.26ZM478.238 46.953C478.238 42.976 481.436 39.778 485.413 39.778C488.365 39.778 490.907 41.582 492.014 44.124L491.399 44.411C490.415 42.074 488.078 40.434 485.413 40.434C481.805 40.434 478.894 43.345 478.894 46.953C478.894 50.028 480.985 52.57 483.855 53.308L485.659 53.759C486.356 53.923 486.848 54.579 486.848 55.317C486.848 56.219 486.151 56.916 485.249 56.916C484.552 56.916 483.978 56.506 483.732 55.85L484.347 55.604C484.47 55.973 484.798 56.26 485.249 56.26C485.782 56.26 486.192 55.85 486.192 55.317C486.192 54.866 485.946 54.497 485.495 54.374L483.65 53.923C480.534 53.144 478.238 50.315 478.238 46.953ZM478.648 58.187L479.263 57.9C480.247 60.237 482.543 61.836 485.249 61.836C488.857 61.836 491.768 58.925 491.768 55.317C491.768 52.242 489.677 49.7 486.807 48.962L485.003 48.511C484.265 48.306 483.814 47.691 483.814 46.953C483.814 46.051 484.511 45.354 485.413 45.354C486.11 45.354 486.684 45.805 486.889 46.42L486.315 46.666C486.192 46.297 485.823 46.01 485.413 46.01C484.88 46.01 484.47 46.42 484.47 46.953C484.47 47.404 484.716 47.773 485.167 47.896L487.012 48.347C490.169 49.126 492.424 51.955 492.424 55.317C492.424 59.294 489.226 62.492 485.249 62.492C482.297 62.492 479.755 60.729 478.648 58.187ZM494.408 51.135C494.408 44.862 499.492 39.778 505.765 39.778C510.767 39.778 514.99 42.976 516.507 47.486L503.182 55.563C503.961 56.014 504.822 56.26 505.765 56.26C507.815 56.26 509.578 55.03 510.398 53.308L511.013 53.595C510.111 55.563 508.102 56.916 505.765 56.916C504.576 56.916 503.469 56.547 502.567 55.932L498.139 58.638C500.066 60.606 502.772 61.836 505.765 61.836C510.029 61.836 513.76 59.294 515.482 55.645L516.056 55.932C514.252 59.827 510.316 62.492 505.765 62.492C499.492 62.492 494.408 57.408 494.408 51.135ZM495.064 51.135C495.064 52.324 495.269 53.431 495.597 54.497L500.025 51.791C499.984 51.586 499.984 51.34 499.984 51.135C499.984 47.937 502.567 45.354 505.765 45.354C506.954 45.354 508.102 45.723 509.004 46.338L513.391 43.673C511.464 41.664 508.758 40.434 505.765 40.434C499.861 40.434 495.064 45.231 495.064 51.135ZM495.843 55.112C496.294 56.219 496.909 57.244 497.688 58.146L501.993 55.522C501.091 54.743 500.435 53.677 500.148 52.488L495.843 55.112ZM500.64 51.135V51.422L508.389 46.707C507.61 46.256 506.708 46.01 505.765 46.01C502.936 46.01 500.64 48.306 500.64 51.135ZM500.722 52.16C500.968 53.349 501.665 54.415 502.608 55.153L510.808 50.151C510.562 48.962 509.906 47.896 508.963 47.117L500.722 52.16ZM509.578 46.789C510.48 47.568 511.136 48.593 511.382 49.823L515.728 47.158C515.277 46.051 514.621 45.067 513.883 44.165L509.578 46.789ZM517.517 46.953C517.517 42.976 520.715 39.778 524.692 39.778C527.644 39.778 530.186 41.582 531.293 44.124L530.678 44.411C529.694 42.074 527.357 40.434 524.692 40.434C521.084 40.434 518.173 43.345 518.173 46.953C518.173 50.028 520.264 52.57 523.134 53.308L524.938 53.759C525.635 53.923 526.127 54.579 526.127 55.317C526.127 56.219 525.43 56.916 524.528 56.916C523.831 56.916 523.257 56.506 523.011 55.85L523.626 55.604C523.749 55.973 524.077 56.26 524.528 56.26C525.061 56.26 525.471 55.85 525.471 55.317C525.471 54.866 525.225 54.497 524.774 54.374L522.929 53.923C519.813 53.144 517.517 50.315 517.517 46.953ZM517.927 58.187L518.542 57.9C519.526 60.237 521.822 61.836 524.528 61.836C528.136 61.836 531.047 58.925 531.047 55.317C531.047 52.242 528.956 49.7 526.086 48.962L524.282 48.511C523.544 48.306 523.093 47.691 523.093 46.953C523.093 46.051 523.79 45.354 524.692 45.354C525.389 45.354 525.963 45.805 526.168 46.42L525.594 46.666C525.471 46.297 525.102 46.01 524.692 46.01C524.159 46.01 523.749 46.42 523.749 46.953C523.749 47.404 523.995 47.773 524.446 47.896L526.291 48.347C529.448 49.126 531.703 51.955 531.703 55.317C531.703 59.294 528.505 62.492 524.528 62.492C521.576 62.492 519.034 60.729 517.927 58.187ZM562.057 55.522L559.433 62H558.777L551.766 44.698L548.732 62H548.076L551.315 43.55L547.666 34.448L542.828 62H542.172L547.215 33.3H547.871L551.52 42.402L553.119 33.3H553.775L562.057 53.882L570.339 33.3H570.995L572.594 42.361L576.243 33.3H576.899L581.942 62H581.286L576.448 34.448L572.799 43.509L576.038 62H575.382L572.348 44.616L565.337 62H564.681L562.057 55.522ZM565.009 61.18L572.143 43.468L570.544 34.448L562.385 54.702L565.009 61.18ZM561.729 54.702L553.57 34.448L551.971 43.55L559.105 61.18L561.729 54.702ZM603.681 40.27V62H603.025V55.809C602.123 58.146 600.36 60.073 598.105 61.18V62H597.449V61.508C596.301 61.959 595.071 62.205 593.759 62.205C588.306 62.205 583.837 57.736 583.837 52.283V40.27H584.493V52.283C584.493 57.367 588.675 61.549 593.759 61.549C595.071 61.549 596.301 61.262 597.449 60.77V54.579C596.67 55.809 595.317 56.629 593.759 56.629C591.381 56.629 589.413 54.661 589.413 52.283V40.27H590.069V52.283C590.069 54.292 591.75 55.973 593.759 55.973C595.768 55.973 597.449 54.292 597.449 52.283V40.27H598.105V60.442C601.016 58.884 603.025 55.809 603.025 52.283V40.27H603.681ZM606.884 46.953C606.884 42.976 610.082 39.778 614.059 39.778C617.011 39.778 619.553 41.582 620.66 44.124L620.045 44.411C619.061 42.074 616.724 40.434 614.059 40.434C610.451 40.434 607.54 43.345 607.54 46.953C607.54 50.028 609.631 52.57 612.501 53.308L614.305 53.759C615.002 53.923 615.494 54.579 615.494 55.317C615.494 56.219 614.797 56.916 613.895 56.916C613.198 56.916 612.624 56.506 612.378 55.85L612.993 55.604C613.116 55.973 613.444 56.26 613.895 56.26C614.428 56.26 614.838 55.85 614.838 55.317C614.838 54.866 614.592 54.497 614.141 54.374L612.296 53.923C609.18 53.144 606.884 50.315 606.884 46.953ZM607.294 58.187L607.909 57.9C608.893 60.237 611.189 61.836 613.895 61.836C617.503 61.836 620.414 58.925 620.414 55.317C620.414 52.242 618.323 49.7 615.453 48.962L613.649 48.511C612.911 48.306 612.46 47.691 612.46 46.953C612.46 46.051 613.157 45.354 614.059 45.354C614.756 45.354 615.33 45.805 615.535 46.42L614.961 46.666C614.838 46.297 614.469 46.01 614.059 46.01C613.526 46.01 613.116 46.42 613.116 46.953C613.116 47.404 613.362 47.773 613.813 47.896L615.658 48.347C618.815 49.126 621.07 51.955 621.07 55.317C621.07 59.294 617.872 62.492 613.895 62.492C610.943 62.492 608.401 60.729 607.294 58.187ZM624.284 62V40.27H624.94V62H624.284ZM630.516 40.27V62H629.86V40.27H630.516ZM629.86 38.138V31.25H630.516V38.138H629.86ZM624.94 31.25V38.138H624.284V31.25H624.94ZM645.559 45.846V46.502H644.37C641.869 46.502 639.737 48.634 639.737 51.135C639.737 53.636 641.869 55.768 644.37 55.768H645.559V56.424H644.37C641.5 56.424 639.081 54.005 639.081 51.135C639.081 48.265 641.5 45.846 644.37 45.846H645.559ZM645.559 40.926H644.37C638.753 40.926 634.161 45.518 634.161 51.135C634.161 56.752 638.753 61.344 644.37 61.344H645.559V62H644.37C638.384 62 633.505 57.121 633.505 51.135C633.505 45.149 638.384 40.27 644.37 40.27H645.559V40.926ZM670.961 62H670.305L664.401 46.871V62H663.745V39.532H658.825V62H658.169V33.3H667.312C672.56 33.3 676.742 37.482 676.742 42.73C676.742 46.912 674.651 49.372 672.232 50.889L676.537 62H675.881L671.699 51.217C670.51 51.914 668.829 52.529 667.435 52.939L670.961 62ZM670.059 45.313L671.986 50.274C674.2 48.88 676.086 46.584 676.086 42.73C676.086 37.81 672.232 33.956 667.312 33.956H664.401V38.876H667.312C669.444 38.876 671.166 40.598 671.166 42.73C671.166 43.714 670.797 44.575 670.059 45.313ZM664.401 39.532V46.871L665.959 46.543C669.157 45.846 670.51 44.493 670.51 42.73C670.51 40.926 669.116 39.532 667.312 39.532H664.401ZM658.825 33.956V38.876H663.745V33.956H658.825ZM671.453 50.602L669.567 45.764C668.337 46.707 666.902 47.035 665.303 47.363L667.189 52.283C668.419 51.955 670.428 51.217 671.453 50.602ZM678.228 51.135C678.228 44.862 683.312 39.778 689.585 39.778C694.587 39.778 698.81 42.976 700.327 47.486L687.002 55.563C687.781 56.014 688.642 56.26 689.585 56.26C691.635 56.26 693.398 55.03 694.218 53.308L694.833 53.595C693.931 55.563 691.922 56.916 689.585 56.916C688.396 56.916 687.289 56.547 686.387 55.932L681.959 58.638C683.886 60.606 686.592 61.836 689.585 61.836C693.849 61.836 697.58 59.294 699.302 55.645L699.876 55.932C698.072 59.827 694.136 62.492 689.585 62.492C683.312 62.492 678.228 57.408 678.228 51.135ZM678.884 51.135C678.884 52.324 679.089 53.431 679.417 54.497L683.845 51.791C683.804 51.586 683.804 51.34 683.804 51.135C683.804 47.937 686.387 45.354 689.585 45.354C690.774 45.354 691.922 45.723 692.824 46.338L697.211 43.673C695.284 41.664 692.578 40.434 689.585 40.434C683.681 40.434 678.884 45.231 678.884 51.135ZM679.663 55.112C680.114 56.219 680.729 57.244 681.508 58.146L685.813 55.522C684.911 54.743 684.255 53.677 683.968 52.488L679.663 55.112ZM684.46 51.135V51.422L692.209 46.707C691.43 46.256 690.528 46.01 689.585 46.01C686.756 46.01 684.46 48.306 684.46 51.135ZM684.542 52.16C684.788 53.349 685.485 54.415 686.428 55.153L694.628 50.151C694.382 48.962 693.726 47.896 692.783 47.117L684.542 52.16ZM693.398 46.789C694.3 47.568 694.956 48.593 695.202 49.823L699.548 47.158C699.097 46.051 698.441 45.067 697.703 44.165L693.398 46.789ZM702.976 31.25V62H702.32V31.25H702.976ZM708.552 31.25V62H707.896V31.25H708.552ZM711.5 51.135C711.5 44.862 716.584 39.778 722.857 39.778C727.859 39.778 732.082 42.976 733.599 47.486L720.274 55.563C721.053 56.014 721.914 56.26 722.857 56.26C724.907 56.26 726.67 55.03 727.49 53.308L728.105 53.595C727.203 55.563 725.194 56.916 722.857 56.916C721.668 56.916 720.561 56.547 719.659 55.932L715.231 58.638C717.158 60.606 719.864 61.836 722.857 61.836C727.121 61.836 730.852 59.294 732.574 55.645L733.148 55.932C731.344 59.827 727.408 62.492 722.857 62.492C716.584 62.492 711.5 57.408 711.5 51.135ZM712.156 51.135C712.156 52.324 712.361 53.431 712.689 54.497L717.117 51.791C717.076 51.586 717.076 51.34 717.076 51.135C717.076 47.937 719.659 45.354 722.857 45.354C724.046 45.354 725.194 45.723 726.096 46.338L730.483 43.673C728.556 41.664 725.85 40.434 722.857 40.434C716.953 40.434 712.156 45.231 712.156 51.135ZM712.935 55.112C713.386 56.219 714.001 57.244 714.78 58.146L719.085 55.522C718.183 54.743 717.527 53.677 717.24 52.488L712.935 55.112ZM717.732 51.135V51.422L725.481 46.707C724.702 46.256 723.8 46.01 722.857 46.01C720.028 46.01 717.732 48.306 717.732 51.135ZM717.814 52.16C718.06 53.349 718.757 54.415 719.7 55.153L727.9 50.151C727.654 48.962 726.998 47.896 726.055 47.117L717.814 52.16ZM726.67 46.789C727.572 47.568 728.228 48.593 728.474 49.823L732.82 47.158C732.369 46.051 731.713 45.067 730.975 44.165L726.67 46.789ZM751.5 42.115V60.155C754.247 58.474 756.42 55.071 756.42 51.135C756.42 47.199 754.247 43.796 751.5 42.115ZM745.719 39.778C747.564 39.778 749.286 40.229 750.844 41.008V40.27H751.5V41.377C753.796 42.648 755.559 44.944 756.42 47.322V40.27H757.076V62H756.42V54.907C755.6 57.244 753.796 59.663 751.5 60.934V62H750.844V61.262C749.286 62.041 747.564 62.492 745.719 62.492C739.446 62.492 734.362 57.408 734.362 51.135C734.362 44.862 739.446 39.778 745.719 39.778ZM745.719 61.836C747.564 61.836 749.327 61.385 750.844 60.565V53.841C749.86 55.645 747.933 56.916 745.719 56.916C742.521 56.916 739.938 54.333 739.938 51.135C739.938 47.937 742.521 45.354 745.719 45.354C747.933 45.354 749.86 46.625 750.844 48.47V41.746C749.327 40.926 747.564 40.434 745.719 40.434C739.815 40.434 735.018 45.231 735.018 51.135C735.018 57.039 739.815 61.836 745.719 61.836ZM745.719 56.26C748.589 56.26 750.844 53.964 750.844 51.135C750.844 48.306 748.589 46.01 745.719 46.01C742.89 46.01 740.594 48.306 740.594 51.135C740.594 53.964 742.89 56.26 745.719 56.26ZM760.274 46.953C760.274 42.976 763.472 39.778 767.449 39.778C770.401 39.778 772.943 41.582 774.05 44.124L773.435 44.411C772.451 42.074 770.114 40.434 767.449 40.434C763.841 40.434 760.93 43.345 760.93 46.953C760.93 50.028 763.021 52.57 765.891 53.308L767.695 53.759C768.392 53.923 768.884 54.579 768.884 55.317C768.884 56.219 768.187 56.916 767.285 56.916C766.588 56.916 766.014 56.506 765.768 55.85L766.383 55.604C766.506 55.973 766.834 56.26 767.285 56.26C767.818 56.26 768.228 55.85 768.228 55.317C768.228 54.866 767.982 54.497 767.531 54.374L765.686 53.923C762.57 53.144 760.274 50.315 760.274 46.953ZM760.684 58.187L761.299 57.9C762.283 60.237 764.579 61.836 767.285 61.836C770.893 61.836 773.804 58.925 773.804 55.317C773.804 52.242 771.713 49.7 768.843 48.962L767.039 48.511C766.301 48.306 765.85 47.691 765.85 46.953C765.85 46.051 766.547 45.354 767.449 45.354C768.146 45.354 768.72 45.805 768.925 46.42L768.351 46.666C768.228 46.297 767.859 46.01 767.449 46.01C766.916 46.01 766.506 46.42 766.506 46.953C766.506 47.404 766.752 47.773 767.203 47.896L769.048 48.347C772.205 49.126 774.46 51.955 774.46 55.317C774.46 59.294 771.262 62.492 767.285 62.492C764.333 62.492 761.791 60.729 760.684 58.187ZM776.444 51.135C776.444 44.862 781.528 39.778 787.801 39.778C792.803 39.778 797.026 42.976 798.543 47.486L785.218 55.563C785.997 56.014 786.858 56.26 787.801 56.26C789.851 56.26 791.614 55.03 792.434 53.308L793.049 53.595C792.147 55.563 790.138 56.916 787.801 56.916C786.612 56.916 785.505 56.547 784.603 55.932L780.175 58.638C782.102 60.606 784.808 61.836 787.801 61.836C792.065 61.836 795.796 59.294 797.518 55.645L798.092 55.932C796.288 59.827 792.352 62.492 787.801 62.492C781.528 62.492 776.444 57.408 776.444 51.135ZM777.1 51.135C777.1 52.324 777.305 53.431 777.633 54.497L782.061 51.791C782.02 51.586 782.02 51.34 782.02 51.135C782.02 47.937 784.603 45.354 787.801 45.354C788.99 45.354 790.138 45.723 791.04 46.338L795.427 43.673C793.5 41.664 790.794 40.434 787.801 40.434C781.897 40.434 777.1 45.231 777.1 51.135ZM777.879 55.112C778.33 56.219 778.945 57.244 779.724 58.146L784.029 55.522C783.127 54.743 782.471 53.677 782.184 52.488L777.879 55.112ZM782.676 51.135V51.422L790.425 46.707C789.646 46.256 788.744 46.01 787.801 46.01C784.972 46.01 782.676 48.306 782.676 51.135ZM782.758 52.16C783.004 53.349 783.701 54.415 784.644 55.153L792.844 50.151C792.598 48.962 791.942 47.896 790.999 47.117L782.758 52.16ZM791.614 46.789C792.516 47.568 793.172 48.593 793.418 49.823L797.764 47.158C797.313 46.051 796.657 45.067 795.919 44.165L791.614 46.789ZM799.552 46.953C799.552 42.976 802.75 39.778 806.727 39.778C809.679 39.778 812.221 41.582 813.328 44.124L812.713 44.411C811.729 42.074 809.392 40.434 806.727 40.434C803.119 40.434 800.208 43.345 800.208 46.953C800.208 50.028 802.299 52.57 805.169 53.308L806.973 53.759C807.67 53.923 808.162 54.579 808.162 55.317C808.162 56.219 807.465 56.916 806.563 56.916C805.866 56.916 805.292 56.506 805.046 55.85L805.661 55.604C805.784 55.973 806.112 56.26 806.563 56.26C807.096 56.26 807.506 55.85 807.506 55.317C807.506 54.866 807.26 54.497 806.809 54.374L804.964 53.923C801.848 53.144 799.552 50.315 799.552 46.953ZM799.962 58.187L800.577 57.9C801.561 60.237 803.857 61.836 806.563 61.836C810.171 61.836 813.082 58.925 813.082 55.317C813.082 52.242 810.991 49.7 808.121 48.962L806.317 48.511C805.579 48.306 805.128 47.691 805.128 46.953C805.128 46.051 805.825 45.354 806.727 45.354C807.424 45.354 807.998 45.805 808.203 46.42L807.629 46.666C807.506 46.297 807.137 46.01 806.727 46.01C806.194 46.01 805.784 46.42 805.784 46.953C805.784 47.404 806.03 47.773 806.481 47.896L808.326 48.347C811.483 49.126 813.738 51.955 813.738 55.317C813.738 59.294 810.54 62.492 806.563 62.492C803.611 62.492 801.069 60.729 799.962 58.187ZM844.092 55.522L841.468 62H840.812L833.801 44.698L830.767 62H830.111L833.35 43.55L829.701 34.448L824.863 62H824.207L829.25 33.3H829.906L833.555 42.402L835.154 33.3H835.81L844.092 53.882L852.374 33.3H853.03L854.629 42.361L858.278 33.3H858.934L863.977 62H863.321L858.483 34.448L854.834 43.509L858.073 62H857.417L854.383 44.616L847.372 62H846.716L844.092 55.522ZM847.044 61.18L854.178 43.468L852.579 34.448L844.42 54.702L847.044 61.18ZM843.764 54.702L835.605 34.448L834.006 43.55L841.14 61.18L843.764 54.702ZM885.716 40.27V62H885.06V55.809C884.158 58.146 882.395 60.073 880.14 61.18V62H879.484V61.508C878.336 61.959 877.106 62.205 875.794 62.205C870.341 62.205 865.872 57.736 865.872 52.283V40.27H866.528V52.283C866.528 57.367 870.71 61.549 875.794 61.549C877.106 61.549 878.336 61.262 879.484 60.77V54.579C878.705 55.809 877.352 56.629 875.794 56.629C873.416 56.629 871.448 54.661 871.448 52.283V40.27H872.104V52.283C872.104 54.292 873.785 55.973 875.794 55.973C877.803 55.973 879.484 54.292 879.484 52.283V40.27H880.14V60.442C883.051 58.884 885.06 55.809 885.06 52.283V40.27H885.716ZM888.919 46.953C888.919 42.976 892.117 39.778 896.094 39.778C899.046 39.778 901.588 41.582 902.695 44.124L902.08 44.411C901.096 42.074 898.759 40.434 896.094 40.434C892.486 40.434 889.575 43.345 889.575 46.953C889.575 50.028 891.666 52.57 894.536 53.308L896.34 53.759C897.037 53.923 897.529 54.579 897.529 55.317C897.529 56.219 896.832 56.916 895.93 56.916C895.233 56.916 894.659 56.506 894.413 55.85L895.028 55.604C895.151 55.973 895.479 56.26 895.93 56.26C896.463 56.26 896.873 55.85 896.873 55.317C896.873 54.866 896.627 54.497 896.176 54.374L894.331 53.923C891.215 53.144 888.919 50.315 888.919 46.953ZM889.329 58.187L889.944 57.9C890.928 60.237 893.224 61.836 895.93 61.836C899.538 61.836 902.449 58.925 902.449 55.317C902.449 52.242 900.358 49.7 897.488 48.962L895.684 48.511C894.946 48.306 894.495 47.691 894.495 46.953C894.495 46.051 895.192 45.354 896.094 45.354C896.791 45.354 897.365 45.805 897.57 46.42L896.996 46.666C896.873 46.297 896.504 46.01 896.094 46.01C895.561 46.01 895.151 46.42 895.151 46.953C895.151 47.404 895.397 47.773 895.848 47.896L897.693 48.347C900.85 49.126 903.105 51.955 903.105 55.317C903.105 59.294 899.907 62.492 895.93 62.492C892.978 62.492 890.436 60.729 889.329 58.187ZM906.319 62V40.27H906.975V62H906.319ZM912.551 40.27V62H911.895V40.27H912.551ZM911.895 38.138V31.25H912.551V38.138H911.895ZM906.975 31.25V38.138H906.319V31.25H906.975ZM927.594 45.846V46.502H926.405C923.904 46.502 921.772 48.634 921.772 51.135C921.772 53.636 923.904 55.768 926.405 55.768H927.594V56.424H926.405C923.535 56.424 921.116 54.005 921.116 51.135C921.116 48.265 923.535 45.846 926.405 45.846H927.594ZM927.594 40.926H926.405C920.788 40.926 916.196 45.518 916.196 51.135C916.196 56.752 920.788 61.344 926.405 61.344H927.594V62H926.405C920.419 62 915.54 57.121 915.54 51.135C915.54 45.149 920.419 40.27 926.405 40.27H927.594V40.926ZM952.997 62H952.341L946.437 46.871V62H945.781V39.532H940.861V62H940.205V33.3H949.348C954.596 33.3 958.778 37.482 958.778 42.73C958.778 46.912 956.687 49.372 954.268 50.889L958.573 62H957.917L953.735 51.217C952.546 51.914 950.865 52.529 949.471 52.939L952.997 62ZM952.095 45.313L954.022 50.274C956.236 48.88 958.122 46.584 958.122 42.73C958.122 37.81 954.268 33.956 949.348 33.956H946.437V38.876H949.348C951.48 38.876 953.202 40.598 953.202 42.73C953.202 43.714 952.833 44.575 952.095 45.313ZM946.437 39.532V46.871L947.995 46.543C951.193 45.846 952.546 44.493 952.546 42.73C952.546 40.926 951.152 39.532 949.348 39.532H946.437ZM940.861 33.956V38.876H945.781V33.956H940.861ZM953.489 50.602L951.603 45.764C950.373 46.707 948.938 47.035 947.339 47.363L949.225 52.283C950.455 51.955 952.464 51.217 953.489 50.602ZM960.263 51.135C960.263 44.862 965.347 39.778 971.62 39.778C976.622 39.778 980.845 42.976 982.362 47.486L969.037 55.563C969.816 56.014 970.677 56.26 971.62 56.26C973.67 56.26 975.433 55.03 976.253 53.308L976.868 53.595C975.966 55.563 973.957 56.916 971.62 56.916C970.431 56.916 969.324 56.547 968.422 55.932L963.994 58.638C965.921 60.606 968.627 61.836 971.62 61.836C975.884 61.836 979.615 59.294 981.337 55.645L981.911 55.932C980.107 59.827 976.171 62.492 971.62 62.492C965.347 62.492 960.263 57.408 960.263 51.135ZM960.919 51.135C960.919 52.324 961.124 53.431 961.452 54.497L965.88 51.791C965.839 51.586 965.839 51.34 965.839 51.135C965.839 47.937 968.422 45.354 971.62 45.354C972.809 45.354 973.957 45.723 974.859 46.338L979.246 43.673C977.319 41.664 974.613 40.434 971.62 40.434C965.716 40.434 960.919 45.231 960.919 51.135ZM961.698 55.112C962.149 56.219 962.764 57.244 963.543 58.146L967.848 55.522C966.946 54.743 966.29 53.677 966.003 52.488L961.698 55.112ZM966.495 51.135V51.422L974.244 46.707C973.465 46.256 972.563 46.01 971.62 46.01C968.791 46.01 966.495 48.306 966.495 51.135ZM966.577 52.16C966.823 53.349 967.52 54.415 968.463 55.153L976.663 50.151C976.417 48.962 975.761 47.896 974.818 47.117L966.577 52.16ZM975.433 46.789C976.335 47.568 976.991 48.593 977.237 49.823L981.583 47.158C981.132 46.051 980.476 45.067 979.738 44.165L975.433 46.789ZM985.011 31.25V62H984.355V31.25H985.011ZM990.587 31.25V62H989.931V31.25H990.587ZM993.535 51.135C993.535 44.862 998.619 39.778 1004.89 39.778C1009.89 39.778 1014.12 42.976 1015.63 47.486L1002.31 55.563C1003.09 56.014 1003.95 56.26 1004.89 56.26C1006.94 56.26 1008.71 55.03 1009.53 53.308L1010.14 53.595C1009.24 55.563 1007.23 56.916 1004.89 56.916C1003.7 56.916 1002.6 56.547 1001.69 55.932L997.266 58.638C999.193 60.606 1001.9 61.836 1004.89 61.836C1009.16 61.836 1012.89 59.294 1014.61 55.645L1015.18 55.932C1013.38 59.827 1009.44 62.492 1004.89 62.492C998.619 62.492 993.535 57.408 993.535 51.135ZM994.191 51.135C994.191 52.324 994.396 53.431 994.724 54.497L999.152 51.791C999.111 51.586 999.111 51.34 999.111 51.135C999.111 47.937 1001.69 45.354 1004.89 45.354C1006.08 45.354 1007.23 45.723 1008.13 46.338L1012.52 43.673C1010.59 41.664 1007.89 40.434 1004.89 40.434C998.988 40.434 994.191 45.231 994.191 51.135ZM994.97 55.112C995.421 56.219 996.036 57.244 996.815 58.146L1001.12 55.522C1000.22 54.743 999.562 53.677 999.275 52.488L994.97 55.112ZM999.767 51.135V51.422L1007.52 46.707C1006.74 46.256 1005.84 46.01 1004.89 46.01C1002.06 46.01 999.767 48.306 999.767 51.135ZM999.849 52.16C1000.1 53.349 1000.79 54.415 1001.74 55.153L1009.94 50.151C1009.69 48.962 1009.03 47.896 1008.09 47.117L999.849 52.16ZM1008.71 46.789C1009.61 47.568 1010.26 48.593 1010.51 49.823L1014.86 47.158C1014.4 46.051 1013.75 45.067 1013.01 44.165L1008.71 46.789ZM1033.54 42.115V60.155C1036.28 58.474 1038.46 55.071 1038.46 51.135C1038.46 47.199 1036.28 43.796 1033.54 42.115ZM1027.75 39.778C1029.6 39.778 1031.32 40.229 1032.88 41.008V40.27H1033.54V41.377C1035.83 42.648 1037.59 44.944 1038.46 47.322V40.27H1039.11V62H1038.46V54.907C1037.64 57.244 1035.83 59.663 1033.54 60.934V62H1032.88V61.262C1031.32 62.041 1029.6 62.492 1027.75 62.492C1021.48 62.492 1016.4 57.408 1016.4 51.135C1016.4 44.862 1021.48 39.778 1027.75 39.778ZM1027.75 61.836C1029.6 61.836 1031.36 61.385 1032.88 60.565V53.841C1031.9 55.645 1029.97 56.916 1027.75 56.916C1024.56 56.916 1021.97 54.333 1021.97 51.135C1021.97 47.937 1024.56 45.354 1027.75 45.354C1029.97 45.354 1031.9 46.625 1032.88 48.47V41.746C1031.36 40.926 1029.6 40.434 1027.75 40.434C1021.85 40.434 1017.05 45.231 1017.05 51.135C1017.05 57.039 1021.85 61.836 1027.75 61.836ZM1027.75 56.26C1030.62 56.26 1032.88 53.964 1032.88 51.135C1032.88 48.306 1030.62 46.01 1027.75 46.01C1024.93 46.01 1022.63 48.306 1022.63 51.135C1022.63 53.964 1024.93 56.26 1027.75 56.26ZM1042.31 46.953C1042.31 42.976 1045.51 39.778 1049.48 39.778C1052.44 39.778 1054.98 41.582 1056.08 44.124L1055.47 44.411C1054.49 42.074 1052.15 40.434 1049.48 40.434C1045.88 40.434 1042.96 43.345 1042.96 46.953C1042.96 50.028 1045.06 52.57 1047.93 53.308L1049.73 53.759C1050.43 53.923 1050.92 54.579 1050.92 55.317C1050.92 56.219 1050.22 56.916 1049.32 56.916C1048.62 56.916 1048.05 56.506 1047.8 55.85L1048.42 55.604C1048.54 55.973 1048.87 56.26 1049.32 56.26C1049.85 56.26 1050.26 55.85 1050.26 55.317C1050.26 54.866 1050.02 54.497 1049.57 54.374L1047.72 53.923C1044.6 53.144 1042.31 50.315 1042.31 46.953ZM1042.72 58.187L1043.33 57.9C1044.32 60.237 1046.61 61.836 1049.32 61.836C1052.93 61.836 1055.84 58.925 1055.84 55.317C1055.84 52.242 1053.75 49.7 1050.88 48.962L1049.07 48.511C1048.34 48.306 1047.88 47.691 1047.88 46.953C1047.88 46.051 1048.58 45.354 1049.48 45.354C1050.18 45.354 1050.75 45.805 1050.96 46.42L1050.39 46.666C1050.26 46.297 1049.89 46.01 1049.48 46.01C1048.95 46.01 1048.54 46.42 1048.54 46.953C1048.54 47.404 1048.79 47.773 1049.24 47.896L1051.08 48.347C1054.24 49.126 1056.49 51.955 1056.49 55.317C1056.49 59.294 1053.3 62.492 1049.32 62.492C1046.37 62.492 1043.83 60.729 1042.72 58.187ZM1058.48 51.135C1058.48 44.862 1063.56 39.778 1069.84 39.778C1074.84 39.778 1079.06 42.976 1080.58 47.486L1067.25 55.563C1068.03 56.014 1068.89 56.26 1069.84 56.26C1071.89 56.26 1073.65 55.03 1074.47 53.308L1075.08 53.595C1074.18 55.563 1072.17 56.916 1069.84 56.916C1068.65 56.916 1067.54 56.547 1066.64 55.932L1062.21 58.638C1064.14 60.606 1066.84 61.836 1069.84 61.836C1074.1 61.836 1077.83 59.294 1079.55 55.645L1080.13 55.932C1078.32 59.827 1074.39 62.492 1069.84 62.492C1063.56 62.492 1058.48 57.408 1058.48 51.135ZM1059.13 51.135C1059.13 52.324 1059.34 53.431 1059.67 54.497L1064.1 51.791C1064.05 51.586 1064.05 51.34 1064.05 51.135C1064.05 47.937 1066.64 45.354 1069.84 45.354C1071.02 45.354 1072.17 45.723 1073.07 46.338L1077.46 43.673C1075.53 41.664 1072.83 40.434 1069.84 40.434C1063.93 40.434 1059.13 45.231 1059.13 51.135ZM1059.91 55.112C1060.36 56.219 1060.98 57.244 1061.76 58.146L1066.06 55.522C1065.16 54.743 1064.51 53.677 1064.22 52.488L1059.91 55.112ZM1064.71 51.135V51.422L1072.46 46.707C1071.68 46.256 1070.78 46.01 1069.84 46.01C1067.01 46.01 1064.71 48.306 1064.71 51.135ZM1064.79 52.16C1065.04 53.349 1065.74 54.415 1066.68 55.153L1074.88 50.151C1074.63 48.962 1073.98 47.896 1073.03 47.117L1064.79 52.16ZM1073.65 46.789C1074.55 47.568 1075.21 48.593 1075.45 49.823L1079.8 47.158C1079.35 46.051 1078.69 45.067 1077.95 44.165L1073.65 46.789ZM1081.59 46.953C1081.59 42.976 1084.78 39.778 1088.76 39.778C1091.71 39.778 1094.26 41.582 1095.36 44.124L1094.75 44.411C1093.76 42.074 1091.43 40.434 1088.76 40.434C1085.15 40.434 1082.24 43.345 1082.24 46.953C1082.24 50.028 1084.33 52.57 1087.2 53.308L1089.01 53.759C1089.7 53.923 1090.2 54.579 1090.2 55.317C1090.2 56.219 1089.5 56.916 1088.6 56.916C1087.9 56.916 1087.33 56.506 1087.08 55.85L1087.7 55.604C1087.82 55.973 1088.15 56.26 1088.6 56.26C1089.13 56.26 1089.54 55.85 1089.54 55.317C1089.54 54.866 1089.29 54.497 1088.84 54.374L1087 53.923C1083.88 53.144 1081.59 50.315 1081.59 46.953ZM1082 58.187L1082.61 57.9C1083.6 60.237 1085.89 61.836 1088.6 61.836C1092.21 61.836 1095.12 58.925 1095.12 55.317C1095.12 52.242 1093.03 49.7 1090.16 48.962L1088.35 48.511C1087.61 48.306 1087.16 47.691 1087.16 46.953C1087.16 46.051 1087.86 45.354 1088.76 45.354C1089.46 45.354 1090.03 45.805 1090.24 46.42L1089.66 46.666C1089.54 46.297 1089.17 46.01 1088.76 46.01C1088.23 46.01 1087.82 46.42 1087.82 46.953C1087.82 47.404 1088.06 47.773 1088.52 47.896L1090.36 48.347C1093.52 49.126 1095.77 51.955 1095.77 55.317C1095.77 59.294 1092.57 62.492 1088.6 62.492C1085.65 62.492 1083.1 60.729 1082 58.187ZM1117.32 55.522L1114.69 62H1114.04L1107.03 44.698L1103.99 62H1103.34L1106.58 43.55L1102.93 34.448L1098.09 62H1097.43L1102.48 33.3H1103.13L1106.78 42.402L1108.38 33.3H1109.04L1117.32 53.882L1125.6 33.3H1126.26L1127.86 42.361L1131.5 33.3H1132.16L1137.2 62H1136.55L1131.71 34.448L1128.06 43.509L1131.3 62H1130.64L1127.61 44.616L1120.6 62H1119.94L1117.32 55.522ZM1120.27 61.18L1127.4 43.468L1125.81 34.448L1117.65 54.702L1120.27 61.18ZM1116.99 54.702L1108.83 34.448L1107.23 43.55L1114.37 61.18L1116.99 54.702ZM1158.94 40.27V62H1158.29V55.809C1157.38 58.146 1155.62 60.073 1153.37 61.18V62H1152.71V61.508C1151.56 61.959 1150.33 62.205 1149.02 62.205C1143.57 62.205 1139.1 57.736 1139.1 52.283V40.27H1139.75V52.283C1139.75 57.367 1143.94 61.549 1149.02 61.549C1150.33 61.549 1151.56 61.262 1152.71 60.77V54.579C1151.93 55.809 1150.58 56.629 1149.02 56.629C1146.64 56.629 1144.67 54.661 1144.67 52.283V40.27H1145.33V52.283C1145.33 54.292 1147.01 55.973 1149.02 55.973C1151.03 55.973 1152.71 54.292 1152.71 52.283V40.27H1153.37V60.442C1156.28 58.884 1158.29 55.809 1158.29 52.283V40.27H1158.94ZM1162.15 46.953C1162.15 42.976 1165.34 39.778 1169.32 39.778C1172.27 39.778 1174.81 41.582 1175.92 44.124L1175.31 44.411C1174.32 42.074 1171.99 40.434 1169.32 40.434C1165.71 40.434 1162.8 43.345 1162.8 46.953C1162.8 50.028 1164.89 52.57 1167.76 53.308L1169.57 53.759C1170.26 53.923 1170.76 54.579 1170.76 55.317C1170.76 56.219 1170.06 56.916 1169.16 56.916C1168.46 56.916 1167.89 56.506 1167.64 55.85L1168.25 55.604C1168.38 55.973 1168.71 56.26 1169.16 56.26C1169.69 56.26 1170.1 55.85 1170.1 55.317C1170.1 54.866 1169.85 54.497 1169.4 54.374L1167.56 53.923C1164.44 53.144 1162.15 50.315 1162.15 46.953ZM1162.56 58.187L1163.17 57.9C1164.15 60.237 1166.45 61.836 1169.16 61.836C1172.76 61.836 1175.68 58.925 1175.68 55.317C1175.68 52.242 1173.58 49.7 1170.71 48.962L1168.91 48.511C1168.17 48.306 1167.72 47.691 1167.72 46.953C1167.72 46.051 1168.42 45.354 1169.32 45.354C1170.02 45.354 1170.59 45.805 1170.8 46.42L1170.22 46.666C1170.1 46.297 1169.73 46.01 1169.32 46.01C1168.79 46.01 1168.38 46.42 1168.38 46.953C1168.38 47.404 1168.62 47.773 1169.07 47.896L1170.92 48.347C1174.08 49.126 1176.33 51.955 1176.33 55.317C1176.33 59.294 1173.13 62.492 1169.16 62.492C1166.2 62.492 1163.66 60.729 1162.56 58.187ZM1179.55 62V40.27H1180.2V62H1179.55ZM1185.78 40.27V62H1185.12V40.27H1185.78ZM1185.12 38.138V31.25H1185.78V38.138H1185.12ZM1180.2 31.25V38.138H1179.55V31.25H1180.2ZM1200.82 45.846V46.502H1199.63C1197.13 46.502 1195 48.634 1195 51.135C1195 53.636 1197.13 55.768 1199.63 55.768H1200.82V56.424H1199.63C1196.76 56.424 1194.34 54.005 1194.34 51.135C1194.34 48.265 1196.76 45.846 1199.63 45.846H1200.82ZM1200.82 40.926H1199.63C1194.01 40.926 1189.42 45.518 1189.42 51.135C1189.42 56.752 1194.01 61.344 1199.63 61.344H1200.82V62H1199.63C1193.65 62 1188.77 57.121 1188.77 51.135C1188.77 45.149 1193.65 40.27 1199.63 40.27H1200.82V40.926ZM1226.22 62H1225.57L1219.66 46.871V62H1219.01V39.532H1214.09V62H1213.43V33.3H1222.57C1227.82 33.3 1232 37.482 1232 42.73C1232 46.912 1229.91 49.372 1227.49 50.889L1231.8 62H1231.14L1226.96 51.217C1225.77 51.914 1224.09 52.529 1222.7 52.939L1226.22 62ZM1225.32 45.313L1227.25 50.274C1229.46 48.88 1231.35 46.584 1231.35 42.73C1231.35 37.81 1227.49 33.956 1222.57 33.956H1219.66V38.876H1222.57C1224.71 38.876 1226.43 40.598 1226.43 42.73C1226.43 43.714 1226.06 44.575 1225.32 45.313ZM1219.66 39.532V46.871L1221.22 46.543C1224.42 45.846 1225.77 44.493 1225.77 42.73C1225.77 40.926 1224.38 39.532 1222.57 39.532H1219.66ZM1214.09 33.956V38.876H1219.01V33.956H1214.09ZM1226.72 50.602L1224.83 45.764C1223.6 46.707 1222.16 47.035 1220.57 47.363L1222.45 52.283C1223.68 51.955 1225.69 51.217 1226.72 50.602ZM1233.49 51.135C1233.49 44.862 1238.57 39.778 1244.85 39.778C1249.85 39.778 1254.07 42.976 1255.59 47.486L1242.26 55.563C1243.04 56.014 1243.9 56.26 1244.85 56.26C1246.9 56.26 1248.66 55.03 1249.48 53.308L1250.09 53.595C1249.19 55.563 1247.18 56.916 1244.85 56.916C1243.66 56.916 1242.55 56.547 1241.65 55.932L1237.22 58.638C1239.15 60.606 1241.85 61.836 1244.85 61.836C1249.11 61.836 1252.84 59.294 1254.56 55.645L1255.14 55.932C1253.33 59.827 1249.4 62.492 1244.85 62.492C1238.57 62.492 1233.49 57.408 1233.49 51.135ZM1234.15 51.135C1234.15 52.324 1234.35 53.431 1234.68 54.497L1239.11 51.791C1239.07 51.586 1239.07 51.34 1239.07 51.135C1239.07 47.937 1241.65 45.354 1244.85 45.354C1246.04 45.354 1247.18 45.723 1248.09 46.338L1252.47 43.673C1250.55 41.664 1247.84 40.434 1244.85 40.434C1238.94 40.434 1234.15 45.231 1234.15 51.135ZM1234.92 55.112C1235.38 56.219 1235.99 57.244 1236.77 58.146L1241.07 55.522C1240.17 54.743 1239.52 53.677 1239.23 52.488L1234.92 55.112ZM1239.72 51.135V51.422L1247.47 46.707C1246.69 46.256 1245.79 46.01 1244.85 46.01C1242.02 46.01 1239.72 48.306 1239.72 51.135ZM1239.8 52.16C1240.05 53.349 1240.75 54.415 1241.69 55.153L1249.89 50.151C1249.64 48.962 1248.99 47.896 1248.04 47.117L1239.8 52.16ZM1248.66 46.789C1249.56 47.568 1250.22 48.593 1250.46 49.823L1254.81 47.158C1254.36 46.051 1253.7 45.067 1252.96 44.165L1248.66 46.789ZM1258.24 31.25V62H1257.58V31.25H1258.24ZM1263.81 31.25V62H1263.16V31.25H1263.81ZM1266.76 51.135C1266.76 44.862 1271.85 39.778 1278.12 39.778C1283.12 39.778 1287.34 42.976 1288.86 47.486L1275.54 55.563C1276.31 56.014 1277.18 56.26 1278.12 56.26C1280.17 56.26 1281.93 55.03 1282.75 53.308L1283.37 53.595C1282.46 55.563 1280.46 56.916 1278.12 56.916C1276.93 56.916 1275.82 56.547 1274.92 55.932L1270.49 58.638C1272.42 60.606 1275.13 61.836 1278.12 61.836C1282.38 61.836 1286.11 59.294 1287.84 55.645L1288.41 55.932C1286.61 59.827 1282.67 62.492 1278.12 62.492C1271.85 62.492 1266.76 57.408 1266.76 51.135ZM1267.42 51.135C1267.42 52.324 1267.62 53.431 1267.95 54.497L1272.38 51.791C1272.34 51.586 1272.34 51.34 1272.34 51.135C1272.34 47.937 1274.92 45.354 1278.12 45.354C1279.31 45.354 1280.46 45.723 1281.36 46.338L1285.74 43.673C1283.82 41.664 1281.11 40.434 1278.12 40.434C1272.21 40.434 1267.42 45.231 1267.42 51.135ZM1268.2 55.112C1268.65 56.219 1269.26 57.244 1270.04 58.146L1274.35 55.522C1273.44 54.743 1272.79 53.677 1272.5 52.488L1268.2 55.112ZM1272.99 51.135V51.422L1280.74 46.707C1279.96 46.256 1279.06 46.01 1278.12 46.01C1275.29 46.01 1272.99 48.306 1272.99 51.135ZM1273.08 52.16C1273.32 53.349 1274.02 54.415 1274.96 55.153L1283.16 50.151C1282.92 48.962 1282.26 47.896 1281.32 47.117L1273.08 52.16ZM1281.93 46.789C1282.83 47.568 1283.49 48.593 1283.74 49.823L1288.08 47.158C1287.63 46.051 1286.97 45.067 1286.24 44.165L1281.93 46.789ZM1306.76 42.115V60.155C1309.51 58.474 1311.68 55.071 1311.68 51.135C1311.68 47.199 1309.51 43.796 1306.76 42.115ZM1300.98 39.778C1302.83 39.778 1304.55 40.229 1306.11 41.008V40.27H1306.76V41.377C1309.06 42.648 1310.82 44.944 1311.68 47.322V40.27H1312.34V62H1311.68V54.907C1310.86 57.244 1309.06 59.663 1306.76 60.934V62H1306.11V61.262C1304.55 62.041 1302.83 62.492 1300.98 62.492C1294.71 62.492 1289.62 57.408 1289.62 51.135C1289.62 44.862 1294.71 39.778 1300.98 39.778ZM1300.98 61.836C1302.83 61.836 1304.59 61.385 1306.11 60.565V53.841C1305.12 55.645 1303.2 56.916 1300.98 56.916C1297.78 56.916 1295.2 54.333 1295.2 51.135C1295.2 47.937 1297.78 45.354 1300.98 45.354C1303.2 45.354 1305.12 46.625 1306.11 48.47V41.746C1304.59 40.926 1302.83 40.434 1300.98 40.434C1295.08 40.434 1290.28 45.231 1290.28 51.135C1290.28 57.039 1295.08 61.836 1300.98 61.836ZM1300.98 56.26C1303.85 56.26 1306.11 53.964 1306.11 51.135C1306.11 48.306 1303.85 46.01 1300.98 46.01C1298.15 46.01 1295.86 48.306 1295.86 51.135C1295.86 53.964 1298.15 56.26 1300.98 56.26ZM1315.54 46.953C1315.54 42.976 1318.73 39.778 1322.71 39.778C1325.66 39.778 1328.2 41.582 1329.31 44.124L1328.7 44.411C1327.71 42.074 1325.38 40.434 1322.71 40.434C1319.1 40.434 1316.19 43.345 1316.19 46.953C1316.19 50.028 1318.28 52.57 1321.15 53.308L1322.96 53.759C1323.65 53.923 1324.15 54.579 1324.15 55.317C1324.15 56.219 1323.45 56.916 1322.55 56.916C1321.85 56.916 1321.28 56.506 1321.03 55.85L1321.64 55.604C1321.77 55.973 1322.1 56.26 1322.55 56.26C1323.08 56.26 1323.49 55.85 1323.49 55.317C1323.49 54.866 1323.24 54.497 1322.79 54.374L1320.95 53.923C1317.83 53.144 1315.54 50.315 1315.54 46.953ZM1315.95 58.187L1316.56 57.9C1317.54 60.237 1319.84 61.836 1322.55 61.836C1326.15 61.836 1329.07 58.925 1329.07 55.317C1329.07 52.242 1326.97 49.7 1324.1 48.962L1322.3 48.511C1321.56 48.306 1321.11 47.691 1321.11 46.953C1321.11 46.051 1321.81 45.354 1322.71 45.354C1323.41 45.354 1323.98 45.805 1324.19 46.42L1323.61 46.666C1323.49 46.297 1323.12 46.01 1322.71 46.01C1322.18 46.01 1321.77 46.42 1321.77 46.953C1321.77 47.404 1322.01 47.773 1322.46 47.896L1324.31 48.347C1327.47 49.126 1329.72 51.955 1329.72 55.317C1329.72 59.294 1326.52 62.492 1322.55 62.492C1319.59 62.492 1317.05 60.729 1315.95 58.187ZM1331.71 51.135C1331.71 44.862 1336.79 39.778 1343.06 39.778C1348.06 39.778 1352.29 42.976 1353.8 47.486L1340.48 55.563C1341.26 56.014 1342.12 56.26 1343.06 56.26C1345.11 56.26 1346.88 55.03 1347.7 53.308L1348.31 53.595C1347.41 55.563 1345.4 56.916 1343.06 56.916C1341.87 56.916 1340.77 56.547 1339.86 55.932L1335.44 58.638C1337.36 60.606 1340.07 61.836 1343.06 61.836C1347.33 61.836 1351.06 59.294 1352.78 55.645L1353.35 55.932C1351.55 59.827 1347.61 62.492 1343.06 62.492C1336.79 62.492 1331.71 57.408 1331.71 51.135ZM1332.36 51.135C1332.36 52.324 1332.57 53.431 1332.89 54.497L1337.32 51.791C1337.28 51.586 1337.28 51.34 1337.28 51.135C1337.28 47.937 1339.86 45.354 1343.06 45.354C1344.25 45.354 1345.4 45.723 1346.3 46.338L1350.69 43.673C1348.76 41.664 1346.06 40.434 1343.06 40.434C1337.16 40.434 1332.36 45.231 1332.36 51.135ZM1333.14 55.112C1333.59 56.219 1334.21 57.244 1334.99 58.146L1339.29 55.522C1338.39 54.743 1337.73 53.677 1337.45 52.488L1333.14 55.112ZM1337.94 51.135V51.422L1345.69 46.707C1344.91 46.256 1344.01 46.01 1343.06 46.01C1340.23 46.01 1337.94 48.306 1337.94 51.135ZM1338.02 52.16C1338.27 53.349 1338.96 54.415 1339.91 55.153L1348.11 50.151C1347.86 48.962 1347.2 47.896 1346.26 47.117L1338.02 52.16ZM1346.88 46.789C1347.78 47.568 1348.43 48.593 1348.68 49.823L1353.03 47.158C1352.57 46.051 1351.92 45.067 1351.18 44.165L1346.88 46.789ZM1354.81 46.953C1354.81 42.976 1358.01 39.778 1361.99 39.778C1364.94 39.778 1367.48 41.582 1368.59 44.124L1367.97 44.411C1366.99 42.074 1364.65 40.434 1361.99 40.434C1358.38 40.434 1355.47 43.345 1355.47 46.953C1355.47 50.028 1357.56 52.57 1360.43 53.308L1362.23 53.759C1362.93 53.923 1363.42 54.579 1363.42 55.317C1363.42 56.219 1362.73 56.916 1361.82 56.916C1361.13 56.916 1360.55 56.506 1360.31 55.85L1360.92 55.604C1361.05 55.973 1361.37 56.26 1361.82 56.26C1362.36 56.26 1362.77 55.85 1362.77 55.317C1362.77 54.866 1362.52 54.497 1362.07 54.374L1360.23 53.923C1357.11 53.144 1354.81 50.315 1354.81 46.953ZM1355.22 58.187L1355.84 57.9C1356.82 60.237 1359.12 61.836 1361.82 61.836C1365.43 61.836 1368.34 58.925 1368.34 55.317C1368.34 52.242 1366.25 49.7 1363.38 48.962L1361.58 48.511C1360.84 48.306 1360.39 47.691 1360.39 46.953C1360.39 46.051 1361.09 45.354 1361.99 45.354C1362.69 45.354 1363.26 45.805 1363.46 46.42L1362.89 46.666C1362.77 46.297 1362.4 46.01 1361.99 46.01C1361.46 46.01 1361.05 46.42 1361.05 46.953C1361.05 47.404 1361.29 47.773 1361.74 47.896L1363.59 48.347C1366.74 49.126 1369 51.955 1369 55.317C1369 59.294 1365.8 62.492 1361.82 62.492C1358.87 62.492 1356.33 60.729 1355.22 58.187ZM1399.35 55.522L1396.73 62H1396.07L1389.06 44.698L1386.03 62H1385.37L1388.61 43.55L1384.96 34.448L1380.12 62H1379.47L1384.51 33.3H1385.17L1388.82 42.402L1390.42 33.3H1391.07L1399.35 53.882L1407.64 33.3H1408.29L1409.89 42.361L1413.54 33.3H1414.2L1419.24 62H1418.58L1413.74 34.448L1410.1 43.509L1413.33 62H1412.68L1409.64 44.616L1402.63 62H1401.98L1399.35 55.522ZM1402.31 61.18L1409.44 43.468L1407.84 34.448L1399.68 54.702L1402.31 61.18ZM1399.03 54.702L1390.87 34.448L1389.27 43.55L1396.4 61.18L1399.03 54.702ZM1440.98 40.27V62H1440.32V55.809C1439.42 58.146 1437.66 60.073 1435.4 61.18V62H1434.75V61.508C1433.6 61.959 1432.37 62.205 1431.06 62.205C1425.6 62.205 1421.13 57.736 1421.13 52.283V40.27H1421.79V52.283C1421.79 57.367 1425.97 61.549 1431.06 61.549C1432.37 61.549 1433.6 61.262 1434.75 60.77V54.579C1433.97 55.809 1432.61 56.629 1431.06 56.629C1428.68 56.629 1426.71 54.661 1426.71 52.283V40.27H1427.37V52.283C1427.37 54.292 1429.05 55.973 1431.06 55.973C1433.06 55.973 1434.75 54.292 1434.75 52.283V40.27H1435.4V60.442C1438.31 58.884 1440.32 55.809 1440.32 52.283V40.27H1440.98ZM1444.18 46.953C1444.18 42.976 1447.38 39.778 1451.36 39.778C1454.31 39.778 1456.85 41.582 1457.96 44.124L1457.34 44.411C1456.36 42.074 1454.02 40.434 1451.36 40.434C1447.75 40.434 1444.84 43.345 1444.84 46.953C1444.84 50.028 1446.93 52.57 1449.8 53.308L1451.6 53.759C1452.3 53.923 1452.79 54.579 1452.79 55.317C1452.79 56.219 1452.09 56.916 1451.19 56.916C1450.49 56.916 1449.92 56.506 1449.67 55.85L1450.29 55.604C1450.41 55.973 1450.74 56.26 1451.19 56.26C1451.72 56.26 1452.13 55.85 1452.13 55.317C1452.13 54.866 1451.89 54.497 1451.44 54.374L1449.59 53.923C1446.48 53.144 1444.18 50.315 1444.18 46.953ZM1444.59 58.187L1445.21 57.9C1446.19 60.237 1448.49 61.836 1451.19 61.836C1454.8 61.836 1457.71 58.925 1457.71 55.317C1457.71 52.242 1455.62 49.7 1452.75 48.962L1450.95 48.511C1450.21 48.306 1449.76 47.691 1449.76 46.953C1449.76 46.051 1450.45 45.354 1451.36 45.354C1452.05 45.354 1452.63 45.805 1452.83 46.42L1452.26 46.666C1452.13 46.297 1451.77 46.01 1451.36 46.01C1450.82 46.01 1450.41 46.42 1450.41 46.953C1450.41 47.404 1450.66 47.773 1451.11 47.896L1452.95 48.347C1456.11 49.126 1458.37 51.955 1458.37 55.317C1458.37 59.294 1455.17 62.492 1451.19 62.492C1448.24 62.492 1445.7 60.729 1444.59 58.187ZM1461.58 62V40.27H1462.24V62H1461.58ZM1467.81 40.27V62H1467.16V40.27H1467.81ZM1467.16 38.138V31.25H1467.81V38.138H1467.16ZM1462.24 31.25V38.138H1461.58V31.25H1462.24ZM1482.86 45.846V46.502H1481.67C1479.17 46.502 1477.03 48.634 1477.03 51.135C1477.03 53.636 1479.17 55.768 1481.67 55.768H1482.86V56.424H1481.67C1478.8 56.424 1476.38 54.005 1476.38 51.135C1476.38 48.265 1478.8 45.846 1481.67 45.846H1482.86ZM1482.86 40.926H1481.67C1476.05 40.926 1471.46 45.518 1471.46 51.135C1471.46 56.752 1476.05 61.344 1481.67 61.344H1482.86V62H1481.67C1475.68 62 1470.8 57.121 1470.8 51.135C1470.8 45.149 1475.68 40.27 1481.67 40.27H1482.86V40.926ZM1508.26 62H1507.6L1501.7 46.871V62H1501.04V39.532H1496.12V62H1495.47V33.3H1504.61C1509.86 33.3 1514.04 37.482 1514.04 42.73C1514.04 46.912 1511.95 49.372 1509.53 50.889L1513.83 62H1513.18L1509 51.217C1507.81 51.914 1506.13 52.529 1504.73 52.939L1508.26 62ZM1507.36 45.313L1509.28 50.274C1511.5 48.88 1513.38 46.584 1513.38 42.73C1513.38 37.81 1509.53 33.956 1504.61 33.956H1501.7V38.876H1504.61C1506.74 38.876 1508.46 40.598 1508.46 42.73C1508.46 43.714 1508.09 44.575 1507.36 45.313ZM1501.7 39.532V46.871L1503.26 46.543C1506.45 45.846 1507.81 44.493 1507.81 42.73C1507.81 40.926 1506.41 39.532 1504.61 39.532H1501.7ZM1496.12 33.956V38.876H1501.04V33.956H1496.12ZM1508.75 50.602L1506.86 45.764C1505.63 46.707 1504.2 47.035 1502.6 47.363L1504.49 52.283C1505.72 51.955 1507.73 51.217 1508.75 50.602ZM1515.52 51.135C1515.52 44.862 1520.61 39.778 1526.88 39.778C1531.88 39.778 1536.11 42.976 1537.62 47.486L1524.3 55.563C1525.08 56.014 1525.94 56.26 1526.88 56.26C1528.93 56.26 1530.69 55.03 1531.51 53.308L1532.13 53.595C1531.23 55.563 1529.22 56.916 1526.88 56.916C1525.69 56.916 1524.59 56.547 1523.68 55.932L1519.26 58.638C1521.18 60.606 1523.89 61.836 1526.88 61.836C1531.15 61.836 1534.88 59.294 1536.6 55.645L1537.17 55.932C1535.37 59.827 1531.43 62.492 1526.88 62.492C1520.61 62.492 1515.52 57.408 1515.52 51.135ZM1516.18 51.135C1516.18 52.324 1516.39 53.431 1516.71 54.497L1521.14 51.791C1521.1 51.586 1521.1 51.34 1521.1 51.135C1521.1 47.937 1523.68 45.354 1526.88 45.354C1528.07 45.354 1529.22 45.723 1530.12 46.338L1534.51 43.673C1532.58 41.664 1529.87 40.434 1526.88 40.434C1520.98 40.434 1516.18 45.231 1516.18 51.135ZM1516.96 55.112C1517.41 56.219 1518.03 57.244 1518.8 58.146L1523.11 55.522C1522.21 54.743 1521.55 53.677 1521.26 52.488L1516.96 55.112ZM1521.76 51.135V51.422L1529.51 46.707C1528.73 46.256 1527.82 46.01 1526.88 46.01C1524.05 46.01 1521.76 48.306 1521.76 51.135ZM1521.84 52.16C1522.08 53.349 1522.78 54.415 1523.72 55.153L1531.92 50.151C1531.68 48.962 1531.02 47.896 1530.08 47.117L1521.84 52.16ZM1530.69 46.789C1531.6 47.568 1532.25 48.593 1532.5 49.823L1536.84 47.158C1536.39 46.051 1535.74 45.067 1535 44.165L1530.69 46.789ZM1540.27 31.25V62H1539.62V31.25H1540.27ZM1545.85 31.25V62H1545.19V31.25H1545.85ZM1548.8 51.135C1548.8 44.862 1553.88 39.778 1560.15 39.778C1565.16 39.778 1569.38 42.976 1570.9 47.486L1557.57 55.563C1558.35 56.014 1559.21 56.26 1560.15 56.26C1562.2 56.26 1563.97 55.03 1564.79 53.308L1565.4 53.595C1564.5 55.563 1562.49 56.916 1560.15 56.916C1558.97 56.916 1557.86 56.547 1556.96 55.932L1552.53 58.638C1554.46 60.606 1557.16 61.836 1560.15 61.836C1564.42 61.836 1568.15 59.294 1569.87 55.645L1570.45 55.932C1568.64 59.827 1564.71 62.492 1560.15 62.492C1553.88 62.492 1548.8 57.408 1548.8 51.135ZM1549.45 51.135C1549.45 52.324 1549.66 53.431 1549.99 54.497L1554.41 51.791C1554.37 51.586 1554.37 51.34 1554.37 51.135C1554.37 47.937 1556.96 45.354 1560.15 45.354C1561.34 45.354 1562.49 45.723 1563.39 46.338L1567.78 43.673C1565.85 41.664 1563.15 40.434 1560.15 40.434C1554.25 40.434 1549.45 45.231 1549.45 51.135ZM1550.23 55.112C1550.68 56.219 1551.3 57.244 1552.08 58.146L1556.38 55.522C1555.48 54.743 1554.82 53.677 1554.54 52.488L1550.23 55.112ZM1555.03 51.135V51.422L1562.78 46.707C1562 46.256 1561.1 46.01 1560.15 46.01C1557.33 46.01 1555.03 48.306 1555.03 51.135ZM1555.11 52.16C1555.36 53.349 1556.05 54.415 1557 55.153L1565.2 50.151C1564.95 48.962 1564.3 47.896 1563.35 47.117L1555.11 52.16ZM1563.97 46.789C1564.87 47.568 1565.53 48.593 1565.77 49.823L1570.12 47.158C1569.67 46.051 1569.01 45.067 1568.27 44.165L1563.97 46.789ZM1588.8 42.115V60.155C1591.54 58.474 1593.72 55.071 1593.72 51.135C1593.72 47.199 1591.54 43.796 1588.8 42.115ZM1583.02 39.778C1584.86 39.778 1586.58 40.229 1588.14 41.008V40.27H1588.8V41.377C1591.09 42.648 1592.86 44.944 1593.72 47.322V40.27H1594.37V62H1593.72V54.907C1592.9 57.244 1591.09 59.663 1588.8 60.934V62H1588.14V61.262C1586.58 62.041 1584.86 62.492 1583.02 62.492C1576.74 62.492 1571.66 57.408 1571.66 51.135C1571.66 44.862 1576.74 39.778 1583.02 39.778ZM1583.02 61.836C1584.86 61.836 1586.62 61.385 1588.14 60.565V53.841C1587.16 55.645 1585.23 56.916 1583.02 56.916C1579.82 56.916 1577.24 54.333 1577.24 51.135C1577.24 47.937 1579.82 45.354 1583.02 45.354C1585.23 45.354 1587.16 46.625 1588.14 48.47V41.746C1586.62 40.926 1584.86 40.434 1583.02 40.434C1577.11 40.434 1572.32 45.231 1572.32 51.135C1572.32 57.039 1577.11 61.836 1583.02 61.836ZM1583.02 56.26C1585.89 56.26 1588.14 53.964 1588.14 51.135C1588.14 48.306 1585.89 46.01 1583.02 46.01C1580.19 46.01 1577.89 48.306 1577.89 51.135C1577.89 53.964 1580.19 56.26 1583.02 56.26ZM1597.57 46.953C1597.57 42.976 1600.77 39.778 1604.75 39.778C1607.7 39.778 1610.24 41.582 1611.35 44.124L1610.73 44.411C1609.75 42.074 1607.41 40.434 1604.75 40.434C1601.14 40.434 1598.23 43.345 1598.23 46.953C1598.23 50.028 1600.32 52.57 1603.19 53.308L1604.99 53.759C1605.69 53.923 1606.18 54.579 1606.18 55.317C1606.18 56.219 1605.48 56.916 1604.58 56.916C1603.88 56.916 1603.31 56.506 1603.06 55.85L1603.68 55.604C1603.8 55.973 1604.13 56.26 1604.58 56.26C1605.11 56.26 1605.52 55.85 1605.52 55.317C1605.52 54.866 1605.28 54.497 1604.83 54.374L1602.98 53.923C1599.87 53.144 1597.57 50.315 1597.57 46.953ZM1597.98 58.187L1598.6 57.9C1599.58 60.237 1601.88 61.836 1604.58 61.836C1608.19 61.836 1611.1 58.925 1611.1 55.317C1611.1 52.242 1609.01 49.7 1606.14 48.962L1604.34 48.511C1603.6 48.306 1603.15 47.691 1603.15 46.953C1603.15 46.051 1603.84 45.354 1604.75 45.354C1605.44 45.354 1606.02 45.805 1606.22 46.42L1605.65 46.666C1605.52 46.297 1605.16 46.01 1604.75 46.01C1604.21 46.01 1603.8 46.42 1603.8 46.953C1603.8 47.404 1604.05 47.773 1604.5 47.896L1606.34 48.347C1609.5 49.126 1611.76 51.955 1611.76 55.317C1611.76 59.294 1608.56 62.492 1604.58 62.492C1601.63 62.492 1599.09 60.729 1597.98 58.187ZM1613.74 51.135C1613.74 44.862 1618.82 39.778 1625.1 39.778C1630.1 39.778 1634.32 42.976 1635.84 47.486L1622.51 55.563C1623.29 56.014 1624.15 56.26 1625.1 56.26C1627.15 56.26 1628.91 55.03 1629.73 53.308L1630.35 53.595C1629.44 55.563 1627.43 56.916 1625.1 56.916C1623.91 56.916 1622.8 56.547 1621.9 55.932L1617.47 58.638C1619.4 60.606 1622.1 61.836 1625.1 61.836C1629.36 61.836 1633.09 59.294 1634.81 55.645L1635.39 55.932C1633.58 59.827 1629.65 62.492 1625.1 62.492C1618.82 62.492 1613.74 57.408 1613.74 51.135ZM1614.4 51.135C1614.4 52.324 1614.6 53.431 1614.93 54.497L1619.36 51.791C1619.32 51.586 1619.32 51.34 1619.32 51.135C1619.32 47.937 1621.9 45.354 1625.1 45.354C1626.29 45.354 1627.43 45.723 1628.34 46.338L1632.72 43.673C1630.8 41.664 1628.09 40.434 1625.1 40.434C1619.19 40.434 1614.4 45.231 1614.4 51.135ZM1615.18 55.112C1615.63 56.219 1616.24 57.244 1617.02 58.146L1621.33 55.522C1620.42 54.743 1619.77 53.677 1619.48 52.488L1615.18 55.112ZM1619.97 51.135V51.422L1627.72 46.707C1626.94 46.256 1626.04 46.01 1625.1 46.01C1622.27 46.01 1619.97 48.306 1619.97 51.135ZM1620.05 52.16C1620.3 53.349 1621 54.415 1621.94 55.153L1630.14 50.151C1629.89 48.962 1629.24 47.896 1628.3 47.117L1620.05 52.16ZM1628.91 46.789C1629.81 47.568 1630.47 48.593 1630.71 49.823L1635.06 47.158C1634.61 46.051 1633.95 45.067 1633.22 44.165L1628.91 46.789ZM1636.85 46.953C1636.85 42.976 1640.05 39.778 1644.02 39.778C1646.98 39.778 1649.52 41.582 1650.62 44.124L1650.01 44.411C1649.03 42.074 1646.69 40.434 1644.02 40.434C1640.42 40.434 1637.5 43.345 1637.5 46.953C1637.5 50.028 1639.6 52.57 1642.47 53.308L1644.27 53.759C1644.97 53.923 1645.46 54.579 1645.46 55.317C1645.46 56.219 1644.76 56.916 1643.86 56.916C1643.16 56.916 1642.59 56.506 1642.34 55.85L1642.96 55.604C1643.08 55.973 1643.41 56.26 1643.86 56.26C1644.39 56.26 1644.8 55.85 1644.8 55.317C1644.8 54.866 1644.56 54.497 1644.11 54.374L1642.26 53.923C1639.14 53.144 1636.85 50.315 1636.85 46.953ZM1637.26 58.187L1637.87 57.9C1638.86 60.237 1641.15 61.836 1643.86 61.836C1647.47 61.836 1650.38 58.925 1650.38 55.317C1650.38 52.242 1648.29 49.7 1645.42 48.962L1643.61 48.511C1642.88 48.306 1642.42 47.691 1642.42 46.953C1642.42 46.051 1643.12 45.354 1644.02 45.354C1644.72 45.354 1645.29 45.805 1645.5 46.42L1644.93 46.666C1644.8 46.297 1644.43 46.01 1644.02 46.01C1643.49 46.01 1643.08 46.42 1643.08 46.953C1643.08 47.404 1643.33 47.773 1643.78 47.896L1645.62 48.347C1648.78 49.126 1651.03 51.955 1651.03 55.317C1651.03 59.294 1647.84 62.492 1643.86 62.492C1640.91 62.492 1638.37 60.729 1637.26 58.187ZM1681.39 55.522L1678.77 62H1678.11L1671.1 44.698L1668.06 62H1667.41L1670.65 43.55L1667 34.448L1662.16 62H1661.5L1666.55 33.3H1667.2L1670.85 42.402L1672.45 33.3H1673.11L1681.39 53.882L1689.67 33.3H1690.33L1691.93 42.361L1695.58 33.3H1696.23L1701.27 62H1700.62L1695.78 34.448L1692.13 43.509L1695.37 62H1694.71L1691.68 44.616L1684.67 62H1684.01L1681.39 55.522ZM1684.34 61.18L1691.48 43.468L1689.88 34.448L1681.72 54.702L1684.34 61.18ZM1681.06 54.702L1672.9 34.448L1671.3 43.55L1678.44 61.18L1681.06 54.702ZM1723.01 40.27V62H1722.36V55.809C1721.45 58.146 1719.69 60.073 1717.44 61.18V62H1716.78V61.508C1715.63 61.959 1714.4 62.205 1713.09 62.205C1707.64 62.205 1703.17 57.736 1703.17 52.283V40.27H1703.82V52.283C1703.82 57.367 1708.01 61.549 1713.09 61.549C1714.4 61.549 1715.63 61.262 1716.78 60.77V54.579C1716 55.809 1714.65 56.629 1713.09 56.629C1710.71 56.629 1708.74 54.661 1708.74 52.283V40.27H1709.4V52.283C1709.4 54.292 1711.08 55.973 1713.09 55.973C1715.1 55.973 1716.78 54.292 1716.78 52.283V40.27H1717.44V60.442C1720.35 58.884 1722.36 55.809 1722.36 52.283V40.27H1723.01ZM1726.22 46.953C1726.22 42.976 1729.41 39.778 1733.39 39.778C1736.34 39.778 1738.88 41.582 1739.99 44.124L1739.38 44.411C1738.39 42.074 1736.06 40.434 1733.39 40.434C1729.78 40.434 1726.87 43.345 1726.87 46.953C1726.87 50.028 1728.96 52.57 1731.83 53.308L1733.64 53.759C1734.33 53.923 1734.83 54.579 1734.83 55.317C1734.83 56.219 1734.13 56.916 1733.23 56.916C1732.53 56.916 1731.96 56.506 1731.71 55.85L1732.32 55.604C1732.45 55.973 1732.78 56.26 1733.23 56.26C1733.76 56.26 1734.17 55.85 1734.17 55.317C1734.17 54.866 1733.92 54.497 1733.47 54.374L1731.63 53.923C1728.51 53.144 1726.22 50.315 1726.22 46.953ZM1726.63 58.187L1727.24 57.9C1728.22 60.237 1730.52 61.836 1733.23 61.836C1736.83 61.836 1739.75 58.925 1739.75 55.317C1739.75 52.242 1737.65 49.7 1734.78 48.962L1732.98 48.511C1732.24 48.306 1731.79 47.691 1731.79 46.953C1731.79 46.051 1732.49 45.354 1733.39 45.354C1734.09 45.354 1734.66 45.805 1734.87 46.42L1734.29 46.666C1734.17 46.297 1733.8 46.01 1733.39 46.01C1732.86 46.01 1732.45 46.42 1732.45 46.953C1732.45 47.404 1732.69 47.773 1733.14 47.896L1734.99 48.347C1738.15 49.126 1740.4 51.955 1740.4 55.317C1740.4 59.294 1737.2 62.492 1733.23 62.492C1730.27 62.492 1727.73 60.729 1726.63 58.187ZM1743.62 62V40.27H1744.27V62H1743.62ZM1749.85 40.27V62H1749.19V40.27H1749.85ZM1749.19 38.138V31.25H1749.85V38.138H1749.19ZM1744.27 31.25V38.138H1743.62V31.25H1744.27ZM1764.89 45.846V46.502H1763.7C1761.2 46.502 1759.07 48.634 1759.07 51.135C1759.07 53.636 1761.2 55.768 1763.7 55.768H1764.89V56.424H1763.7C1760.83 56.424 1758.41 54.005 1758.41 51.135C1758.41 48.265 1760.83 45.846 1763.7 45.846H1764.89ZM1764.89 40.926H1763.7C1758.09 40.926 1753.49 45.518 1753.49 51.135C1753.49 56.752 1758.09 61.344 1763.7 61.344H1764.89V62H1763.7C1757.72 62 1752.84 57.121 1752.84 51.135C1752.84 45.149 1757.72 40.27 1763.7 40.27H1764.89V40.926ZM1790.29 62H1789.64L1783.73 46.871V62H1783.08V39.532H1778.16V62H1777.5V33.3H1786.64C1791.89 33.3 1796.07 37.482 1796.07 42.73C1796.07 46.912 1793.98 49.372 1791.56 50.889L1795.87 62H1795.21L1791.03 51.217C1789.84 51.914 1788.16 52.529 1786.77 52.939L1790.29 62ZM1789.39 45.313L1791.32 50.274C1793.53 48.88 1795.42 46.584 1795.42 42.73C1795.42 37.81 1791.56 33.956 1786.64 33.956H1783.73V38.876H1786.64C1788.78 38.876 1790.5 40.598 1790.5 42.73C1790.5 43.714 1790.13 44.575 1789.39 45.313ZM1783.73 39.532V46.871L1785.29 46.543C1788.49 45.846 1789.84 44.493 1789.84 42.73C1789.84 40.926 1788.45 39.532 1786.64 39.532H1783.73ZM1778.16 33.956V38.876H1783.08V33.956H1778.16ZM1790.79 50.602L1788.9 45.764C1787.67 46.707 1786.23 47.035 1784.64 47.363L1786.52 52.283C1787.75 51.955 1789.76 51.217 1790.79 50.602ZM1797.56 51.135C1797.56 44.862 1802.64 39.778 1808.92 39.778C1813.92 39.778 1818.14 42.976 1819.66 47.486L1806.33 55.563C1807.11 56.014 1807.97 56.26 1808.92 56.26C1810.97 56.26 1812.73 55.03 1813.55 53.308L1814.16 53.595C1813.26 55.563 1811.25 56.916 1808.92 56.916C1807.73 56.916 1806.62 56.547 1805.72 55.932L1801.29 58.638C1803.22 60.606 1805.92 61.836 1808.92 61.836C1813.18 61.836 1816.91 59.294 1818.63 55.645L1819.21 55.932C1817.4 59.827 1813.47 62.492 1808.92 62.492C1802.64 62.492 1797.56 57.408 1797.56 51.135ZM1798.22 51.135C1798.22 52.324 1798.42 53.431 1798.75 54.497L1803.18 51.791C1803.14 51.586 1803.14 51.34 1803.14 51.135C1803.14 47.937 1805.72 45.354 1808.92 45.354C1810.11 45.354 1811.25 45.723 1812.16 46.338L1816.54 43.673C1814.62 41.664 1811.91 40.434 1808.92 40.434C1803.01 40.434 1798.22 45.231 1798.22 51.135ZM1798.99 55.112C1799.45 56.219 1800.06 57.244 1800.84 58.146L1805.14 55.522C1804.24 54.743 1803.59 53.677 1803.3 52.488L1798.99 55.112ZM1803.79 51.135V51.422L1811.54 46.707C1810.76 46.256 1809.86 46.01 1808.92 46.01C1806.09 46.01 1803.79 48.306 1803.79 51.135ZM1803.87 52.16C1804.12 53.349 1804.82 54.415 1805.76 55.153L1813.96 50.151C1813.71 48.962 1813.06 47.896 1812.11 47.117L1803.87 52.16ZM1812.73 46.789C1813.63 47.568 1814.29 48.593 1814.53 49.823L1818.88 47.158C1818.43 46.051 1817.77 45.067 1817.03 44.165L1812.73 46.789ZM1822.31 31.25V62H1821.65V31.25H1822.31ZM1827.88 31.25V62H1827.23V31.25H1827.88ZM1830.83 51.135C1830.83 44.862 1835.92 39.778 1842.19 39.778C1847.19 39.778 1851.41 42.976 1852.93 47.486L1839.61 55.563C1840.39 56.014 1841.25 56.26 1842.19 56.26C1844.24 56.26 1846 55.03 1846.82 53.308L1847.44 53.595C1846.54 55.563 1844.53 56.916 1842.19 56.916C1841 56.916 1839.89 56.547 1838.99 55.932L1834.56 58.638C1836.49 60.606 1839.2 61.836 1842.19 61.836C1846.45 61.836 1850.18 59.294 1851.91 55.645L1852.48 55.932C1850.68 59.827 1846.74 62.492 1842.19 62.492C1835.92 62.492 1830.83 57.408 1830.83 51.135ZM1831.49 51.135C1831.49 52.324 1831.69 53.431 1832.02 54.497L1836.45 51.791C1836.41 51.586 1836.41 51.34 1836.41 51.135C1836.41 47.937 1838.99 45.354 1842.19 45.354C1843.38 45.354 1844.53 45.723 1845.43 46.338L1849.82 43.673C1847.89 41.664 1845.18 40.434 1842.19 40.434C1836.29 40.434 1831.49 45.231 1831.49 51.135ZM1832.27 55.112C1832.72 56.219 1833.33 57.244 1834.11 58.146L1838.42 55.522C1837.52 54.743 1836.86 53.677 1836.57 52.488L1832.27 55.112ZM1837.06 51.135V51.422L1844.81 46.707C1844.03 46.256 1843.13 46.01 1842.19 46.01C1839.36 46.01 1837.06 48.306 1837.06 51.135ZM1837.15 52.16C1837.39 53.349 1838.09 54.415 1839.03 55.153L1847.23 50.151C1846.99 48.962 1846.33 47.896 1845.39 47.117L1837.15 52.16ZM1846 46.789C1846.9 47.568 1847.56 48.593 1847.81 49.823L1852.15 47.158C1851.7 46.051 1851.05 45.067 1850.31 44.165L1846 46.789ZM1870.83 42.115V60.155C1873.58 58.474 1875.75 55.071 1875.75 51.135C1875.75 47.199 1873.58 43.796 1870.83 42.115ZM1865.05 39.778C1866.9 39.778 1868.62 40.229 1870.18 41.008V40.27H1870.83V41.377C1873.13 42.648 1874.89 44.944 1875.75 47.322V40.27H1876.41V62H1875.75V54.907C1874.93 57.244 1873.13 59.663 1870.83 60.934V62H1870.18V61.262C1868.62 62.041 1866.9 62.492 1865.05 62.492C1858.78 62.492 1853.69 57.408 1853.69 51.135C1853.69 44.862 1858.78 39.778 1865.05 39.778ZM1865.05 61.836C1866.9 61.836 1868.66 61.385 1870.18 60.565V53.841C1869.19 55.645 1867.27 56.916 1865.05 56.916C1861.85 56.916 1859.27 54.333 1859.27 51.135C1859.27 47.937 1861.85 45.354 1865.05 45.354C1867.27 45.354 1869.19 46.625 1870.18 48.47V41.746C1868.66 40.926 1866.9 40.434 1865.05 40.434C1859.15 40.434 1854.35 45.231 1854.35 51.135C1854.35 57.039 1859.15 61.836 1865.05 61.836ZM1865.05 56.26C1867.92 56.26 1870.18 53.964 1870.18 51.135C1870.18 48.306 1867.92 46.01 1865.05 46.01C1862.22 46.01 1859.93 48.306 1859.93 51.135C1859.93 53.964 1862.22 56.26 1865.05 56.26ZM1879.61 46.953C1879.61 42.976 1882.8 39.778 1886.78 39.778C1889.73 39.778 1892.27 41.582 1893.38 44.124L1892.77 44.411C1891.78 42.074 1889.45 40.434 1886.78 40.434C1883.17 40.434 1880.26 43.345 1880.26 46.953C1880.26 50.028 1882.35 52.57 1885.22 53.308L1887.03 53.759C1887.72 53.923 1888.22 54.579 1888.22 55.317C1888.22 56.219 1887.52 56.916 1886.62 56.916C1885.92 56.916 1885.35 56.506 1885.1 55.85L1885.71 55.604C1885.84 55.973 1886.17 56.26 1886.62 56.26C1887.15 56.26 1887.56 55.85 1887.56 55.317C1887.56 54.866 1887.31 54.497 1886.86 54.374L1885.02 53.923C1881.9 53.144 1879.61 50.315 1879.61 46.953ZM1880.02 58.187L1880.63 57.9C1881.61 60.237 1883.91 61.836 1886.62 61.836C1890.22 61.836 1893.14 58.925 1893.14 55.317C1893.14 52.242 1891.04 49.7 1888.17 48.962L1886.37 48.511C1885.63 48.306 1885.18 47.691 1885.18 46.953C1885.18 46.051 1885.88 45.354 1886.78 45.354C1887.48 45.354 1888.05 45.805 1888.26 46.42L1887.68 46.666C1887.56 46.297 1887.19 46.01 1886.78 46.01C1886.25 46.01 1885.84 46.42 1885.84 46.953C1885.84 47.404 1886.08 47.773 1886.53 47.896L1888.38 48.347C1891.54 49.126 1893.79 51.955 1893.79 55.317C1893.79 59.294 1890.59 62.492 1886.62 62.492C1883.66 62.492 1881.12 60.729 1880.02 58.187ZM1895.78 51.135C1895.78 44.862 1900.86 39.778 1907.13 39.778C1912.13 39.778 1916.36 42.976 1917.87 47.486L1904.55 55.563C1905.33 56.014 1906.19 56.26 1907.13 56.26C1909.18 56.26 1910.95 55.03 1911.77 53.308L1912.38 53.595C1911.48 55.563 1909.47 56.916 1907.13 56.916C1905.94 56.916 1904.84 56.547 1903.93 55.932L1899.51 58.638C1901.43 60.606 1904.14 61.836 1907.13 61.836C1911.4 61.836 1915.13 59.294 1916.85 55.645L1917.42 55.932C1915.62 59.827 1911.68 62.492 1907.13 62.492C1900.86 62.492 1895.78 57.408 1895.78 51.135ZM1896.43 51.135C1896.43 52.324 1896.64 53.431 1896.96 54.497L1901.39 51.791C1901.35 51.586 1901.35 51.34 1901.35 51.135C1901.35 47.937 1903.93 45.354 1907.13 45.354C1908.32 45.354 1909.47 45.723 1910.37 46.338L1914.76 43.673C1912.83 41.664 1910.13 40.434 1907.13 40.434C1901.23 40.434 1896.43 45.231 1896.43 51.135ZM1897.21 55.112C1897.66 56.219 1898.28 57.244 1899.06 58.146L1903.36 55.522C1902.46 54.743 1901.8 53.677 1901.52 52.488L1897.21 55.112ZM1902.01 51.135V51.422L1909.76 46.707C1908.98 46.256 1908.08 46.01 1907.13 46.01C1904.3 46.01 1902.01 48.306 1902.01 51.135ZM1902.09 52.16C1902.34 53.349 1903.03 54.415 1903.98 55.153L1912.18 50.151C1911.93 48.962 1911.27 47.896 1910.33 47.117L1902.09 52.16ZM1910.95 46.789C1911.85 47.568 1912.5 48.593 1912.75 49.823L1917.1 47.158C1916.64 46.051 1915.99 45.067 1915.25 44.165L1910.95 46.789ZM1918.88 46.953C1918.88 42.976 1922.08 39.778 1926.06 39.778C1929.01 39.778 1931.55 41.582 1932.66 44.124L1932.04 44.411C1931.06 42.074 1928.72 40.434 1926.06 40.434C1922.45 40.434 1919.54 43.345 1919.54 46.953C1919.54 50.028 1921.63 52.57 1924.5 53.308L1926.3 53.759C1927 53.923 1927.49 54.579 1927.49 55.317C1927.49 56.219 1926.8 56.916 1925.89 56.916C1925.2 56.916 1924.62 56.506 1924.38 55.85L1924.99 55.604C1925.12 55.973 1925.44 56.26 1925.89 56.26C1926.43 56.26 1926.84 55.85 1926.84 55.317C1926.84 54.866 1926.59 54.497 1926.14 54.374L1924.3 53.923C1921.18 53.144 1918.88 50.315 1918.88 46.953ZM1919.29 58.187L1919.91 57.9C1920.89 60.237 1923.19 61.836 1925.89 61.836C1929.5 61.836 1932.41 58.925 1932.41 55.317C1932.41 52.242 1930.32 49.7 1927.45 48.962L1925.65 48.511C1924.91 48.306 1924.46 47.691 1924.46 46.953C1924.46 46.051 1925.16 45.354 1926.06 45.354C1926.76 45.354 1927.33 45.805 1927.53 46.42L1926.96 46.666C1926.84 46.297 1926.47 46.01 1926.06 46.01C1925.53 46.01 1925.12 46.42 1925.12 46.953C1925.12 47.404 1925.36 47.773 1925.81 47.896L1927.66 48.347C1930.81 49.126 1933.07 51.955 1933.07 55.317C1933.07 59.294 1929.87 62.492 1925.89 62.492C1922.94 62.492 1920.4 60.729 1919.29 58.187Z" fill="white"/>
</g>
<defs>
<clipPath id="clip0_443_857">
<rect width="1940" height="343" fill="white"/>
</clipPath>
</defs>
</svg>